<?xml version="1.0" encoding="UTF-8" standalone="no"?>
<svg
   xmlns:dc="http://purl.org/dc/elements/1.1/"
   xmlns:cc="http://creativecommons.org/ns#"
   xmlns:rdf="http://www.w3.org/1999/02/22-rdf-syntax-ns#"
   xmlns:svg="http://www.w3.org/2000/svg"
   xmlns="http://www.w3.org/2000/svg"
   xmlns:sodipodi="http://sodipodi.sourceforge.net/DTD/sodipodi-0.dtd"
   xmlns:inkscape="http://www.inkscape.org/namespaces/inkscape"
   width="268.79312pt"
   height="166.29552pt"
   viewBox="0 0 268.79312 166.29552"
   version="1.2"
   id="svg41"
   sodipodi:docname="pic-8.svg"
   inkscape:version="0.92.2 5c3e80d, 2017-08-06">
  <metadata
     id="metadata47">
    <rdf:RDF>
      <cc:Work
         rdf:about="">
        <dc:format>image/svg+xml</dc:format>
        <dc:type
           rdf:resource="http://purl.org/dc/dcmitype/StillImage" />
      </cc:Work>
    </rdf:RDF>
  </metadata>
  <defs
     id="defs45" />
  <sodipodi:namedview
     pagecolor="#ffffff"
     bordercolor="#666666"
     borderopacity="1"
     objecttolerance="10"
     gridtolerance="10"
     guidetolerance="10"
     inkscape:pageopacity="0"
     inkscape:pageshadow="2"
     inkscape:window-width="495"
     inkscape:window-height="415"
     id="namedview43"
     showgrid="false"
     inkscape:zoom="0.22348485"
     inkscape:cx="258.17997"
     inkscape:cy="-179.69885"
     inkscape:window-x="0"
     inkscape:window-y="0"
     inkscape:window-maximized="0"
     inkscape:current-layer="svg41" />
  <g
     id="surface1"
     transform="translate(-112.36503,-94.930342)">
    <path
       style="fill:#1747b3;fill-opacity:1;fill-rule:nonzero;stroke:none"
       d="m 153.38672,107.08594 c -0.082,-1.69531 -0.11328,-3.50781 -0.71875,-5 -0.0937,-0.23438 -0.35547,-0.34375 -0.58594,-0.25 -0.23437,0.0937 -0.34375,0.35547 -0.25,0.58594 0.0898,0.23437 0.35547,0.34375 0.58594,0.2539 0.23437,-0.0937 0.34375,-0.35937 0.25,-0.58984 -0.44141,-1.10547 -1.34375,-2.05078 -2.48047,-2.628909 -0.24219,-0.117187 -0.53516,-0.01563 -0.65625,0.226563 -0.11719,0.242187 -0.0156,0.535156 0.22656,0.656246 0.24219,0.11719 0.53516,0.0156 0.65235,-0.22656 0.12109,-0.242186 0.0195,-0.535155 -0.22266,-0.656249 -1.65625,-0.808593 -4,-1.214843 -6.46094,-0.472656 -0.26953,0.08594 -0.42187,0.375 -0.33594,0.644531 0.0859,0.273438 0.375,0.425784 0.64454,0.339844 0.27343,-0.08594 0.42187,-0.375 0.33984,-0.644531 -0.0859,-0.273438 -0.375,-0.425781 -0.64844,-0.339844 -2.0664,0.640625 -4.30078,2.238285 -6.41015,4.929685 -1.75,2.25782 -3.32422,5.42578 -5.125,9.23047 -1.48438,3.13672 -3.19922,6.71094 -4.85157,10.61328 -2.03906,4.8125 -4.01562,10.10938 -5.90625,15.63281 -0.41796,1.21485 -0.85156,2.47266 -1.28906,3.77735 -0.3125,0.9375 -0.60937,1.875 -0.90234,2.82422 -1.04688,3.41797 -1.99219,6.92187 -2.77735,10.375 -0.21093,0.92187 -0.39843,1.84765 -0.58593,2.78906 -0.24219,1.26953 -0.4961,2.55078 -0.72657,3.82422 -0.17968,0.98437 -0.33984,1.97656 -0.49609,2.98828 -0.9375,5.94922 -1.66016,12.3125 -2.05859,18.59766 -0.0625,1.02734 -0.0898,2.04687 -0.11328,3.0664 -0.10157,3.6836 -0.16016,7.4336 -0.0859,11.17578 0.0195,0.96485 0.10937,1.90235 0.1914,2.81641 0.11329,1.25781 0.26563,2.5 0.41797,3.69141 0.26953,2.07812 0.5625,4.05859 0.92969,5.91015 0.78906,3.91797 1.65625,7.625 2.72656,11.125 1.08594,3.56641 2.33203,6.98047 3.63672,10.23438 0.27344,0.6914 0.5586,1.36328 0.85156,2.02343 0.39063,0.89454 0.77344,1.78125 1.16407,2.63282 1.66797,3.63281 3.46875,6.74218 5.30859,9.42187 1.87109,2.72266 3.76562,5.13672 5.86719,6.98438 3.41406,2.97265 7.64062,4.32422 11.71093,4.50781 2.03516,0.0781 4.13282,-0.0625 6.17188,-0.63281 3.60547,-1.00782 6.97266,-3.66407 10.28516,-6.64844 1.91015,-1.70703 3.80078,-3.62109 5.71875,-5.50781 3.30078,-3.25391 6.91406,-6.30469 10.24218,-9.78125 1.40625,-1.46875 2.80469,-2.9961 4.13282,-4.625 2.27343,-2.80078 4.26953,-6 6.1289,-9.26172 1.82422,-3.21485 3.44531,-6.60156 5.10938,-10.14453 0.375,-0.79688 0.76562,-1.61719 1.16406,-2.47266 0.63672,-1.36719 1.19531,-2.74609 1.74609,-4.12109 1.45313,-3.61328 2.72266,-7.28516 3.87891,-11.03907 1.17578,-3.8125 2.29297,-7.76953 3.19922,-11.76562 0.33594,-1.46875 0.63281,-2.94531 0.91015,-4.46484 0.30079,-1.6836 0.57813,-3.4336 0.82422,-5.22657 0.10157,-0.71484 0.17969,-1.4414 0.25391,-2.1914 0.17969,-1.84375 0.36328,-3.80469 0.47656,-5.84766 0.21485,-3.85937 0.36719,-8 0.16406,-12.34375 -0.0508,-1.19531 -0.14453,-2.44531 -0.26953,-3.73828 -0.0898,-0.94922 -0.21093,-1.90234 -0.34375,-2.85547 -0.47656,-3.42187 -1.0664,-6.96094 -1.84375,-10.39844 -0.20312,-0.88281 -0.40234,-1.76172 -0.61718,-2.64062 -0.28907,-1.17578 -0.57422,-2.34766 -0.86719,-3.48438 -0.51172,-1.97265 -1.03125,-3.84765 -1.53906,-5.61328 -1.10547,-3.82422 -2.42188,-7.43359 -4.02735,-10.66797 -0.33984,-0.6914 -0.72265,-1.35937 -1.11328,-2.0039 -1.41016,-2.31641 -3.10547,-4.57422 -5.05859,-6.73438 -0.50391,-0.55078 -1.04297,-1.09375 -1.60547,-1.60156 -1.41016,-1.27734 -2.96485,-2.515625 -4.58985,-3.570312 -3.01562,-1.941407 -6.5,-3.21875 -10.05468,-3.683594 -4.46875,-0.558594 -9.35157,0.355468 -14.07813,2.65625 -0.44531,0.21875 -0.63281,0.753906 -0.41406,1.195312 0.21484,0.445313 0.75,0.632813 1.19531,0.414063 0.44531,-0.214844 0.62891,-0.75 0.41406,-1.195313 -0.21875,-0.445312 -0.7539,-0.628906 -1.19531,-0.414062 -0.89844,0.445312 -1.76562,1.015625 -2.60156,1.578125 -0.40234,0.269531 -0.51172,0.812501 -0.24609,1.218751 0.26953,0.40234 0.8164,0.51172 1.21875,0.24219 0.40234,-0.26563 0.51171,-0.812504 0.24609,-1.214848 -0.26953,-0.40625 -0.81641,-0.515624 -1.21875,-0.246093 -1.97266,1.320311 -4.00391,2.847661 -5.92969,4.511721 -0.35937,0.30859 -0.39844,0.85156 -0.0898,1.21094 0.30859,0.35937 0.85156,0.40234 1.21094,0.0937 0.36328,-0.3125 0.40234,-0.85547 0.0937,-1.21485 -0.3086,-0.35937 -0.85157,-0.40234 -1.21485,-0.0898 -3.60156,3.32422 -6.98828,7.28125 -9.66015,11.23828 -0.11329,0.15234 -0.0781,0.36719 0.0742,0.47656 0.15235,0.11328 0.36719,0.0781 0.47657,-0.0742 2.91406,-3.70703 6.46484,-7.32812 10.23047,-10.33593 1.89062,-1.61719 3.84375,-3.07422 5.78125,-4.35547 0.83593,-0.54688 1.60546,-1.046879 2.41015,-1.429691 4.52344,-2.195313 8.89063,-2.996094 13.0586,-2.433594 3.35156,0.429687 6.45312,1.566406 9.28906,3.406255 1.55469,1 2.99219,2.14062 4.36328,3.375 0.53125,0.48046 1.00781,0.95703 1.48047,1.47265 1.90625,2.09375 3.5039,4.21094 4.86719,6.44531 0.38281,0.6211 0.72656,1.22266 1.04687,1.86329 1.56641,3.14062 2.83203,6.59765 3.92578,10.36328 0.51172,1.7539 1.02735,3.60937 1.54297,5.5664 0.30078,1.1211 0.59766,2.28125 0.89453,3.45313 0.21875,0.86328 0.41406,1.72265 0.61719,2.60547 0.78125,3.38671 1.37109,6.85546 1.85937,10.25 0.13282,0.94531 0.25391,1.85937 0.34375,2.78125 0.125,1.27734 0.21875,2.48437 0.27735,3.65625 0.20312,4.27734 0.0586,8.33203 -0.14453,12.17578 -0.10547,2.01562 -0.28125,3.9414 -0.44922,5.78515 -0.0664,0.7461 -0.13281,1.44141 -0.21875,2.12891 -0.23438,1.77734 -0.5,3.5 -0.78906,5.17187 -0.25782,1.50782 -0.53125,2.94922 -0.85157,4.39844 -0.88281,3.96094 -1.97656,7.86719 -3.13672,11.66406 -1.14062,3.73438 -2.38281,7.34766 -3.8164,10.92969 -0.55078,1.3711 -1.09766,2.71485 -1.71875,4.04688 -0.39844,0.84765 -0.78516,1.67187 -1.16016,2.47265 -1.66015,3.53516 -3.2539,6.8711 -5.05469,10.04297 -1.83593,3.24219 -3.76562,6.34375 -5.98046,9.07422 -1.29297,1.60156 -2.64454,3.08984 -4.03516,4.55469 -3.26563,3.4375 -6.85156,6.48437 -10.17969,9.78906 -1.91015,1.91016 -3.75781,3.82031 -5.62109,5.51953 -3.28125,2.96485 -6.41016,5.46875 -9.75781,6.38281 -1.91407,0.51954 -3.80469,0.625 -5.76954,0.52344 -3.89062,-0.17578 -7.68359,-1.3789 -10.86718,-4.20312 -2.00391,-1.76172 -3.78516,-4.04688 -5.625,-6.73828 -1.80469,-2.64063 -3.53125,-5.64844 -5.16406,-9.23047 -0.38282,-0.83594 -0.76563,-1.71485 -1.15625,-2.60938 -0.28907,-0.65234 -0.56641,-1.30469 -0.83985,-1.98047 -1.30078,-3.23047 -2.52734,-6.58984 -3.60547,-10.11718 -1.05468,-3.45313 -1.90234,-7.09766 -2.68359,-10.99219 -0.36719,-1.81641 -0.65234,-3.75 -0.92188,-5.8125 -0.15625,-1.1875 -0.30468,-2.40235 -0.41796,-3.63672 -0.082,-0.91797 -0.16797,-1.80859 -0.1875,-2.72266 -0.0859,-3.71484 -0.0352,-7.42968 0.0586,-11.10937 0.0312,-1.01563 0.0586,-2.01172 0.12109,-3.01563 0.39063,-6.25 1.10157,-12.55468 2.02735,-18.47265 0.16015,-1.00782 0.32422,-1.98047 0.5039,-2.94922 0.23438,-1.26172 0.49219,-2.53516 0.74219,-3.8125 0.17578,-0.9375 0.35547,-1.83985 0.55859,-2.75 0.76172,-3.42969 1.67579,-6.89063 2.70313,-10.28906 0.28125,-0.94532 0.57031,-1.86719 0.875,-2.80079 0.42578,-1.30468 0.84766,-2.55859 1.25391,-3.77734 1.85546,-5.51953 3.79296,-10.78125 5.80078,-15.58203 1.625,-3.87891 3.3125,-7.4375 4.78515,-10.58594 1.78516,-3.80078 3.29688,-6.875 4.96875,-9.03906 1.9961,-2.60547 3.95313,-4.03125 5.83985,-4.625 2.23046,-0.71875 4.20312,-0.367188 5.72265,0.37109 1.01172,0.47266 1.69141,1.15235 2.07422,2.08204 0.52734,1.32421 0.52344,2.99218 0.58594,4.70703 0.0117,0.26562 0.23828,0.47265 0.50781,0.46093 0.26563,-0.008 0.47266,-0.23437 0.46094,-0.5039 z m 0,0"
       id="path2"
       inkscape:connector-curvature="0" />
    <path
       style="fill:#1747b3;fill-opacity:1;fill-rule:nonzero;stroke:none"
       d="m 331.05078,107.48828 c -0.14453,-1.30859 0.17969,-2.90625 -0.17969,-4.14844 -0.0586,-0.20703 -0.27343,-0.32812 -0.48047,-0.26953 -0.20703,0.0547 -0.32812,0.26953 -0.27343,0.48047 0.0586,0.20703 0.27343,0.32813 0.48047,0.26953 0.21093,-0.0547 0.33203,-0.26953 0.27343,-0.48047 -0.12109,-0.46484 -0.42968,-0.91015 -0.8164,-1.21875 -0.19141,-0.14062 -0.46094,-0.10156 -0.60157,0.0898 -0.14453,0.19531 -0.10156,0.46484 0.0899,0.60547 0.1914,0.14062 0.46094,0.0977 0.60156,-0.0937 0.14063,-0.19141 0.10156,-0.46094 -0.0898,-0.60157 -0.39063,-0.29687 -0.92578,-0.53515 -1.5,-0.67578 -0.25391,-0.0547 -0.50782,0.10547 -0.5625,0.35938 -0.0547,0.25781 0.10547,0.50781 0.35937,0.5625 0.25391,0.0547 0.50781,-0.10547 0.5625,-0.35938 0.0547,-0.2539 -0.10547,-0.50781 -0.35937,-0.5625 -1.92578,-0.42968 -5.04297,-0.11718 -8.58594,1.92969 -1.76563,1.02344 -3.70703,2.49219 -5.68359,4.53125 -1.9336,1.99219 -3.92579,4.5625 -5.9336,7.86328 -2.09375,3.44922 -4.5664,7.55078 -7.21484,12.29297 -1.87891,3.35937 -3.77735,6.94531 -5.59375,10.66016 -2.46094,5.04687 -4.71875,10.37109 -6.60156,15.59375 -1.34375,3.73828 -2.4336,7.45312 -3.3086,11.13281 -0.61719,2.58203 -1.11328,5.20703 -1.52734,7.83203 -0.16016,1.03906 -0.30078,2.07422 -0.42578,3.10937 -0.44141,3.69922 -0.69532,7.41797 -0.85547,11.07813 -0.0391,0.93359 -0.0586,1.84375 -0.0742,2.75391 -0.0195,1.23437 -0.0234,2.45312 -0.0273,3.63281 -0.0117,2.05859 -0.008,4.01953 -0.008,5.89844 0,4.08984 0.22266,8.05859 0.57032,11.86328 0.35937,3.92187 0.98437,7.72656 1.6875,11.21484 0.14453,0.73047 0.27343,1.44922 0.42578,2.16797 0.20703,0.97266 0.42968,1.9375 0.65625,2.875 0.58593,2.38672 1.32812,4.57422 2.125,6.53906 0.80078,1.97656 1.75781,3.76172 2.79297,5.39844 0.65625,1.03906 1.35156,2.05078 2.11718,3.03125 2.08985,2.67187 4.57813,5.29297 7.20313,7.67187 2.60937,2.34766 5.32812,4.58985 8.13672,6.26172 1.65625,0.98047 3.41797,1.70313 5.15625,2.29688 1.78906,0.61328 3.66015,1.12109 5.55468,1.45703 3.17188,0.57031 6.51172,0.95312 9.88672,0.48437 2.06641,-0.29687 4.17188,-0.94921 6.1836,-1.83593 1.96484,-0.87891 3.91406,-2.07813 5.77343,-3.50782 0.73438,-0.5625 1.44141,-1.1914 2.125,-1.80859 2.35938,-2.125 4.62891,-4.57422 6.78907,-7.35937 1.6914,-2.17969 3.32812,-4.54688 4.89062,-6.94532 1.55078,-2.36718 3.03125,-4.8125 4.46485,-7.23047 2.3125,-3.90625 4.73046,-7.72265 6.94531,-11.82421 2.25781,-4.16016 4.43359,-8.53907 6.21875,-13.14454 1.00781,-2.62109 1.83203,-5.34765 2.60937,-8.24609 0.3086,-1.14453 0.57813,-2.32422 0.85157,-3.5 0.46875,-2.01953 0.98437,-4.08984 1.42968,-6.26172 0.96094,-4.6875 1.7461,-9.73828 2.32422,-14.67187 0.11719,-1.01953 0.23828,-2.03125 0.33985,-3.05469 0.25,-2.42578 0.42187,-4.86719 0.58203,-7.27734 0.0898,-1.32422 0.1914,-2.65625 0.27343,-3.96875 0.0664,-1.04688 0.0937,-2.02344 0.11719,-2.87891 0.0352,-1.26953 0.11328,-2.53516 0.15625,-3.77344 0.0703,-2.14844 0.0664,-4.1875 0.0352,-6.08984 -0.0547,-3.04688 -0.41797,-5.99219 -1.02735,-8.85547 -0.80859,-3.85156 -2.35156,-7.60156 -4.27734,-11.37891 -0.53125,-1.04687 -1.11719,-2.125 -1.73437,-3.23437 -0.44532,-0.80078 -0.89844,-1.60938 -1.39063,-2.42578 -0.67187,-1.08985 -1.36328,-2.1875 -2.0625,-3.25391 -0.53906,-0.83203 -1.08594,-1.66406 -1.66406,-2.48828 -1.95313,-2.78906 -4.09766,-5.44531 -6.28125,-7.70703 -2.85938,-2.94141 -6.03906,-5.28516 -9.4375,-6.83203 -4.27344,-1.910159 -9.16406,-2.546878 -14.42969,-1.816409 -0.41797,0.05859 -0.71094,0.445309 -0.65234,0.863279 0.0547,0.41797 0.4414,0.71094 0.85937,0.65235 0.41797,-0.0586 0.71094,-0.44141 0.65235,-0.85938 -0.0547,-0.417968 -0.44141,-0.710936 -0.85938,-0.656249 -5.57812,0.847659 -11.64453,3.355469 -17.07031,6.546879 -0.25,0.14453 -0.33594,0.46093 -0.19531,0.71093 0.14453,0.25 0.46093,0.33594 0.71093,0.19532 0.25,-0.14453 0.33594,-0.46094 0.19141,-0.71094 -0.14063,-0.25 -0.45703,-0.33594 -0.70703,-0.19531 -0.92578,0.55078 -1.82031,1.05468 -2.60938,1.55859 -0.21875,0.13672 -0.28906,0.42188 -0.15625,0.64063 0.13672,0.22265 0.42188,0.28906 0.64453,0.15625 0.21875,-0.13282 0.28907,-0.42188 0.15235,-0.64063 -0.13281,-0.22266 -0.42188,-0.28906 -0.64063,-0.15625 -1.04297,0.6875 -2.125,1.41016 -3.2539,2.19531 -0.16016,0.10157 -0.20313,0.3125 -0.10157,0.47266 0.10157,0.15625 0.3125,0.20312 0.47266,0.10156 1.16797,-0.71094 2.28906,-1.35937 3.37109,-1.97265 0.78516,-0.46094 1.6836,-0.92579 2.63672,-1.44922 5.42969,-3.01172 11.33594,-5.28907 16.76172,-5.9375 5.07031,-0.67578 9.50781,-0.0625 13.53906,1.80468 3.23829,1.46875 6.16016,3.64063 8.91797,6.4961 2.13672,2.19922 4.20703,4.75 6.13282,7.48828 0.5625,0.80078 1.09765,1.61328 1.63671,2.4375 0.6875,1.05469 1.36329,2.13672 2.02344,3.22266 0.48828,0.78906 0.9375,1.5664 1.38672,2.35546 0.625,1.10157 1.20313,2.14454 1.73047,3.16797 1.91797,3.71485 3.40625,7.26172 4.19922,10.96875 0.59765,2.80078 0.9414,5.59375 0.98828,8.5586 0.0312,1.89062 0.0352,3.89453 -0.0352,6.01171 -0.043,1.21875 -0.11718,2.48829 -0.15625,3.78516 -0.0234,0.85547 -0.0508,1.80078 -0.11718,2.82422 -0.082,1.30078 -0.1836,2.62891 -0.26954,3.96484 -0.16015,2.40625 -0.33203,4.82032 -0.57812,7.22266 -0.10938,1.00781 -0.23047,2.00781 -0.35156,3.03125 -0.57422,4.90234 -1.35157,9.89062 -2.30469,14.53906 -0.4375,2.14063 -0.94922,4.19141 -1.42188,6.22266 -0.26953,1.17578 -0.53515,2.32812 -0.83593,3.44531 -0.77344,2.87891 -1.57032,5.52734 -2.5625,8.08984 -1.7461,4.54297 -3.8711,8.83985 -6.10547,12.98047 -2.19531,4.05469 -4.59766,7.84375 -6.92188,11.76563 -1.42968,2.41797 -2.88281,4.83984 -4.41406,7.1875 -1.55469,2.38281 -3.15234,4.69922 -4.81641,6.84375 -2.125,2.73047 -4.3125,5.0664 -6.6289,7.14062 -0.6836,0.61328 -1.33985,1.20313 -2.03125,1.73047 -1.80078,1.36719 -3.59766,2.45313 -5.47656,3.27344 -1.92969,0.85156 -3.82422,1.44141 -5.76172,1.71484 -3.17578,0.46485 -6.26563,0.10547 -9.39063,-0.4414 -1.82422,-0.32422 -3.57812,-0.80469 -5.3164,-1.40235 -1.69532,-0.58203 -3.3086,-1.24218 -4.86329,-2.16797 -2.70703,-1.60156 -5.30859,-3.74609 -7.89453,-6.07031 -2.59375,-2.32031 -5.00781,-4.83594 -7.0625,-7.4414 -0.73828,-0.9375 -1.39453,-1.88672 -2.03906,-2.90235 -1.00781,-1.58984 -1.89844,-3.2539 -2.66797,-5.15625 -0.77734,-1.92578 -1.48437,-4.00781 -2.05078,-6.33594 -0.22656,-0.92187 -0.44531,-1.86718 -0.65234,-2.83203 -0.14844,-0.6914 -0.27344,-1.40234 -0.42578,-2.14843 -0.70313,-3.46094 -1.32813,-7.1875 -1.6875,-11.05469 -0.35547,-3.77344 -0.58204,-7.67969 -0.58985,-11.72656 -0.008,-1.88282 -0.0156,-3.83985 -0.0117,-5.89063 0.008,-1.17969 0.0195,-2.39062 0.0469,-3.60937 0.0195,-0.90625 0.0469,-1.80079 0.0898,-2.71875 0.15625,-3.64844 0.39844,-7.3125 0.82813,-10.97657 0.125,-1.01953 0.26562,-2.02343 0.42968,-3.05468 0.39844,-2.60547 0.8711,-5.17579 1.46875,-7.73047 0.85938,-3.64453 1.91797,-7.28125 3.24219,-10.98828 1.85156,-5.19141 4.07031,-10.44922 6.50391,-15.47266 1.79297,-3.69922 3.66015,-7.26172 5.51562,-10.61719 2.6211,-4.73437 5.05469,-8.83203 7.125,-12.29297 1.94922,-3.26171 3.83985,-5.75 5.70313,-7.71093 1.90234,-2 3.70703,-3.39063 5.40234,-4.39844 3.35547,-2 6.09766,-2.29297 7.84375,-1.92578 0.50781,0.0977 0.88281,0.23437 1.19141,0.44922 0.30859,0.20312 0.48047,0.41015 0.57422,0.73437 0.26953,1.01563 -0.11328,2.5586 -0.0312,4.01953 0.0195,0.26563 0.2539,0.46485 0.51953,0.44141 0.26953,-0.0195 0.46875,-0.25391 0.44531,-0.52344"
       id="path4"
       inkscape:connector-curvature="0" />
    <path
       style="fill:#1747b3;fill-opacity:1;fill-rule:nonzero;stroke:none"
       d="m 163.51172,131.12109 c -0.25781,-0.082 -0.60938,-0.0312 -0.82422,0.0703 -0.25,0.13671 -0.33984,0.45312 -0.19922,0.70312 0.13672,0.25 0.45313,0.33984 0.70313,0.19922 0.25,-0.13672 0.33984,-0.45313 0.19921,-0.70313 -0.13671,-0.25 -0.45312,-0.33984 -0.70312,-0.19921 -0.19922,0.10156 -0.41406,0.27343 -0.59766,0.4375 -0.21093,0.21484 -0.21093,0.5664 0.004,0.77734 0.21484,0.21484 0.5625,0.21484 0.77734,0 0.21485,-0.21875 0.21485,-0.56641 -0.004,-0.78125 -0.21485,-0.21094 -0.5625,-0.21094 -0.77735,0.004 -0.35547,0.33203 -0.71484,0.75781 -1.04297,1.07421 -0.23046,0.25 -0.21875,0.63672 0.0312,0.8711 0.25,0.23047 0.63672,0.21484 0.8711,-0.0312 0.23047,-0.25 0.21484,-0.63672 -0.0312,-0.8711 -0.25,-0.23046 -0.64063,-0.21875 -0.8711,0.0312 -0.22656,0.22266 -0.42578,0.33204 -0.67187,0.42188 -0.14453,0.0547 -0.16797,0.0508 -0.26172,0.0195 -0.17578,-0.004 -0.25391,-0.10156 -0.22656,-0.3125 -0.0312,-0.0156 -0.0234,0 0.0508,-0.15625 0.0742,-0.17187 0.17969,-0.32031 0.33594,-0.49609 0.27343,-0.35547 0.9414,-0.50782 1.63672,-0.6211 0.60546,-0.10937 0.93359,-0.0977 1.08203,0.0586 0.0273,-0.004 -0.0234,-0.0664 -0.008,0.0312 0.0312,0.0977 0.0273,0.14843 -0.004,0.26953 0.0117,0.0156 0.0312,-0.0391 -0.0937,0.0469 -0.12891,0.10157 -0.27735,0.16797 -0.51953,0.25782 -0.48438,0.18359 -1.03125,0.27343 -1.51172,0.26562 -0.24219,0.0156 -0.28906,-0.0117 -0.41406,-0.125 -0.12891,-0.082 -0.1211,-0.0781 -0.125,-0.18359 -0.043,-0.0156 -0.0781,0.10156 -0.0195,0.0234 0.27735,-0.39843 0.17579,-0.94921 -0.22265,-1.22656 -0.40235,-0.27734 -0.95313,-0.17969 -1.23047,0.22266 -0.27734,0.39844 -0.17578,0.94922 0.22266,1.22656 0.40234,0.28125 0.95312,0.17969 1.23046,-0.22266 0.043,-0.10546 0.0664,-0.14062 0.23438,-0.20703 0.4375,-0.16797 0.65234,-0.65625 0.48437,-1.09375 -0.16796,-0.43359 -0.65625,-0.65234 -1.08984,-0.48437 -0.4375,0.16797 -0.65234,0.65625 -0.48437,1.09375 0.16406,0.43359 0.65625,0.65234 1.08984,0.48437 0.25781,-0.20312 0.51953,-0.30468 0.98437,-0.16015 0.29688,0.13672 0.64844,0.008 0.78907,-0.28907 0.13672,-0.29687 0.0117,-0.64843 -0.28516,-0.78515 -0.29687,-0.14063 -0.65234,-0.0117 -0.78906,0.28515 -0.14063,0.29688 -0.0117,0.64844 0.28515,0.78907 0.52735,0.14453 1.0625,0.51953 1.60547,1.36718 0.0898,0.16407 0.29688,0.22657 0.46094,0.14063 0.16797,-0.0898 0.23047,-0.29688 0.14063,-0.46484 -0.46094,-1.02735 -1.09766,-1.73438 -1.70313,-2.11719 -0.66797,-0.39063 -1.5,-0.46875 -2.09375,-0.34375 -0.39844,0.14844 -0.83594,0.46875 -1.08203,0.78125 -0.23438,0.33984 -0.38672,0.9414 -0.32031,1.39453 0.11718,0.42578 0.45703,0.9375 0.82812,1.23047 0.375,0.25781 1,0.46875 1.55078,0.46094 0.64063,-0.0312 1.46094,-0.20704 2.10157,-0.47657 0.32421,-0.13672 0.67968,-0.33984 0.9375,-0.55468 0.25781,-0.22657 0.53906,-0.63282 0.6289,-1.00782 0.0547,-0.28125 0.0547,-0.67187 -0.0117,-0.97265 -0.0781,-0.30469 -0.32422,-0.72266 -0.61718,-0.96094 -0.60157,-0.38672 -1.51563,-0.47266 -2.3125,-0.33594 -0.76954,0.14453 -1.85938,0.47656 -2.51954,1.16406 -0.21484,0.24219 -0.44921,0.56641 -0.59375,0.86329 -0.14453,0.3125 -0.24218,0.79296 -0.17968,1.17968 0.23047,0.67969 0.95703,1.28516 1.62109,1.375 0.32422,0.0117 0.71094,-0.082 0.97656,-0.21484 0.33203,-0.17188 0.71485,-0.45703 1.01563,-0.80078 0.33203,-0.39063 0.64453,-0.83203 0.92187,-1.14063 0.13672,-0.15234 0.23047,-0.24609 0.32032,-0.30859 0.0781,-0.0586 0.004,-0.0664 -0.008,-0.0586 0.25391,0.0898 0.53125,-0.043 0.6211,-0.29297 0.0898,-0.25391 -0.0391,-0.53125 -0.29297,-0.6211 z m 0,0"
       id="path6"
       inkscape:connector-curvature="0" />
    <path
       style="fill:#1747b3;fill-opacity:1;fill-rule:nonzero;stroke:none"
       d="m 154.40234,168.98047 c -0.30078,-0.0469 -0.93359,-0.0703 -1.58593,-0.082 -0.3125,0.004 -0.5586,0.26562 -0.55079,0.57812 0.004,0.3125 0.26563,0.5586 0.57813,0.55469 0.3125,-0.008 0.55859,-0.26563 0.55469,-0.57813 -0.008,-0.3164 -0.26563,-0.5625 -0.58203,-0.55468 -0.36329,-0.0195 -0.66016,0.008 -0.85938,-0.043 -0.35547,-0.0273 -0.67187,0.23828 -0.69922,0.59765 -0.0312,0.35547 0.23828,0.66797 0.59375,0.69922 0.35938,0.0273 0.67188,-0.23828 0.69922,-0.59375 0.0312,-0.35937 -0.23437,-0.67187 -0.59375,-0.70312 -0.44141,-0.0547 -0.64453,-0.004 -0.48047,-0.0352 -0.33203,-0.23437 -0.79297,-0.15234 -1.02734,0.17969 -0.23438,0.33203 -0.15235,0.79297 0.17969,1.02344 0.33203,0.23437 0.78906,0.15625 1.02343,-0.17578 0.23438,-0.33204 0.15625,-0.79297 -0.17578,-1.02735 0.0977,0.10547 0.20313,0.29688 0.21094,0.28125 0,-0.0312 0.0117,-0.0586 0.0391,-0.17187 0.0586,-0.23438 0.17188,-0.4961 0.32031,-0.76172 0.25782,-0.57813 1.04688,-1.125 1.81641,-1.53516 0.45703,-0.26172 0.83594,-0.27734 1.19141,-0.1914 0.125,-0.004 0.0859,-0.0117 0.16406,0.17578 0.10547,0.18359 0.12891,0.36328 0.10547,0.63672 0,0.47265 -0.39453,0.89453 -0.94922,1.17968 -0.30859,0.19532 -0.54297,0.20313 -0.81641,0.10157 -0.0547,0.0469 -0.0508,-0.0234 -0.18359,-0.42579 -0.15234,-0.41015 -0.22266,-0.91015 -0.24609,-1.4375 -0.0352,-0.55468 0.043,-0.95703 0.19921,-1.29296 0.0781,-0.29297 0.0352,-0.3125 0.0195,-0.29297 0.46484,-0.13282 0.73046,-0.6211 0.59765,-1.08594 -0.13672,-0.46094 -0.62109,-0.73047 -1.08594,-0.59375 -0.46484,0.13281 -0.73046,0.62109 -0.59765,1.08594 0.13672,0.46093 0.62109,0.73047 1.08594,0.59375 -0.0273,-0.0234 -0.21094,-0.0586 -0.20704,-0.0586 0.40625,0.20313 0.90235,0.0391 1.10938,-0.36718 0.20312,-0.40625 0.0391,-0.90235 -0.36719,-1.10938 -0.40625,-0.20703 -0.90234,-0.043 -1.10937,0.36719 -0.20703,0.40625 -0.043,0.90234 0.36718,1.10937 0.0391,-0.0117 0.043,-0.0273 0.14454,0.0977 0.24218,0.35547 0.72656,0.44141 1.08203,0.19922 0.35156,-0.24219 0.4414,-0.72656 0.19922,-1.07813 -0.2461,-0.35547 -0.72657,-0.44531 -1.08204,-0.20312 -0.35156,0.24609 -0.4414,0.73047 -0.19921,1.08203 0.44921,0.37891 0.90625,1.33203 1.24609,3.17578 0.0234,0.1875 0.19141,0.32422 0.37891,0.30469 0.1875,-0.0195 0.32031,-0.1875 0.30078,-0.375 -0.0625,-1.94922 -0.32032,-3.23828 -0.64453,-3.98828 -0.17188,-0.26563 -0.44532,-0.54297 -0.6836,-0.69141 -0.27344,-0.14062 -0.73437,-0.19922 -1.02344,-0.14453 -0.53906,0.17187 -1.05859,0.70312 -1.32031,1.20312 -0.23437,0.57422 -0.375,1.40235 -0.33203,2.17579 0.0469,0.63281 0.17969,1.38671 0.40625,1.98046 0.24219,0.60938 0.78906,1.30469 1.48828,1.54688 0.64063,0.13281 1.53516,0.008 2.17578,-0.36328 0.79688,-0.51563 1.58985,-1.5586 1.6836,-2.58985 0.0234,-0.46875 -0.0781,-1.05078 -0.28125,-1.47656 -0.23047,-0.42578 -0.75391,-0.89062 -1.30078,-1.03125 -0.60547,-0.11328 -1.51563,-0.0352 -2.27735,0.35156 -0.875,0.46875 -1.98437,1.28516 -2.5,2.23438 -0.16406,0.35937 -0.32031,0.8125 -0.38672,1.18359 -0.0352,0.19141 -0.0469,0.44141 -0.0273,0.63282 0.0352,0.21093 0.21094,0.57421 0.4375,0.76953 0.53906,0.23437 0.99219,0.1289 1.22656,0.1289 0.375,-0.004 0.71875,-0.0898 0.99219,-0.12109 0.64062,-0.043 1.24219,-0.0742 1.5,-0.082 0.26562,0.0156 0.49609,-0.1875 0.51172,-0.45703 0.0195,-0.26563 -0.1836,-0.4961 -0.45313,-0.51172 z m 0,0"
       id="path8"
       inkscape:connector-curvature="0" />
    <path
       style="fill:#1747b3;fill-opacity:1;fill-rule:nonzero;stroke:none"
       d="m 148.24609,210.40234 c -0.46875,0.45313 -1.41015,0.73438 -1.86718,0.58594 -0.32813,-0.0547 -0.64063,0.16406 -0.69532,0.49609 -0.0547,0.32813 0.16407,0.63672 0.49219,0.69532 0.32813,0.0547 0.64063,-0.16797 0.69531,-0.4961 0.0586,-0.32812 -0.16406,-0.64062 -0.49218,-0.69531 -0.0508,-0.0195 0.0352,0.004 0.0742,0.004 -0.26562,-0.23828 -0.67187,-0.22266 -0.91406,0.0391 -0.24219,0.26562 -0.22656,0.67578 0.0391,0.91797 0.26172,0.23828 0.67188,0.22265 0.91407,-0.0391 0.24218,-0.26563 0.22265,-0.67579 -0.0391,-0.91797 0.0273,0.0234 0.10157,0.14062 0.11719,0.10547 -0.0586,-0.37891 -0.41015,-0.63672 -0.78906,-0.57813 -0.375,0.0586 -0.63281,0.41016 -0.57422,0.78906 0.0547,0.375 0.41016,0.63672 0.78516,0.57813 0.3789,-0.0586 0.63672,-0.41406 0.57812,-0.78906 -0.043,-0.38282 -0.0664,-0.77735 0.26172,-1.38282 0.25391,-0.52734 0.80078,-1.07031 1.41797,-1.66015 0.88672,-0.85547 1.98828,-1.41797 2.72656,-1.63672 0.19531,-0.0625 0.28125,-0.0898 0.33594,-0.0859 0.0234,-0.0117 -0.25391,-0.10156 -0.38672,-0.19141 -0.0547,-0.10156 -0.11719,-0.28125 -0.12891,-0.22656 0,0.0742 -0.0234,0.14844 -0.0859,0.32031 -0.125,0.35157 -0.34375,0.75391 -0.65625,1.1836 -0.36328,0.52734 -0.96875,0.99609 -1.60547,1.47656 -0.8086,0.60547 -1.59766,0.78516 -2.19141,0.80469 -0.39453,0.0273 -0.33203,0.0742 -0.11719,0.11719 0.0508,0.0977 0.12891,0.23437 0.125,0.0937 -0.0195,-0.15235 0,-0.29297 0.0586,-0.5 0.13672,-0.55469 -0.20313,-1.11719 -0.75781,-1.25782 -0.5586,-0.13672 -1.1211,0.20313 -1.25782,0.75782 -0.13672,0.55859 0.20313,1.12109 0.75782,1.25781 0.55468,0.13672 1.11718,-0.20313 1.25781,-0.75781 0,-0.36329 0.26562,-0.6836 0.83203,-0.98438 0.45312,-0.21094 0.64844,-0.75 0.43359,-1.19922 -0.21093,-0.45312 -0.75,-0.64844 -1.19922,-0.43359 -0.45312,0.21094 -0.64843,0.75 -0.43359,1.19922 0.21094,0.45312 0.75,0.64843 1.19922,0.43359 0.45703,-0.28125 0.89453,-0.41797 1.42578,-0.35937 0.40234,0.0742 0.78906,-0.19141 0.86328,-0.59375 0.0781,-0.40235 -0.1875,-0.78907 -0.58984,-0.86719 -0.40235,-0.0742 -0.78906,0.1914 -0.86719,0.59375 -0.0742,0.40234 0.19141,0.78906 0.59375,0.86719 0.44531,-0.0586 0.84766,-0.0156 1.30469,0.2539 0.13281,0.13281 0.35156,0.13281 0.48047,-0.004 0.13281,-0.13282 0.13281,-0.34766 0,-0.48047 -0.38672,-0.5586 -0.95703,-0.98438 -1.51172,-1.23047 -0.80469,-0.19141 -1.75,-0.082 -2.46485,0.1875 -0.89843,0.38672 -1.76953,1.23047 -2.08203,2.11719 -0.082,0.34765 -0.1289,0.8164 -0.0977,1.1914 0.043,0.38672 0.28515,0.98047 0.66015,1.33203 0.57813,0.32422 1.19922,0.30469 1.57032,0.26563 0.80468,-0.10938 2.0664,-0.51563 3.1289,-1.34766 0.64453,-0.50781 1.4336,-1.16797 1.94922,-1.91406 0.35938,-0.52734 0.67188,-1.13672 0.83984,-1.63672 0.0859,-0.25781 0.15235,-0.57031 0.16016,-0.82031 0.004,-0.26563 -0.11719,-0.70703 -0.32812,-0.97656 -0.26954,-0.24219 -0.75782,-0.38282 -1.01954,-0.3711 -0.23046,0.0234 -0.5,0.0977 -0.73437,0.17578 -0.88672,0.32813 -2.25,1.09766 -3.28125,2.13672 -0.61328,0.6211 -1.29688,1.35547 -1.66797,2.125 -0.39844,0.90625 -0.37109,1.76953 -0.28125,2.23828 0.0508,0.20703 0.21094,0.4961 0.37109,0.64063 0.17188,0.12109 0.42969,0.21484 0.60157,0.23047 0.82812,0.0703 2.11718,-0.41407 2.75781,-1.10157 0.1875,-0.1914 0.18359,-0.5 -0.008,-0.68359 -0.19141,-0.1875 -0.4961,-0.18359 -0.6836,0.008 z m 0,0"
       id="path10"
       inkscape:connector-curvature="0" />
    <path
       style="fill:#1747b3;fill-opacity:1;fill-rule:nonzero;stroke:none"
       d="m 142.70312,131.51172 c -0.1914,-0.0352 -0.40234,0.008 -0.5,0.0625 -0.23437,0.0977 -0.33984,0.36719 -0.23828,0.60156 0.0977,0.23047 0.36719,0.33594 0.60157,0.23828 0.23046,-0.10156 0.33984,-0.37109 0.23828,-0.60547 -0.10157,-0.23047 -0.3711,-0.33593 -0.60157,-0.23437 -0.0937,0.0469 -0.19921,0.12109 -0.28906,0.19531 -0.19531,0.13281 -0.24609,0.40234 -0.11328,0.59766 0.13281,0.19531 0.40234,0.24609 0.59766,0.11328 0.19922,-0.13672 0.25,-0.40235 0.11328,-0.59766 -0.13281,-0.19922 -0.40235,-0.25 -0.59766,-0.11328 -0.17578,0.14063 -0.375,0.33203 -0.52734,0.50391 -0.14844,0.14453 -0.15235,0.38281 -0.008,0.53125 0.14453,0.15234 0.38281,0.15625 0.53125,0.0117 0.15234,-0.14454 0.15625,-0.38282 0.0117,-0.53516 -0.14453,-0.14844 -0.38281,-0.15234 -0.53515,-0.008 -0.1875,0.13672 -0.35547,0.35547 -0.4336,0.53125 -0.0195,0.0586 -0.0273,0.17968 -0.0195,0.26562 0.0234,0.0937 0.13672,0.28125 0.23047,0.36328 0.10938,0.0664 0.30469,0.11328 0.39453,0.11719 0.0781,-0.004 0.19922,-0.0312 0.26172,-0.0469 0.73828,-0.36719 1.72266,-1.55079 2.71485,-2.6875 1.02343,-1.16016 1.96093,-2.5586 2.59765,-3.56641 0.3711,-0.58984 0.57422,-1.11719 0.66406,-1.36719 0.0352,-0.10937 0.0664,-0.28515 0.0547,-0.45312 -0.0273,-0.12891 -0.28515,-0.47266 -0.54297,-0.58594 -0.23828,-0.0117 -0.50781,0.0859 -0.58984,0.13672 -0.16016,0.13672 -0.33203,0.37109 -0.48828,0.64844 -0.37891,0.70703 -0.86719,1.8789 -1.26172,3.10937 -0.36719,1.14453 -0.61719,2.38281 -0.73828,3.5 -0.10547,1.12109 -0.0898,2.21094 0.043,3.03125 0.0625,0.40234 0.44531,0.67969 0.84765,0.61328 0.40235,-0.0625 0.67969,-0.4414 0.61328,-0.84765 -0.0625,-0.40235 -0.4414,-0.67969 -0.84375,-0.61329 -0.40625,0.0625 -0.67968,0.44141 -0.61718,0.84766 0.0703,0.41406 0.1875,0.83203 0.33203,1.14063 0.17578,0.36718 0.61328,0.52343 0.98047,0.34765 0.36718,-0.17578 0.51953,-0.61328 0.34765,-0.98047 -0.17578,-0.36718 -0.61718,-0.52343 -0.98047,-0.34765 -0.36718,0.17578 -0.52343,0.61328 -0.34765,0.98047 0.17187,0.20703 0.42187,0.42578 0.65234,0.52343 0.23828,0.17188 0.57813,0.1211 0.75,-0.12109 0.17578,-0.23828 0.1211,-0.57813 -0.11719,-0.75 -0.24218,-0.17578 -0.57812,-0.12109 -0.7539,0.11719 -0.17188,0.24218 -0.1211,0.57812 0.12109,0.7539 0.23047,0.0742 0.5586,0.0898 0.77344,-0.0117 0.1875,-0.0352 0.30859,-0.21093 0.27344,-0.39843 -0.0352,-0.1836 -0.21094,-0.30469 -0.39844,-0.27344 -0.0742,-0.043 -0.0117,-0.0937 -0.0156,-0.1875 -0.004,-0.0742 0.0391,-0.12891 0.043,-0.28516 -0.0859,-0.17578 -0.14453,-0.39843 -0.19922,-0.74218 -0.10546,-0.69532 -0.10937,-1.60157 0.004,-2.64844 0.0937,-1.04688 0.29297,-2.14844 0.61719,-3.21094 0.35937,-1.1875 0.78515,-2.25781 1.11328,-2.89453 0.10937,-0.22266 0.13672,-0.26953 0.0781,-0.21094 -0.0469,0.0273 -0.29687,0.11328 -0.51562,0.10547 -0.24219,-0.10937 -0.48828,-0.4375 -0.51563,-0.53906 0,-0.11328 0.0156,-0.19141 0.004,-0.15234 -0.0586,0.22265 -0.17969,0.59375 -0.47656,1.09375 -0.60156,1 -1.46485,2.33593 -2.41797,3.44531 -0.99609,1.16015 -1.875,2.24218 -2.29297,2.40625 0.008,0.008 0.0742,-0.004 0.125,0 0.0391,0.008 0.19922,0.0469 0.28516,0.0977 0.0664,0.0664 0.16797,0.23047 0.17968,0.29297 0,0.0547 -0.008,0.13672 -0.0156,0.15235 -0.0469,0 -0.0625,-0.0469 0.004,-0.15625 0.15625,-0.125 0.33203,-0.25 0.49218,-0.33594 0.0742,-0.043 0.1211,-0.0625 0.16407,-0.0664 0.0312,-0.008 -0.0703,0.0156 -0.19141,0.008 0.25,0.0898 0.52734,-0.0391 0.62109,-0.29296 0.0898,-0.25 -0.0391,-0.52735 -0.29297,-0.61719 z m 0,0"
       id="path12"
       inkscape:connector-curvature="0" />
    <path
       style="fill:#1747b3;fill-opacity:1;fill-rule:nonzero;stroke:none"
       d="m 133.23828,164.58594 c -1.02734,0.0977 -2.06641,0.28515 -2.70703,0.13672 -0.27734,-0.0547 -0.54297,0.125 -0.59766,0.40234 -0.0547,0.27344 0.1211,0.54297 0.39844,0.59766 0.27734,0.0547 0.54297,-0.125 0.59766,-0.39844 0.0586,-0.27735 -0.1211,-0.54688 -0.39844,-0.60156 -0.29688,-0.0703 -0.39844,-0.16016 -0.42188,-0.32032 -0.13671,-0.28906 -0.47656,-0.41015 -0.76562,-0.27734 -0.28516,0.13281 -0.41016,0.47656 -0.27734,0.76172 0.13671,0.28906 0.47656,0.41406 0.76562,0.27734 0.28516,-0.13281 0.41016,-0.47656 0.27734,-0.76172 -0.082,-0.1914 -0.10156,-0.24609 0.008,-0.39453 0.13672,-0.30859 -0.004,-0.67578 -0.31641,-0.8125 -0.3125,-0.13672 -0.67578,0.004 -0.8125,0.31641 -0.14062,0.30859 0.004,0.67578 0.3125,0.8125 0.3125,0.13672 0.67578,-0.004 0.81641,-0.31641 0.0469,-0.16406 0.33593,-0.32422 0.87109,-0.53125 0.54297,-0.21094 1.19531,-0.36719 1.84375,-0.47656 0.69141,-0.12891 1.32031,-0.17188 1.84375,-0.082 0.40234,0.0508 0.5625,0.18359 0.71094,0.5039 0.1875,0.30469 0.20312,0.71875 0.0586,1.40235 -0.23437,1.21094 -1.30469,2.76953 -2.35156,4.3789 -0.62891,0.96094 -1.29297,1.89063 -1.85547,2.72266 -0.86719,1.25 -1.42969,2.28125 -1.56641,2.98438 -0.0273,0.16406 -0.0508,0.4375 0.008,0.70312 0.10156,0.27344 0.47265,0.63281 0.74218,0.73828 0.71485,0.21875 1.82813,0.19141 3.03516,0.0469 0.44922,-0.0586 0.76953,-0.46875 0.71094,-0.92188 -0.0586,-0.44922 -0.46875,-0.76953 -0.92188,-0.71094 -0.44922,0.0586 -0.76953,0.46875 -0.71093,0.92188 0.0586,0.44922 0.46875,0.76953 0.92187,0.71094 0.89844,-0.11328 1.91797,-0.28907 2.94141,-0.49219 0.45312,-0.0898 0.74609,-0.53125 0.65234,-0.98438 -0.0898,-0.44921 -0.53125,-0.74218 -0.98047,-0.65234 -0.45312,0.0937 -0.74609,0.53125 -0.65234,0.98438 0.0898,0.44921 0.53125,0.74218 0.98047,0.65234 1.34765,-0.33594 2.73047,-0.71484 3.91797,-1.04688 0.35156,-0.082 0.57031,-0.43359 0.49218,-0.78515 -0.082,-0.35156 -0.43359,-0.57031 -0.78515,-0.49219 -0.35157,0.082 -0.57032,0.43359 -0.48828,0.78516 0.0781,0.35156 0.42968,0.57031 0.78125,0.49218 0.57812,-0.23828 1.10546,-0.46484 1.55859,-0.67187 0.18359,-0.0391 0.30078,-0.22266 0.26172,-0.40625 -0.0391,-0.18359 -0.22266,-0.30078 -0.40625,-0.26172 -0.50391,0.004 -1.08203,0.0273 -1.70703,0.0625 -1.21485,0.21875 -2.60157,0.47656 -3.95313,0.6875 -1.0039,0.20703 -1.96875,0.38281 -2.82422,0.49609 -1.13672,0.15235 -1.96093,0.19532 -2.33203,0.0625 -0.0156,0.0156 0.21485,0.23829 0.26563,0.32422 -0.004,0.0742 0,0.10547 0.0117,-0.0391 0.0117,-0.375 0.41406,-1.18359 1.21093,-2.40625 0.54688,-0.81641 1.21485,-1.76562 1.84766,-2.75 1.03516,-1.60937 2.19141,-3.35156 2.51172,-4.86328 0.16797,-0.83203 0.12109,-1.69531 -0.17578,-2.30469 -0.32032,-0.5625 -0.98047,-1.05859 -1.6836,-1.19531 -0.6914,-0.11719 -1.54297,-0.0703 -2.3164,0.0664 -0.69141,0.13671 -1.46485,0.34765 -2.08985,0.61718 -0.6289,0.26953 -1.24609,0.70313 -1.50781,1.23438 -0.17187,0.47656 -0.0859,1.04297 0.0781,1.375 0.24218,0.41015 0.76171,0.74609 1.26562,0.83594 0.86719,0.15234 2.01953,-0.0625 3.00781,-0.17188 0.26953,-0.0312 0.46094,-0.26953 0.4336,-0.53516 -0.0273,-0.26562 -0.26563,-0.46093 -0.53516,-0.42968 z m 0,0"
       id="path14"
       inkscape:connector-curvature="0" />
    <path
       style="fill:#1747b3;fill-opacity:1;fill-rule:nonzero;stroke:none"
       d="m 127.73047,206.19531 c -0.41797,-0.14453 -0.76172,-0.26562 -0.99219,-0.41797 -0.24219,-0.14453 -0.55469,-0.0664 -0.70312,0.17578 -0.14453,0.24219 -0.0664,0.5586 0.17578,0.70313 0.24219,0.14453 0.55469,0.0703 0.70312,-0.17578 0.14453,-0.24219 0.0664,-0.55469 -0.17578,-0.70313 -0.21875,-0.13672 -0.23437,-0.125 -0.19531,-0.27343 0.004,-0.30079 -0.23828,-0.54297 -0.53516,-0.54688 -0.30078,0 -0.54297,0.23828 -0.54687,0.53906 0,0.29688 0.23828,0.54297 0.53906,0.54297 0.29688,0.004 0.54297,-0.23828 0.54297,-0.53515 0.0117,-0.28907 0.23828,-0.67188 0.79297,-1.1836 0.24609,-0.24219 0.24609,-0.64062 0,-0.88672 -0.2461,-0.24609 -0.64453,-0.24609 -0.89063,0 -0.24218,0.2461 -0.24218,0.64453 0.004,0.89063 0.24609,0.24609 0.64453,0.24219 0.88672,-0.004 0.63672,-0.63281 1.73047,-1.16406 2.76562,-1.55859 0.64063,-0.2461 1.21094,-0.25391 1.72266,-0.15235 0.45703,0.082 0.59765,0.15235 0.72265,0.47266 0.23829,0.35938 0.26172,0.94922 0.14844,1.77344 -0.16797,1.33594 -1.17187,2.95312 -2.19922,4.45703 -0.78125,1.11719 -1.64453,2.03516 -2.38672,2.73828 -0.52343,0.50391 -1.01953,0.81641 -1.34374,1.07031 -0.11719,0.0898 -0.21875,0.14844 -0.33594,0.2461 -0.043,0.0391 -0.17969,0.25781 -0.23047,0.53515 0.0977,0.36328 0.48828,0.67969 0.60156,0.71094 0.13672,0.0156 0.2461,0.0156 0.31641,0.0117 0.67578,-0.0664 1.88281,-0.30078 3.22656,-0.42188 0.98437,-0.0937 2.01953,-0.125 2.99609,-0.0469 1.01953,0.0859 1.83203,0.36719 2.50391,0.8125 0.66797,0.42187 1.03516,0.86328 1.18359,1.42578 0.17969,0.59766 -0.0195,1.23828 -0.65234,2.11719 -0.80469,1.20703 -2.60156,2.35156 -4.49609,3.40234 -2.1211,1.26172 -4.51172,1.92578 -6.0625,2.28516 -0.48828,0.10156 -0.82813,0.15625 -1.05078,0.16406 -0.125,0.0547 -0.0859,0.10938 -0.0469,0.16406 -0.38672,-0.17187 -0.83984,0.004 -1.01172,0.39063 -0.17187,0.38672 0.004,0.83984 0.39063,1.01172 0.39062,0.17187 0.84375,-0.004 1.01172,-0.39063 0.17187,-0.39062 -0.004,-0.83984 -0.39063,-1.01172 0.0234,0.0391 0.14844,0.17578 0.1875,0.25782 -0.20312,-0.32813 -0.63281,-0.42969 -0.96094,-0.23047 -0.32422,0.20312 -0.42578,0.63281 -0.22656,0.96093 0.20313,0.32422 0.63281,0.42579 0.95703,0.22657 0.32813,-0.20313 0.42969,-0.63282 0.23047,-0.95703 0.0117,0.0859 0.0234,0.25781 0.004,0.29296 0.0273,-0.34375 -0.22657,-0.64453 -0.57032,-0.67578 -0.34375,-0.0273 -0.64843,0.22657 -0.67578,0.57032 -0.0273,0.34765 0.22657,0.64843 0.57032,0.67578 0.34375,0.0312 0.64843,-0.22657 0.67578,-0.57032 -0.125,-0.0273 -0.0547,-0.28906 0.30078,-0.8164 0.1289,-0.13672 0.11719,-0.35156 -0.0195,-0.48047 -0.14063,-0.12891 -0.35547,-0.11719 -0.48438,0.0234 -0.52344,0.43359 -0.88672,0.80859 -1.04297,1.16797 -0.0273,0.13281 0,0.38671 0.0547,0.54296 0.0781,0.14844 0.26953,0.33204 0.38672,0.41407 0.21094,0.13281 0.52344,0.21093 0.75781,0.24609 0.35156,-0.0234 0.8125,-0.10937 1.32813,-0.22656 1.62109,-0.32031 4.28906,-1.01563 6.66015,-2.34375 1.91797,-1.14453 3.96094,-2.57422 4.97656,-4.14063 0.69922,-1.14843 0.97657,-2.48437 0.65625,-3.51562 -0.28515,-0.85547 -0.99218,-1.6875 -1.83984,-2.23438 -0.84766,-0.52343 -1.99609,-0.90625 -3.18359,-1.0039 -1.0586,-0.0859 -2.21485,-0.0547 -3.25,0.0352 -1.41016,0.13282 -2.64844,0.3711 -3.23438,0.42578 -0.0508,0.008 -0.0156,0.0117 0.0664,0.0195 0.10937,0.0273 0.49219,0.33984 0.58984,0.69531 -0.0508,0.26562 -0.17968,0.47265 -0.21093,0.5039 -0.043,0.0234 0.0547,-0.0469 0.21484,-0.17578 0.24609,-0.20312 0.82031,-0.57812 1.43359,-1.16406 0.76563,-0.74219 1.70703,-1.76953 2.53125,-2.96875 1.07422,-1.51953 2.22266,-3.36719 2.5,-5.01562 0.15625,-0.94141 0.125,-1.96875 -0.23047,-2.70313 -0.39062,-0.62891 -1.13281,-1.04687 -1.82031,-1.14844 -0.67578,-0.0937 -1.60156,-0.0234 -2.43359,0.3086 -1.08594,0.4414 -2.3711,1.10937 -3.16797,1.91015 -0.625,0.67578 -0.99219,1.46094 -0.98828,2.0625 0.0352,0.49219 0.38672,0.94532 0.75,1.16016 0.35156,0.19531 0.79687,0.33594 1.22265,0.46094 0.25391,0.082 0.52735,-0.0586 0.60938,-0.3125 0.082,-0.25782 -0.0586,-0.52735 -0.3125,-0.60938 z m 0,0"
       id="path16"
       inkscape:connector-curvature="0" />
    <path
       style="fill:#1747b3;fill-opacity:1;fill-rule:nonzero;stroke:none"
       d="m 334.11719,138.1875 c -0.0899,-0.0195 -0.34766,-0.27734 -0.39063,-0.44141 0,0.27735 0.23047,0.50782 0.50781,0.50782 0.28125,0 0.50782,-0.23047 0.50782,-0.50782 0,-0.28125 -0.22657,-0.50781 -0.50782,-0.50781 -0.27734,0 -0.50781,0.22656 -0.50781,0.50781 0.0117,-0.125 0.0586,-0.24218 0.0547,-0.25 -0.17969,0.23047 -0.13281,0.5625 0.0977,0.74219 0.23437,0.17578 0.5664,0.13281 0.74218,-0.10156 0.17969,-0.23047 0.13282,-0.5625 -0.0976,-0.74219 -0.23438,-0.17578 -0.56641,-0.13281 -0.74219,0.10156 -0.0195,0.004 -0.0664,0.0273 -0.17578,0.0898 -0.25,0.1914 -0.29688,0.55078 -0.10547,0.80468 0.19531,0.25 0.55469,0.29688 0.80859,0.10547 0.25,-0.1914 0.29688,-0.55468 0.10547,-0.80468 -0.19531,-0.25391 -0.55469,-0.30079 -0.80859,-0.10547 -0.21485,0.1289 -0.52344,0.28515 -0.85547,0.41015 -0.33594,0.13282 -0.59375,0.17188 -0.82031,0.1211 -0.0391,0.004 0.0625,0.0352 0.0312,-0.0352 -0.0469,-0.0586 -0.0352,-0.0703 -0.0352,-0.19922 -0.0547,-0.2539 -0.0312,-0.45703 0.16406,-0.7539 0.16797,-0.375 0.76172,-0.63672 1.41797,-0.83594 0.51563,-0.15235 0.83985,-0.19922 1.04688,-0.082 0.0351,-0.0234 -0.0195,-0.0586 0.0351,0.13672 0.0703,0.19921 0.0859,0.40625 0.0586,0.6875 0.004,0.71875 -0.89844,1.62109 -2.10157,2.2539 -0.5664,0.31641 -1.16406,0.44141 -1.75781,0.51563 -0.46484,0.0586 -0.70312,0.0937 -0.8164,0.0352 0.0195,0.0312 0.17187,0.14453 0.15625,0.082 -0.0352,-0.0547 -0.0274,-0.0547 -0.0156,-0.16015 -0.0234,0.008 -0.043,0.082 0.0742,-0.0469 0.11719,-0.15234 0.26172,-0.27343 0.51172,-0.4414 0.5039,-0.34766 1.10156,-0.61328 1.65234,-0.75782 0.44922,-0.1289 0.6875,-0.16015 0.8711,-0.12109 0.0781,0.008 -0.004,-0.0273 -0.0156,-0.0234 0.46094,0.33203 1.10547,0.23438 1.4375,-0.22656 0.33594,-0.46094 0.23438,-1.10547 -0.22656,-1.44141 -0.45703,-0.33203 -1.10156,-0.23046 -1.4375,0.22657 -0.33594,0.46093 -0.23438,1.10547 0.22656,1.4414 -0.008,-0.0234 -0.125,-0.1914 -0.14453,-0.21093 0.16406,0.54296 0.73828,0.84765 1.28125,0.68359 0.54297,-0.16797 0.84766,-0.74219 0.67969,-1.28516 -0.16407,-0.54297 -0.73828,-0.84765 -1.28125,-0.67968 -0.54297,0.16796 -0.84766,0.74218 -0.67969,1.28125 0.17969,-0.0234 0.16797,0.3125 -0.0117,0.88281 -0.17969,0.33594 -0.0508,0.75 0.28125,0.92578 0.33203,0.17969 0.74609,0.0547 0.92578,-0.28125 0.17969,-0.33203 0.0508,-0.74609 -0.28125,-0.92578 -0.33203,-0.17578 -0.75,-0.0508 -0.92578,0.28125 -0.18359,0.59375 -0.47656,1.17969 -0.71875,1.58594 -0.13281,0.13281 -0.13281,0.34765 0,0.48046 0.13281,0.13282 0.35156,0.13282 0.48438,0 0.45703,-0.30078 1.01171,-0.86328 1.4414,-1.42187 0.4375,-0.57813 0.80469,-1.39063 0.76563,-2.12891 -0.10157,-0.28906 -0.375,-0.67187 -0.60547,-0.85547 -0.23438,-0.15625 -0.59766,-0.30078 -0.86328,-0.34765 -0.4961,-0.0703 -1.16016,-0.008 -1.75782,0.15625 -0.72265,0.21094 -1.60156,0.62109 -2.26562,1.08203 -0.33203,0.23828 -0.6875,0.55078 -0.92969,0.85156 -0.24219,0.31641 -0.47265,0.84766 -0.5,1.30078 0.008,0.33203 0.11328,0.79297 0.28125,1.11719 0.1875,0.31641 0.65235,0.72656 1.09375,0.87109 0.51953,0.10547 1.10156,0.043 1.57813,-0.0312 0.69531,-0.10937 1.61328,-0.35156 2.39843,-0.79296 1.42188,-0.83594 2.76172,-2.33985 2.90625,-3.76172 0.0234,-0.42188 -0.0351,-0.94922 -0.17187,-1.35547 -0.15625,-0.41406 -0.5625,-0.92969 -1.04297,-1.14453 -0.64062,-0.20313 -1.46094,-0.11719 -2.10937,0.082 -0.78907,0.23828 -1.82813,0.76562 -2.35547,1.54687 -0.32813,0.57813 -0.45703,1.33203 -0.37891,1.8711 0.0703,0.32031 0.25781,0.71484 0.47656,0.96093 0.23438,0.23438 0.6836,0.46485 1.0586,0.4961 0.46875,-0.008 1.04297,-0.17188 1.48828,-0.41016 0.36719,-0.21094 0.74609,-0.48047 0.98047,-0.69922 0.125,-0.11328 0.24609,-0.24609 0.3164,-0.35937 0.043,-0.0664 0.10938,-0.23438 0.1211,-0.39063 -0.043,-0.20312 -0.32422,-0.48437 -0.46485,-0.51562 -0.26172,-0.043 -0.51172,0.13672 -0.55859,0.39844 -0.043,0.26562 0.13672,0.51562 0.39844,0.55859 z m 0,0"
       id="path18"
       inkscape:connector-curvature="0" />
    <path
       style="fill:#1747b3;fill-opacity:1;fill-rule:nonzero;stroke:none"
       d="m 329.05078,171.57812 c -0.53516,0.14454 -1.16016,0.33204 -1.80078,0.45313 -0.26563,0.0469 -0.4375,0.30078 -0.39063,0.5625 0.0508,0.26562 0.30079,0.4375 0.56641,0.39062 0.26172,-0.0508 0.4375,-0.30468 0.38672,-0.5664 -0.0469,-0.26172 -0.30078,-0.4375 -0.5625,-0.38672 -0.44922,0.0273 -0.80859,0.0586 -1,-0.043 -0.35156,-0.0625 -0.6875,0.17188 -0.74609,0.52344 -0.0625,0.35156 0.17187,0.68359 0.52343,0.74609 0.35157,0.0625 0.6875,-0.17187 0.7461,-0.52344 0.0625,-0.35156 -0.17188,-0.6875 -0.52344,-0.74609 -0.0508,-0.0117 0.0508,0.0391 0.0547,-0.0391 -0.17188,-0.34766 -0.59766,-0.49219 -0.94532,-0.32031 -0.35156,0.17187 -0.49218,0.59765 -0.32031,0.94531 0.17188,0.35156 0.59375,0.49219 0.94531,0.32031 0.34766,-0.17187 0.49219,-0.59375 0.32032,-0.94531 -0.0312,-0.0742 -0.0156,-0.10547 0.0508,-0.30078 0.082,-0.44141 0.44922,-0.98438 0.96484,-1.51563 0.41406,-0.48047 1.09375,-0.73437 1.71875,-0.92187 0.24219,-0.0742 0.36328,-0.0898 0.49219,-0.0703 0.11328,0 0.0312,-0.0352 0.0312,-0.008 -0.0117,-0.0469 -0.0625,-0.14062 -0.0586,-0.0469 0.0156,0.10547 0.004,0.21093 -0.0274,0.39062 -0.0742,0.51953 -0.65625,1.23438 -1.29297,1.875 -0.41406,0.4336 -0.83203,0.64453 -1.16797,0.73047 -0.082,0.0117 -0.0195,-0.008 -0.0234,-0.0312 0.0117,0 0.20312,0.0781 0.26953,0.10156 0.082,0.14453 0.16015,0.36719 0.16797,0.32032 -0.004,-0.0703 0.0117,-0.14063 0.0625,-0.3086 0.10156,-0.35156 0.27734,-0.73047 0.47656,-1.07422 0.18359,-0.36718 0.44141,-0.55468 0.59766,-0.62109 -0.0937,0.0312 -0.40625,0.0781 -0.58594,0.0586 0.55469,0.11328 1.09765,-0.23828 1.21484,-0.79297 0.11719,-0.55468 -0.23828,-1.09765 -0.79297,-1.21484 -0.55078,-0.11328 -1.09375,0.23828 -1.21093,0.79297 -0.11719,0.55469 0.23828,1.09766 0.78906,1.21484 -0.19922,-0.0781 -0.48828,-0.29687 -0.5625,-0.39453 0.3125,0.46485 0.9414,0.58594 1.40234,0.27344 0.46094,-0.3125 0.58203,-0.94141 0.26953,-1.40234 -0.3125,-0.46094 -0.9375,-0.58204 -1.40234,-0.26954 -0.46094,0.3125 -0.58203,0.9375 -0.26953,1.39844 -0.0664,-0.16015 -0.0977,-0.32031 -0.0899,-0.27734 0.0195,0.53906 0.46875,0.96484 1.01172,0.94922 0.54297,-0.0156 0.96485,-0.46875 0.94922,-1.01172 -0.0156,-0.53906 -0.46875,-0.96485 -1.00781,-0.94922 -0.54297,0.0156 -0.96875,0.46875 -0.95313,1.01172 0.23829,0.33203 0.25,1.23047 0.0391,2.28906 -0.0742,0.17578 0.008,0.375 0.18359,0.44531 0.17578,0.0742 0.375,-0.0117 0.44531,-0.18359 0.63672,-0.97656 1.08594,-2 1.29297,-2.61328 0,-0.19141 -0.0664,-0.52344 -0.19531,-0.78516 -0.10938,-0.14844 -0.4375,-0.39844 -0.67188,-0.48437 -0.24609,-0.0352 -0.61328,0.0195 -0.76953,0.082 -0.41797,0.21875 -1.08593,0.78125 -1.49218,1.46875 -0.24219,0.43359 -0.5,1.01953 -0.64454,1.52344 -0.0703,0.26171 -0.1289,0.58984 -0.13281,0.85546 0.004,0.28907 0.14844,0.78516 0.39453,1.09766 0.22657,0.19531 0.63672,0.38672 0.91407,0.42578 0.25781,0.0195 0.62109,-0.0312 0.875,-0.11719 0.54296,-0.1875 1.32421,-0.64453 1.91796,-1.27343 0.67969,-0.7461 1.46094,-1.83203 1.64844,-2.82422 0.043,-0.26172 0.0664,-0.59375 0.0391,-0.86328 -0.0391,-0.27735 -0.20312,-0.69532 -0.43359,-0.95313 -0.26953,-0.24219 -0.73047,-0.42969 -1.07422,-0.46094 -0.32812,-0.0195 -0.75,0.0391 -1.10547,0.14844 -0.70312,0.21875 -1.74218,0.66016 -2.4414,1.39453 -0.58594,0.66797 -1.11719,1.5625 -1.26563,2.33594 -0.0508,0.40625 0.0234,0.89844 0.1875,1.21094 0.19141,0.3125 0.6211,0.62109 0.98828,0.68359 0.47266,0.0156 0.98438,-0.14453 1.39844,-0.27344 0.69141,-0.1289 1.35938,-0.32812 1.88281,-0.47265 0.25782,-0.0703 0.41016,-0.33985 0.33985,-0.59766 -0.0742,-0.25781 -0.33985,-0.41015 -0.59766,-0.33594 z m 0,0"
       id="path20"
       inkscape:connector-curvature="0" />
    <path
       style="fill:#1747b3;fill-opacity:1;fill-rule:nonzero;stroke:none"
       d="m 323.46484,205.17187 c 0.19532,0.21094 0.23047,0.35938 0.20703,0.57813 -0.0117,0.27734 0.20313,0.51172 0.48047,0.52344 0.27735,0.0117 0.51172,-0.20313 0.52344,-0.48047 0.0117,-0.27735 -0.20312,-0.51172 -0.48047,-0.52344 -0.27734,-0.0117 -0.51172,0.20313 -0.52344,0.48047 -0.004,0.21094 -0.0664,0.32812 -0.21484,0.45703 -0.20312,0.19922 -0.20312,0.53125 0,0.73438 0.19922,0.20312 0.53125,0.20312 0.73438,0 0.20312,-0.19922 0.20312,-0.53125 0,-0.73438 -0.19922,-0.20312 -0.53125,-0.20312 -0.73438,0 -0.0742,0.0625 -0.25781,0.0312 -0.5,0 -0.35156,0.0117 -0.62891,0.30859 -0.61719,0.66016 0.0117,0.35547 0.3086,0.63281 0.66407,0.62109 0.35156,-0.0117 0.6289,-0.30859 0.61718,-0.66406 -0.0117,-0.35547 -0.30859,-0.63281 -0.66406,-0.61719 -0.008,0.0156 0.0742,0.0234 0.0625,-0.0586 -0.004,0.004 0.0273,0.0625 0.0586,-0.0234 0.0195,-0.0898 0.0391,-0.10156 0.10938,-0.16016 -0.0977,0.043 -0.14453,0.082 0.0469,0.0586 0.19922,-0.0273 0.44141,-0.0234 0.69922,-0.0234 0.25,0.004 0.41797,0.0312 0.57813,0.0859 0.15234,0.0469 0.125,0.0273 0.0898,0.0195 -0.0547,-0.10156 -0.10547,-0.32422 -0.11719,-0.36328 0.004,-0.0312 0.0195,-0.0937 -0.004,-0.0703 -0.043,0.0625 -0.0859,0.0937 -0.17578,0.14063 0.10156,0.0156 -0.13672,-0.0742 -0.57422,-0.12109 -0.50781,-0.0508 -0.95703,-0.17969 -0.85547,-0.17579 -0.48047,-0.26171 -1.07813,-0.0859 -1.33984,0.39454 -0.26563,0.47656 -0.0899,1.07812 0.39062,1.33984 0.47656,0.26172 1.07813,0.0859 1.33984,-0.39063 0.26172,-0.48046 0.0859,-1.07812 -0.39062,-1.34375 -0.22656,1.90625 0.27344,1.73829 0.14844,1.77344 -0.008,-0.0742 -0.10938,-0.24219 -0.10157,-0.3125 0.17969,0.40235 0.64844,0.57813 1.05079,0.40235 0.39843,-0.17969 0.57812,-0.65235 0.39843,-1.05079 -0.17968,-0.40234 -0.64843,-0.58203 -1.05078,-0.40234 -0.39844,0.17969 -0.57812,0.65234 -0.39844,1.05078 0.0352,-0.082 0.10547,-0.35547 0.19141,-0.44531 -0.21094,0.28516 -0.15625,0.6875 0.12891,0.90234 0.28515,0.21094 0.6875,0.15625 0.90234,-0.1289 0.21094,-0.28516 0.15234,-0.6875 -0.12891,-0.90235 -0.28515,-0.21093 -0.6875,-0.15625 -0.90234,0.12891 0.0977,-0.008 0.23828,-0.0156 0.15234,0.0312 -0.27343,0.004 -0.48828,0.23047 -0.48046,0.50391 0.008,0.26953 0.23046,0.48437 0.5039,0.48046 0.27344,-0.008 0.48828,-0.23437 0.48047,-0.5039 -0.008,-0.27344 -0.23047,-0.48828 -0.50391,-0.48047 -0.125,0.0547 -0.30859,0.0742 -0.6289,0.004 -0.17578,-0.0664 -0.3711,0.0234 -0.4375,0.19921 -0.0664,0.17969 0.0234,0.375 0.19922,0.44141 0.33984,0.17969 0.65625,0.28906 0.89062,0.33984 0.27344,0.0352 0.64453,-0.082 0.85547,-0.24218 0.19922,-0.23828 0.27344,-0.71094 0.22656,-0.97657 -0.0742,-0.2539 -0.34375,-0.58984 -0.58203,-0.76953 -0.70312,-0.22265 -1.3789,-0.0703 -0.91797,-0.043 -0.625,1.85938 0.0742,2 0.73828,2.02344 0.39454,0.004 1.12891,0.0312 1.75,-0.35547 0.20313,-0.17578 0.44141,-0.46484 0.57032,-0.71093 0.0664,-0.13282 0.13672,-0.35157 0.16015,-0.52344 0.008,-0.1836 -0.0664,-0.53906 -0.1914,-0.7461 -0.21875,-0.26953 -0.60547,-0.5039 -0.91016,-0.60546 -0.29687,-0.0859 -0.6875,-0.14063 -1.03906,-0.14454 -0.25391,-0.004 -0.59766,-0.008 -0.91016,0.0273 -0.32031,0.0391 -0.80859,0.21875 -1.11719,0.55078 -0.16015,0.25 -0.28906,0.62109 -0.32031,0.90625 -0.0156,0.28906 0.0703,0.71484 0.25,0.99609 0.21875,0.26172 0.70313,0.55078 1.15235,0.55469 0.32421,-0.0547 0.85156,-0.20312 1.1875,-0.54687 0.26562,-0.28516 0.46484,-0.74219 0.48437,-1.14844 0.004,-0.40235 -0.16797,-0.91016 -0.49219,-1.27344 -0.17968,-0.19922 -0.48437,-0.21484 -0.68359,-0.0352 -0.19922,0.17969 -0.21484,0.48829 -0.0352,0.6875 z m 0,0"
       id="path22"
       inkscape:connector-curvature="0" />
    <path
       style="fill:#1747b3;fill-opacity:1;fill-rule:nonzero;stroke:none"
       d="m 348.4375,135.33203 c 0.33594,0.33203 0.92578,0.64063 1.55078,0.72656 0.30859,0.0273 0.58203,-0.20312 0.60547,-0.51172 0.0273,-0.30859 -0.20313,-0.58203 -0.51172,-0.60546 -0.30859,-0.0273 -0.58203,0.20312 -0.60547,0.51171 -0.0273,0.3086 0.20313,0.58204 0.51172,0.60547 0.625,0.0742 1.45703,-0.0859 2.1875,-0.5625 0.28906,-0.20703 0.35547,-0.60547 0.14844,-0.89453 -0.20313,-0.28515 -0.60156,-0.35156 -0.89063,-0.14844 -0.28906,0.20704 -0.35547,0.60547 -0.14843,0.89063 0.20312,0.28906 0.60156,0.35547 0.89062,0.15234 0.84375,-0.58593 1.66406,-1.64843 2.13672,-2.72656 0.14844,-0.35937 -0.0273,-0.77344 -0.39063,-0.92187 -0.35937,-0.14844 -0.77343,0.0273 -0.92187,0.38671 -0.14844,0.36329 0.0273,0.77735 0.38672,0.92579 0.36328,0.14843 0.77734,-0.0273 0.92578,-0.39063 0.29297,-0.74609 0.42969,-1.65625 0.30078,-2.46094 -0.15625,-0.88672 -0.68359,-1.84765 -1.44141,-2.41406 -0.63671,-0.42578 -1.55078,-0.5664 -2.375,-0.47265 -1.17187,0.15625 -2.51562,0.8789 -3.74218,1.88281 -1.61328,1.32422 -3.07813,3.43359 -4.29297,5.41015 -0.7461,1.20313 -1.45313,2.41016 -1.95313,3.4961 -0.62109,1.39062 -0.82812,2.70703 -0.67187,3.57422 0.082,0.35546 0.32812,0.76562 0.58203,0.99218 0.26953,0.20703 0.68359,0.36328 1.02344,0.40625 1.16406,0.0859 2.76172,-0.68359 4.33984,-1.67578 1.0625,-0.67187 2.05469,-1.58984 2.96094,-2.3164 1.34765,-1.06641 2.57812,-1.73438 3.30078,-2.01954 0.10547,-0.0469 0.082,-0.043 0.0781,-0.0391 -0.0312,-0.0156 -0.26171,-0.12109 -0.32812,-0.17187 -0.0234,-0.11719 -0.0352,-0.15235 -0.0898,0.16015 -0.0742,0.46875 -0.3711,1.16016 -0.63282,1.96485 -0.13281,0.41015 0.0937,0.85156 0.50391,0.98047 0.41016,0.13281 0.85156,-0.0937 0.98047,-0.50391 0.13281,-0.41016 -0.0937,-0.85156 -0.50391,-0.98047 -0.41015,-0.13281 -0.85156,0.0937 -0.98047,0.50391 -0.36328,1.21093 -0.70703,2.61718 -0.5,3.79687 0.0664,0.38281 0.42969,0.64453 0.81641,0.57813 0.38672,-0.0664 0.64453,-0.4336 0.57812,-0.82032 -0.0664,-0.38281 -0.43359,-0.64062 -0.8164,-0.57812 -0.38672,0.0664 -0.64453,0.43359 -0.57813,0.82031 0.16797,0.57813 0.53516,1.1836 1.05469,1.56641 0.21875,0.1914 0.54688,0.16797 0.73828,-0.0508 0.1875,-0.21875 0.16406,-0.55078 -0.0547,-0.74219 -0.21875,-0.1875 -0.55078,-0.16406 -0.73828,0.0547 -0.1914,0.21875 -0.16797,0.55078 0.0547,0.73828 0.5,0.34765 1.22656,0.58984 2.10938,0.65234 0.1875,0.0234 0.35937,-0.10547 0.38671,-0.29297 0.0234,-0.1875 -0.10546,-0.35937 -0.29296,-0.38281 -0.77735,-0.16797 -1.22266,-0.42187 -1.51954,-0.76953 -0.28125,-0.30859 -0.33984,-0.58594 -0.34375,-1.01563 -0.14062,-0.83203 0.19141,-1.91796 0.58985,-3.07812 0.23437,-0.74219 0.55469,-1.51172 0.67187,-2.1875 0.0781,-0.46094 0.0234,-1.03125 -0.23437,-1.42578 -0.1836,-0.19141 -0.57813,-0.3711 -0.82422,-0.39453 -0.22266,0 -0.51563,0.0625 -0.73047,0.14843 -0.82031,0.34766 -2.21875,1.13672 -3.65234,2.29297 -0.95313,0.76953 -1.875,1.64453 -2.8125,2.23047 -1.51172,0.96094 -2.7461,1.59766 -3.3711,1.48438 -0.16797,-0.0117 -0.1875,-0.0156 -0.24609,-0.0781 -0.0742,-0.043 -0.0586,-0.0117 -0.0742,-0.14062 -0.13281,-0.55469 0.004,-1.44922 0.5625,-2.67969 0.44922,-1.02344 1.10156,-2.16797 1.82031,-3.36328 1.1875,-1.94531 2.51953,-3.88672 3.96875,-5.07031 1.13282,-0.92579 2.14844,-1.48438 3.02735,-1.57422 0.65234,-0.082 1.08203,-0.0352 1.40234,0.22265 0.51563,0.34375 0.78125,0.85157 0.87891,1.50391 0.10156,0.58203 0.008,1.11719 -0.24219,1.70312 -0.34766,0.9336 -0.92578,1.7461 -1.56641,2.21875 -0.5039,0.40625 -0.90625,0.50782 -1.35156,0.48829 -0.44141,-0.004 -0.75391,-0.13282 -0.99219,-0.32422 -0.19922,-0.1836 -0.5039,-0.16797 -0.68359,0.0312 -0.17969,0.19922 -0.16797,0.5039 0.0312,0.68359 z m 0,0"
       id="path24"
       inkscape:connector-curvature="0" />
    <path
       style="fill:#1747b3;fill-opacity:1;fill-rule:nonzero;stroke:none"
       d="m 342.32422,168.10156 c -0.39063,0.0742 -0.81641,0.39844 -1.07422,0.74219 -0.16406,0.24609 -0.0977,0.57422 0.14453,0.73828 0.24609,0.16406 0.57422,0.0977 0.73828,-0.14453 0.16406,-0.24609 0.0977,-0.57422 -0.14844,-0.73828 -0.24218,-0.16406 -0.57031,-0.0977 -0.73437,0.14453 -0.25,0.35547 -0.4375,0.91406 -0.375,1.39453 0.0664,0.3125 0.375,0.51172 0.6875,0.44531 0.3125,-0.0703 0.50781,-0.375 0.44141,-0.6875 -0.0664,-0.3125 -0.3711,-0.51172 -0.6836,-0.44531 -0.3125,0.0703 -0.51172,0.375 -0.44531,0.6875 0.0703,0.30859 0.32031,0.67188 0.59375,0.86719 0.28125,0.17969 0.65625,0.0977 0.83594,-0.1875 0.18359,-0.28125 0.0976,-0.65625 -0.1836,-0.83594 -0.28515,-0.17969 -0.66015,-0.0977 -0.83984,0.1875 -0.17969,0.28125 -0.0937,0.65625 0.1875,0.83594 0.26953,0.17578 0.69141,0.3125 1.09766,0.34375 1.15234,0.0352 2.78125,-0.66406 4.46875,-1.67578 1.46484,-0.89844 2.92578,-2.25391 4.24609,-3.51563 1.90234,-1.82812 3.44922,-3.71484 4.23047,-5.23828 0.51953,-1.03516 0.65234,-2.11328 0.41015,-2.83984 -0.11718,-0.30078 -0.38281,-0.63282 -0.64843,-0.8125 -0.26563,-0.16407 -0.66016,-0.28125 -1.00391,-0.30469 -0.92969,-0.0234 -2.22266,0.4375 -3.52344,1.36328 -1.41797,1.01953 -2.83203,2.71875 -4.04297,4.47266 -0.9414,1.33203 -1.73046,2.83984 -2.30468,4.23047 -0.55469,1.35156 -0.78125,2.73437 -0.80469,3.87109 0,1.17969 0.32422,2.29297 0.79687,3.08984 0.87891,1.33594 2.59766,1.84766 3.88282,1.90235 1.10547,0.0391 2.21093,-0.33594 2.98828,-0.84375 0.77734,-0.52735 1.42578,-1.32032 1.70312,-2.01953 0.16797,-0.45704 0.22657,-1.13282 0.0117,-1.66016 -0.21484,-0.41016 -0.71875,-0.57031 -1.1289,-0.35938 -0.41016,0.21094 -0.57032,0.71485 -0.35938,1.125 0.21094,0.41407 0.71484,0.57422 1.125,0.36329 0.41016,-0.21094 0.57422,-0.71875 0.36328,-1.12891 -0.29687,-0.49609 -1.03515,-0.95313 -1.7539,-0.97266 -0.45313,0 -0.82032,0.3711 -0.82032,0.82032 0.004,0.45312 0.3711,0.82031 0.82422,0.82031 0.45313,-0.004 0.82031,-0.3711 0.81641,-0.82422 0,-0.45313 -0.36719,-0.82031 -0.82031,-0.81641 -0.67188,0.0703 -1.56641,0.39453 -2.44922,0.9961 -0.30469,0.1875 -0.40235,0.58203 -0.21485,0.88672 0.1836,0.30468 0.58203,0.40234 0.88672,0.21484 0.30469,-0.18359 0.40235,-0.58203 0.21485,-0.88672 -0.1836,-0.30469 -0.58204,-0.40234 -0.88672,-0.21484 -1.58203,1.09375 -3.21485,3.30859 -4.75391,5.51172 -0.11719,0.14843 -0.0859,0.36328 0.0625,0.47656 0.15234,0.11719 0.36719,0.0859 0.48047,-0.0625 1.69922,-2.07422 3.37891,-4.03906 4.88281,-4.82422 0.80078,-0.42578 1.35938,-0.52344 1.78125,-0.45703 0.29688,-0.0234 0.23047,-0.0352 0.26172,0.0977 0.0625,0.0234 0.0391,0.0469 -0.0664,0.34375 -0.125,0.4336 -0.46093,0.8711 -1.04296,1.27344 -0.58594,0.42188 -1.22657,0.67188 -2.05079,0.64063 -1.10156,-0.0312 -2.1875,-0.27735 -2.66796,-1.17578 -0.38672,-0.60938 -0.60938,-1.33594 -0.60157,-2.3125 -0.0195,-1.02735 0.1211,-2.15625 0.59375,-3.3711 0.51953,-1.34375 1.21875,-2.73828 2.08594,-4.01953 1.18359,-1.70312 2.46484,-3.25781 3.74219,-4.15625 1.17187,-0.83594 2.09375,-1.15625 2.72265,-1.10156 0.20313,0.004 0.27344,0.0234 0.3711,0.0977 0.10156,0.0547 0.10156,0.0547 0.13672,0.17188 0.16015,0.37109 0.082,0.94531 -0.36719,1.79297 -0.71094,1.36328 -2.15234,3.08203 -4.01563,4.84375 -1.30859,1.25781 -2.66796,2.52734 -4.00781,3.34765 -1.59765,0.9961 -2.92187,1.60938 -3.69922,1.56641 -0.26953,0.004 -0.38281,-0.0234 -0.5,-0.0937 -0.11718,-0.0508 -0.10547,-0.0195 -0.11718,-0.0859 -0.0703,-0.15234 -0.0195,-0.32422 0.1289,-0.5625 0.13672,-0.24218 0.26172,-0.37109 0.34766,-0.375 0.26562,-0.0469 0.44531,-0.29687 0.39844,-0.55859 -0.043,-0.26563 -0.29297,-0.44141 -0.55469,-0.39844 z m 0,0"
       id="path26"
       inkscape:connector-curvature="0" />
    <path
       style="fill:#1747b3;fill-opacity:1;fill-rule:nonzero;stroke:none"
       d="m 343.81641,208.78125 c 0.67187,-0.80078 1.60156,-1.91797 2.51171,-3.10547 0.16407,-0.21094 0.125,-0.51172 -0.0859,-0.67187 -0.20703,-0.16016 -0.50782,-0.1211 -0.67188,0.0859 -0.16015,0.21094 -0.12109,0.51172 0.0899,0.67188 0.20703,0.16015 0.50781,0.12109 0.66796,-0.0859 0.70313,-0.84766 1.4961,-1.73828 1.90625,-2.55469 0.13672,-0.30468 -0.004,-0.66015 -0.30859,-0.79297 -0.30469,-0.13671 -0.66016,0.004 -0.79297,0.3086 -0.13281,0.30469 0.004,0.66015 0.3086,0.79297 0.30468,0.13281 0.66015,-0.004 0.79296,-0.3086 0.25391,-0.53906 0.39454,-1.22656 0.17969,-1.78125 -0.16797,-0.3164 -0.5625,-0.4375 -0.8789,-0.26953 -0.32032,0.16797 -0.44141,0.5625 -0.27344,0.87891 0.16797,0.32031 0.5625,0.4414 0.88281,0.27344 0.31641,-0.16797 0.4375,-0.5625 0.26953,-0.88282 -0.16015,-0.26953 -0.5,-0.53125 -0.78906,-0.63672 -0.27734,-0.0937 -0.65234,-0.13671 -1,-0.125 -0.67969,0.0273 -1.57813,0.2461 -2.48828,0.64454 -1.32422,0.58203 -2.73828,1.66796 -4.07031,2.78125 -1.3711,1.14843 -2.58594,2.625 -3.59766,3.94921 -1.58984,2.04688 -2.61719,4.07032 -2.89453,5.67969 -0.13281,0.97656 -0.004,2.02344 0.47656,2.77344 0.27344,0.39844 0.82422,0.49609 1.21875,0.21875 0.39844,-0.27344 0.49609,-0.82422 0.22266,-1.21875 -0.27735,-0.39844 -0.82422,-0.5 -1.22266,-0.22266 -0.39844,0.27735 -0.49609,0.82422 -0.21875,1.22266 0.76563,0.98437 2.23828,1.48437 3.69141,1.56641 0.46484,0.0312 0.86328,-0.32422 0.89062,-0.78516 0.0312,-0.46484 -0.32422,-0.86719 -0.78906,-0.89453 -0.46094,-0.0273 -0.86328,0.32422 -0.89063,0.78906 -0.0273,0.46484 0.32422,0.86328 0.78907,0.89063 1.78906,0.0312 3.92968,-0.41797 5.52734,-1.13282 0.31641,-0.125 0.46875,-0.48437 0.34375,-0.80078 -0.125,-0.32031 -0.48437,-0.47265 -0.80469,-0.34765 -0.3164,0.125 -0.46875,0.48828 -0.34375,0.80468 0.125,0.31641 0.48438,0.47266 0.80469,0.34375 0.28516,-0.21484 0.56641,-0.4414 0.80078,-0.67187 0.16406,-0.0898 0.22656,-0.29688 0.14063,-0.46485 -0.0899,-0.16406 -0.29688,-0.22656 -0.46485,-0.14062 -0.29687,0.0586 -0.60547,0.0977 -0.93359,0.12891 -1.50781,0.52343 -3.38672,0.78125 -4.96484,0.60156 -1.2461,-0.082 -2.05469,-0.33203 -2.35547,-0.88672 -0.28516,-0.34375 -0.32032,-0.75781 -0.21875,-1.54297 0.12109,-1.33203 0.91015,-3.05078 2.35547,-5.03516 0.97656,-1.32031 2.07421,-2.6914 3.33203,-3.76562 1.30078,-1.10547 2.5625,-2.09766 3.71875,-2.60938 0.80859,-0.36328 1.47265,-0.53125 2,-0.55078 0.2539,-0.0156 0.39453,-0.004 0.52343,0.043 0.11719,0.0312 0.0664,-0.0117 0.0586,0.004 0.10156,0.0508 0.0547,0.23828 -0.12891,0.6875 -0.25,0.6914 -0.91015,1.54297 -1.5625,2.45312 -0.90234,1.17188 -1.82031,2.27344 -2.49609,3.0625 -0.17188,0.20313 -0.14453,0.51172 0.0586,0.6836 0.20313,0.17187 0.51172,0.14843 0.6836,-0.0547 z m 0,0"
       id="path28"
       inkscape:connector-curvature="0" />
    <path
       style="fill:#1747b3;fill-opacity:1;fill-rule:nonzero;stroke:none"
       d="m 324.51562,206.01562 c -0.51953,-0.0312 -1.54687,0.23829 -2.01562,0.0859 -0.34375,-0.0547 -0.67188,0.17969 -0.72656,0.52735 -0.0586,0.34765 0.17578,0.67187 0.52343,0.73046 0.34766,0.0547 0.67579,-0.17968 0.73047,-0.52734 0.0547,-0.34766 -0.17968,-0.67187 -0.52734,-0.73047 -0.0664,-0.004 0.0195,0.0391 0.0156,0 -0.19921,-0.30078 -0.60546,-0.38281 -0.90625,-0.1875 -0.30078,0.19922 -0.38671,0.60547 -0.1875,0.90625 0.19922,0.30469 0.60547,0.38672 0.90625,0.1875 0.30079,-0.19922 0.38672,-0.60156 0.1875,-0.90625 -0.0234,-0.0234 -0.008,0.0234 0.0156,-0.0625 0.0469,-0.36719 -0.21875,-0.70312 -0.58594,-0.74609 -0.37109,-0.043 -0.70703,0.21875 -0.75,0.58984 -0.043,0.36719 0.21875,0.70313 0.58985,0.7461 0.36718,0.043 0.70312,-0.21875 0.74609,-0.58985 -0.0312,-0.16015 0.17578,-0.39844 0.56641,-0.5625 0.27734,-0.125 0.4414,-0.16015 0.64453,-0.0703 0.1289,0 0.19922,0.15625 0.32422,0.54687 0.13671,0.39454 0.17968,0.82813 0.14843,1.24219 -0.0234,0.41406 -0.17187,0.66797 -0.48828,0.96094 -0.30078,0.30469 -0.6289,0.47266 -1.0664,0.56641 -0.6211,0.17968 -1.22266,0.11328 -1.77735,-0.27735 -0.35156,-0.22265 -0.5664,-0.47656 -0.69531,-0.84765 -0.11719,-0.26563 -0.13281,-0.45313 -0.0508,-0.7461 0.0351,-0.27734 0.28515,-0.51562 0.77734,-0.84765 0.4961,-0.33985 1.08985,-0.60157 1.69141,-0.80079 0.96094,-0.3125 1.75781,-0.29687 2.16406,-0.082 0.13672,0.0273 0.0664,-0.043 0.0586,0.11719 0.0312,0.17188 -0.008,0.30469 -0.17578,0.5625 -0.26953,0.4375 -0.96093,0.82031 -1.66797,1.04688 -0.48046,0.1875 -0.76171,0.1875 -0.92968,0.0859 0.043,0.0352 0.19531,0.17188 0.20312,0.16016 -0.0117,-0.008 0.008,0.0586 0.0156,0.0117 -0.004,-0.23047 -0.0195,-0.26563 -0.008,-0.20703 -0.19921,0.15625 -0.46093,0.26953 -0.42578,0.26953 0.0469,-0.0156 0.0664,-0.0156 0.14063,0.004 0.5,0.16797 1.03906,-0.10156 1.20703,-0.60156 0.16406,-0.5 -0.10547,-1.03906 -0.60547,-1.20703 -0.49609,-0.16406 -1.03906,0.10547 -1.20312,0.60156 -0.16797,0.5 0.10156,1.03907 0.60156,1.20703 -0.0937,-0.0898 -0.19531,-0.19921 -0.1211,-0.0859 0.23829,0.4375 0.78907,0.59765 1.23047,0.35547 0.4375,-0.23829 0.59766,-0.78907 0.35547,-1.23047 -0.23828,-0.4375 -0.78906,-0.59766 -1.22656,-0.35547 -0.44141,0.23828 -0.60156,0.78906 -0.35938,1.23047 0.0859,0.12109 0.16407,0.28906 0.26172,0.54297 0.14063,0.45312 0.6211,0.70312 1.07422,0.5625 0.45313,-0.14063 0.70313,-0.6211 0.5625,-1.07422 -0.14062,-0.45313 -0.62109,-0.70703 -1.07422,-0.5625 -0.45312,0.14062 -0.70703,0.62109 -0.5625,1.07422 0.41016,0.73828 0.80078,1.80859 1.38282,2.23046 0.1289,0.13672 0.34375,0.14063 0.48046,0.0117 0.14063,-0.1289 0.14454,-0.34375 0.0156,-0.48047 -0.12109,-0.32812 -0.13672,-1.35156 -0.24219,-2.27343 -0.0781,-0.30078 -0.18359,-0.63672 -0.3125,-0.90625 -0.14062,-0.27735 -0.48047,-0.66016 -0.86328,-0.84766 -0.21484,-0.0742 -0.54687,-0.14062 -0.8125,-0.14453 -0.28516,0.0117 -0.82812,0.21094 -1.15625,0.56641 -0.25391,0.44921 -0.32422,1.01171 -0.32031,1.34765 0.0117,0.2461 0.0976,0.6211 0.22656,0.87891 0.14453,0.25 0.51172,0.60156 0.84375,0.75 0.61719,0.19531 1.54297,0.14844 2.30469,-0.14453 0.85937,-0.38282 1.91797,-1.11719 2.41406,-1.96485 0.26563,-0.47265 0.42188,-1.11718 0.37109,-1.60937 -0.0859,-0.50781 -0.50781,-1.13672 -1.03125,-1.39844 -0.79687,-0.31641 -2.10546,-0.32031 -3.30078,0.0664 -0.68359,0.21875 -1.46875,0.5664 -2.08984,0.97656 -0.625,0.42187 -1.23438,1.07031 -1.44922,1.76953 -0.12891,0.54297 -0.0859,1.21875 0.0977,1.72266 0.25,0.61718 0.76953,1.24218 1.3164,1.61328 0.89453,0.5664 2.12891,0.72656 3.07032,0.5 0.63281,-0.1836 1.3164,-0.58985 1.76953,-1.06641 0.4414,-0.49219 0.79297,-1.23828 0.83203,-1.95312 0.0156,-0.5586 -0.0859,-1.25 -0.28516,-1.79297 -0.21094,-0.54688 -0.66797,-1.14453 -1.24219,-1.35938 -0.51953,-0.13672 -1.14843,-0.0352 -1.58593,0.16016 -0.64453,0.30469 -1.23438,0.98047 -1.35938,1.60156 -0.0195,0.28906 0.0703,0.6875 0.22656,0.9375 0.17579,0.23828 0.55079,0.47656 0.875,0.53906 0.82422,0.0586 1.9375,-0.33203 2.23438,-0.375 0.26562,-0.004 0.48047,-0.22265 0.47656,-0.49218 -0.004,-0.26953 -0.22265,-0.48047 -0.49219,-0.47657"
       id="path30"
       inkscape:connector-curvature="0" />
    <path
       style="fill:#a300c7;fill-opacity:1;fill-rule:nonzero;stroke:none"
       d="m 162.28516,133.85156 c -0.0781,-0.17578 -0.0742,-0.16406 -0.0273,-0.20312 0.11719,-0.25 0.0156,-0.55078 -0.23437,-0.66797 -0.25,-0.1211 -0.55078,-0.0156 -0.67188,0.23437 -0.12109,0.25 -0.0156,0.55078 0.23438,0.66797 0.25,0.1211 0.55078,0.0156 0.67187,-0.23437 0.0117,-0.0508 0.0234,-0.043 0.19922,-0.0937 0.26953,-0.0977 0.41016,-0.39453 0.31641,-0.66407 -0.0977,-0.27343 -0.39453,-0.41406 -0.66797,-0.3164 -0.26953,0.0937 -0.41016,0.39453 -0.31641,0.66406 0.0977,0.26953 0.39453,0.41016 0.66797,0.31641 0.37109,-0.12891 1.00391,-0.125 1.86328,0.004 0.30078,0.0391 0.58203,-0.17187 0.625,-0.47656 0.0391,-0.30469 -0.17187,-0.58594 -0.47656,-0.625 -0.30469,-0.043 -0.58594,0.17188 -0.625,0.47656 -0.043,0.30469 0.17187,0.58203 0.47656,0.625 2.09766,0.28516 5.01563,1.80469 8.65235,3.16407 1.38281,0.51562 2.92968,1.02343 4.68359,1.45312 2.87109,0.69531 6.26953,1.01563 9.71484,1.61328 2.15625,0.38281 4.33203,0.91406 6.375,1.47656 3.48047,0.9375 6.39063,2.17188 9.31641,3.23047 3.25391,1.17969 6.69531,2.03907 10.4375,2.92578 2.72656,0.64454 5.66016,1.26172 8.33203,2.00391 4.11719,1.14063 7.375,2.56641 10.49219,3.83594 1.65234,0.67187 3.29687,1.33594 5.1914,2.01562 2.36329,0.84766 5.14844,1.63672 7.75,2.35938 3.23438,0.90625 6.01954,1.70703 8.58985,2.4375 3.72656,1.0664 7.66015,2.0625 11.70312,3.03125 5.27735,1.26562 9.58203,2.50781 14.02735,3.47656 2.15234,0.45703 4.41406,0.74219 6.5,1.12109 2.01172,0.3711 3.86328,0.88672 5.70312,1.3125 1.12891,0.26172 2.28516,0.48829 3.55078,0.70704 2.14453,0.36718 4.60157,0.66406 6.76563,0.96484 2.08984,0.28516 3.85937,0.61719 5.41797,0.87891 0.9375,0.16015 1.79297,0.26562 2.73047,0.42187 1.67578,0.28516 3.64843,0.69531 5.14062,1 0.74219,0.15234 1.34375,0.26563 1.72656,0.34766 0.17188,0.0312 0.26563,0.0625 0.33594,0.082 0.0234,0.008 0.0156,0.004 0.004,-0.004 -0.0117,-0.008 -0.36328,-0.48828 0.33593,-1.34375 -0.39453,0 -0.71093,0.32031 -0.71093,0.71485 0,0.39453 0.3164,0.71484 0.71093,0.71484 0.39454,0 0.71485,-0.32031 0.71485,-0.71484 0,-0.39454 -0.32031,-0.71485 -0.71485,-0.71485 0.15235,0.0156 0.24219,0.043 0.25782,0.0508 -0.21094,-0.0234 -0.5625,-0.12109 -0.94141,-0.23047 -0.5,-0.15625 -0.99609,-0.34375 -1.42578,-0.59765 -0.36328,-0.26172 -0.65625,-0.69141 -1.01953,-1.21094 -0.19922,-0.29297 -0.38281,-0.62891 -0.57813,-0.92187 -0.23047,-0.375 -0.51953,-0.64844 -0.60937,-0.77344 -0.0117,-0.0273 -0.0508,-0.0703 -0.0859,-0.10156 -0.0547,-0.0391 -0.23437,-0.0859 -0.42578,-0.0469 -0.15625,0.10938 -0.26563,0.35547 -0.27344,0.44141 0,0.0547 0.0156,0.13281 0.0195,0.16406 0.0234,0.11719 0.10938,0.28125 0.21485,0.41406 0.39843,0.35938 1.13281,0.66406 1.72265,1.05078 0.92969,0.60547 1.67578,1.32032 1.9375,1.9336 0.16797,0.34375 0.17188,0.38281 -0.16015,0.6914 -0.69532,0.77344 -2.86719,1.54688 -5.61719,2.21094 -0.39453,0.10156 -0.63672,0.5 -0.53516,0.89844 0.0977,0.39453 0.5,0.63281 0.89453,0.53515 0.39454,-0.0977 0.63282,-0.5 0.53516,-0.89453 -0.0977,-0.39453 -0.5,-0.63672 -0.89453,-0.53906 -2.1875,0.58203 -4.76953,0.94531 -6.92188,1.25781 -0.35546,0.0469 -0.60546,0.375 -0.55859,0.73047 0.0469,0.35547 0.375,0.60156 0.72656,0.55469 0.35547,-0.0469 0.60547,-0.37109 0.5586,-0.72656 -0.0469,-0.35547 -0.3711,-0.60547 -0.72657,-0.5586 -0.92187,0.13282 -1.76953,0.25782 -2.46484,0.38672 -0.33594,0.0547 -0.5625,0.375 -0.50781,0.71485 0.0586,0.33593 0.3789,0.5625 0.71484,0.5039 0.33985,-0.0586 0.56641,-0.375 0.50781,-0.71484 -0.0586,-0.33594 -0.3789,-0.5625 -0.71484,-0.50391 -0.21484,0.12891 -0.41797,0.26172 -0.59766,0.39453 -0.18359,0.0391 -0.30078,0.21875 -0.26171,0.40235 0.0391,0.18359 0.21875,0.30468 0.40234,0.26562 0.20703,0.0508 0.42578,0.10547 0.66406,0.15625 0.67578,-0.10547 1.50391,-0.20703 2.42578,-0.32031 2.16016,-0.25391 4.82422,-0.57031 7.11328,-1.10938 2.8086,-0.72656 5.2461,-1.65625 6.25391,-2.72656 0.52344,-0.6289 0.60938,-1.52344 0.3125,-2.15625 -0.43359,-0.83594 -1.41797,-1.73828 -2.45703,-2.38281 -0.69141,-0.42578 -1.40234,-0.69531 -1.59766,-0.88281 -0.0703,-0.0234 -0.0742,0.0117 -0.0859,0.0469 0.004,0.0234 0.0117,0.0859 0.0117,0.13281 -0.008,0.0742 -0.11328,0.3086 -0.26171,0.41797 -0.1875,0.0352 -0.35938,-0.008 -0.38672,-0.0273 -0.043,-0.0391 -0.0664,-0.0703 -0.0664,-0.0781 0.16016,0.14454 0.42578,0.33985 0.625,0.61719 0.17969,0.26563 0.36719,0.60547 0.58203,0.92578 0.35156,0.52735 0.69922,1.04688 1.14453,1.40625 0.41797,0.39453 0.94141,0.73828 1.42188,1.02344 0.32812,0.20703 0.66015,0.41406 0.85547,0.54688 0.0195,0.008 0.12109,0.0391 0.27343,0.0586 0.70313,-0.85938 0.35157,-1.34375 0.30469,-1.36719 -0.0156,-0.008 -0.082,-0.0391 -0.14062,-0.0625 -0.10938,-0.043 -0.3086,-0.10937 -0.53907,-0.16015 -0.39843,-0.0859 -1.0039,-0.19922 -1.73828,-0.34766 -1.48828,-0.30469 -3.48047,-0.71875 -5.1875,-1.00391 -0.96875,-0.16015 -1.82422,-0.26562 -2.73437,-0.42187 -1.54297,-0.25781 -3.33985,-0.59375 -5.45703,-0.88672 -2.17578,-0.30469 -4.60938,-0.60547 -6.71875,-0.96875 -1.2461,-0.21484 -2.36719,-0.43359 -3.47266,-0.68359 -1.80859,-0.41016 -3.69531,-0.92579 -5.76953,-1.30079 -2.12891,-0.38671 -4.36328,-0.67187 -6.45703,-1.125 -4.40625,-0.92968 -8.70703,-2.14062 -14.01563,-3.38281 -4.03515,-0.95312 -7.94531,-1.92969 -11.66015,-2.97265 -2.56641,-0.72657 -5.35938,-1.52344 -8.59766,-2.42579 -2.59766,-0.72265 -5.33984,-1.5 -7.66016,-2.33593 -1.86718,-0.66797 -3.48828,-1.32813 -5.13671,-2 -3.10547,-1.25782 -6.44532,-2.71094 -10.64063,-3.8711 -2.71484,-0.74609 -5.67578,-1.36328 -8.38281,-1.99609 -3.73828,-0.875 -7.11328,-1.71094 -10.3086,-2.86328 -2.89453,-1.03906 -5.86328,-2.28906 -9.41796,-3.2461 -2.0625,-0.54687 -4.29688,-1.07421 -6.49219,-1.44921 -3.48828,-0.61329 -6.85547,-0.92969 -9.63672,-1.61329 -1.70703,-0.41796 -3.19141,-0.90625 -4.55469,-1.40625 -3.58203,-1.3164 -6.58594,-2.83984 -8.91406,-3.15234 -0.93359,-0.11328 -1.79688,-0.0859 -2.36328,0.11719 -0.29297,0.11328 -0.60938,0.36328 -0.75391,0.64062 -0.11328,0.28516 -0.0937,0.70703 0.0469,1.03125 0.10937,0.24219 0.39453,0.35547 0.64062,0.2461 0.2461,-0.10938 0.35547,-0.39453 0.2461,-0.64063 z m 0,0"
       id="path32"
       inkscape:connector-curvature="0" />
    <path
       style="fill:#a300c7;fill-opacity:1;fill-rule:nonzero;stroke:none"
       d="m 157.30859,167.92578 c 0.0352,0.13672 -0.0898,0.50391 -0.15625,0.56641 0.23828,-0.13282 0.32422,-0.4336 0.19141,-0.67188 -0.13281,-0.23828 -0.43359,-0.32031 -0.67188,-0.1875 -0.23828,0.13281 -0.32421,0.42969 -0.1914,0.66797 0.13281,0.23828 0.43359,0.32422 0.67187,0.19141 -0.0312,0.0117 -0.0547,0.0234 0.0156,0.0195 0.27734,-0.0312 0.47656,-0.27344 0.44922,-0.55078 -0.0312,-0.27344 -0.27344,-0.47657 -0.55078,-0.44532 -0.27344,0.0273 -0.47657,0.27344 -0.44922,0.54688 0.0312,0.27734 0.27734,0.47656 0.55078,0.44922 0.15625,-0.0117 0.41406,-0.004 0.79297,0.0312 0.28515,0.0195 0.53515,-0.19141 0.55468,-0.47656 0.0234,-0.28516 -0.1914,-0.53516 -0.47656,-0.55469 -0.28515,-0.0195 -0.53125,0.1914 -0.55469,0.47656 -0.0195,0.28516 0.19532,0.53516 0.47657,0.55469 0.76562,0.0664 1.89843,0.22656 3.29687,0.46094 1.4336,0.24218 3.10938,0.54687 4.75,0.90625 2.77344,0.59375 5.47656,1.41796 8.42578,2.11718 1.6211,0.38672 3.32032,0.6836 5.1836,1.0586 2.34375,0.48047 4.99218,1.05078 7.71484,1.6914 1.88672,0.44532 3.78516,0.92969 5.53125,1.39453 4.12109,1.10547 7.25,2.08594 10.62891,3.01563 2.80859,0.77734 5.80078,1.48437 8.84375,2.17969 3.08203,0.71484 6.28515,1.39843 9.68359,2.09375 3.49609,0.71093 7.11719,1.4375 10.35156,2.11718 6.75391,1.39844 11.98047,2.84766 17.30469,4.23438 4.42188,1.14844 9.13672,1.89844 13.25391,2.78516 8.46093,1.82421 15.60156,4.27734 21.8125,5.26562 4.1875,0.65625 8.03906,1.42578 10.80859,2.58984 1.78125,0.75 3.61328,1.42579 5.61719,1.96094 1.66406,0.4375 3.01953,0.67578 4.0039,0.99219 0.44922,0.13672 0.91407,0.36719 1.58594,0.625 0.38281,0.14844 0.8086,-0.043 0.95703,-0.42188 0.14844,-0.38281 -0.043,-0.8125 -0.42187,-0.95703 -0.38281,-0.14843 -0.8086,0.0391 -0.95703,0.42188 -0.14844,0.3789 0.043,0.80859 0.42187,0.95703 1.09766,0.38281 2.71485,0.86328 3.76563,0.98047 0.33984,0.0508 0.65625,-0.1836 0.70703,-0.52344 0.0508,-0.33984 -0.1836,-0.66016 -0.52344,-0.70703 -0.33984,-0.0508 -0.66016,0.18359 -0.71094,0.52344 -0.0508,0.33984 0.1875,0.65625 0.52735,0.70703 0.35937,0.0391 0.73437,0.0312 1,-0.0508 0.30468,-0.0898 0.48047,-0.40625 0.39453,-0.71485 -0.0899,-0.30468 -0.40625,-0.48047 -0.71094,-0.39062 -0.30469,0.0898 -0.48047,0.40625 -0.39453,0.71094 0.0898,0.30468 0.40625,0.48046 0.71094,0.39453 0.0781,-0.10547 0.17968,-0.2461 0.20312,-0.375 0.13672,-0.12891 0.14063,-0.34766 0.008,-0.48047 -0.1289,-0.13672 -0.34765,-0.14063 -0.48046,-0.008 -0.0352,-0.0703 -0.0156,-0.16797 -0.0508,-0.24219 -0.0508,0.0117 -0.20312,-0.0156 -0.49609,-0.0742 -0.90625,-0.17188 -2.39062,-0.69141 -3.41406,-1.12891 -0.60938,-0.24218 -1.10156,-0.49609 -1.66406,-0.68359 -1.08985,-0.34766 -2.46485,-0.59375 -4.07032,-1.01953 -1.9414,-0.51563 -3.66797,-1.15625 -5.41797,-1.89453 -2.92968,-1.23438 -6.9414,-2.05078 -11.15625,-2.71875 -6.07031,-0.94922 -13.1914,-3.38282 -21.73437,-5.21485 -4.16016,-0.89843 -8.84375,-1.64062 -13.19141,-2.77343 -5.3125,-1.37891 -10.58203,-2.83985 -17.38281,-4.2461 -3.24609,-0.66015 -6.875,-1.36328 -10.375,-2.05078 -3.39844,-0.66016 -6.58984,-1.30859 -9.66797,-1.98828 -3.03906,-0.68359 -6.00781,-1.375 -8.79687,-2.13281 -3.35547,-0.91797 -6.4961,-1.89063 -10.64453,-2.99219 -1.75391,-0.46094 -3.67579,-0.94531 -5.57813,-1.38281 -2.73437,-0.6211 -5.41016,-1.17188 -7.76562,-1.62891 -1.87891,-0.36719 -3.5625,-0.65234 -5.14844,-1.01953 -2.91406,-0.6875 -5.62891,-1.51563 -8.45313,-2.12109 -1.66015,-0.34375 -3.36718,-0.64063 -4.8164,-0.86329 -1.41407,-0.21875 -2.58985,-0.35937 -3.39063,-0.41015 -0.40234,-0.0234 -0.74219,-0.0273 -0.97265,0.004 -0.1211,0.0156 -0.28125,0.0547 -0.39844,0.11719 -0.14453,0.10547 -0.29297,0.53125 -0.21875,0.73828 0.12109,0.23828 0.41406,0.33203 0.65234,0.21094 0.23828,-0.125 0.33203,-0.41797 0.20703,-0.65625 z m 0,0"
       id="path34"
       inkscape:connector-curvature="0" />
    <path
       style="fill:#a300c7;fill-opacity:1;fill-rule:nonzero;stroke:none"
       d="m 307.69141,198.66797 c 0.0742,0.0508 -0.125,-0.0937 -0.42969,-0.26172 -0.23047,-0.13281 -0.52735,-0.0508 -0.66016,0.18359 -0.1289,0.23438 -0.0469,0.53125 0.1875,0.66016 0.23047,0.13281 0.52735,0.0508 0.66016,-0.18359 0.1289,-0.23438 0.0469,-0.53125 -0.1875,-0.66016 -0.32422,-0.22656 -0.77344,-0.42578 -1.14063,-0.4375 -0.32812,0.0508 -0.55078,0.35937 -0.5,0.69141 0.0547,0.32812 0.36328,0.55078 0.69141,0.49609 0.33203,-0.0508 0.55469,-0.35938 0.5,-0.69141 -0.0508,-0.32812 -0.36328,-0.55078 -0.69141,-0.49609 -0.49609,0.44531 -0.5,0.75391 -0.48047,0.82422 0.10157,0.32031 0.44141,0.5 0.76563,0.39844 0.32031,-0.10157 0.5,-0.44141 0.39844,-0.76563 -0.10157,-0.32031 -0.44141,-0.5 -0.76563,-0.39844 -0.32031,0.10157 -0.5,0.44141 -0.39844,0.76563 0.0156,0.0547 0.0391,0.125 0.0664,0.1914 0.0508,0.1211 0.13281,0.29688 0.23047,0.48438 0.19531,0.36719 0.5,0.86328 0.85156,1.28906 0.67578,0.80469 1.66016,1.55469 2.42969,2.27735 1.27344,1.17187 1.93359,2.19921 2.11328,2.9414 0.0625,0.25 0.0977,0.38281 0.082,0.48047 0.004,0.0859 0.0742,-0.043 0.004,-0.0156 -0.11328,0.10156 -0.39453,0.15625 -0.94531,0.22265 -1.03516,0.125 -2.59766,0.0117 -4.19922,-0.11719 -1.22657,-0.0977 -2.40625,-0.24609 -3.39844,-0.35937 -0.875,-0.0586 -1.62891,-0.0937 -2.13672,-0.0312 -0.26562,0.0312 -0.58984,0.13281 -0.81641,0.30859 -0.26171,0.21875 -0.29687,0.60938 -0.0742,0.875 0.21875,0.26172 0.60937,0.29688 0.87109,0.0742 0.26172,-0.21875 0.29687,-0.60937 0.0781,-0.875 -0.21875,-0.26172 -0.61328,-0.29687 -0.875,-0.0742 -0.12109,0.12891 -0.25,0.4375 -0.25,0.625 0.0156,0.32813 0.29688,0.58203 0.6211,0.5625 0.32812,-0.0156 0.58203,-0.29297 0.5664,-0.62109 -0.0156,-0.32813 -0.29296,-0.57813 -0.62109,-0.5625 -0.32812,0.0156 -0.58203,0.29297 -0.56641,0.62109 0.0274,0.16016 0.11719,0.36328 0.20313,0.46875 0.17969,0.25782 0.53125,0.32032 0.78906,0.14063 0.25781,-0.17969 0.32031,-0.53516 0.14063,-0.79297 -0.17969,-0.25781 -0.53516,-0.31641 -0.79297,-0.13672 -0.25781,0.17969 -0.31641,0.53125 -0.13672,0.78906 0.13672,0.0664 0.3125,0.14063 0.48828,0.19532 0.14453,0.125 0.35938,0.11328 0.48438,-0.0273 0.125,-0.14453 0.10937,-0.35937 -0.0312,-0.48437 -0.0547,-0.14453 -0.0469,-0.2461 -0.0117,-0.33594 -0.0117,-0.0234 0.0312,0.0625 0.0547,0.125 -0.004,0.0937 -0.0976,0.32031 -0.13671,0.38281 -0.0742,0.0469 -0.0859,0.0742 0.0898,0.0859 0.38281,0.0117 1.03906,0.10547 1.89453,0.23437 0.98047,0.10547 2.19141,0.25 3.45313,0.33985 1.61328,0.10547 3.30078,0.19531 4.5,0.0312 0.625,-0.0898 1.21875,-0.25781 1.61328,-0.54297 0.30468,-0.25781 0.51562,-0.73047 0.53515,-1.05078 0,-0.30469 -0.0742,-0.625 -0.14453,-0.87891 -0.26953,-0.99609 -1.13672,-2.32812 -2.51172,-3.60547 -0.83984,-0.75781 -1.78515,-1.44922 -2.36328,-2.12109 -0.30469,-0.34375 -0.55859,-0.72656 -0.75,-1.05078 -0.0937,-0.16016 -0.16015,-0.28125 -0.20312,-0.3711 -0.0195,-0.0391 -0.0274,-0.0547 -0.0312,-0.0586 0,0.0117 -0.008,0.28906 -0.46485,0.72656 -0.0547,-0.0625 0.16016,-0.0195 0.44922,0.0977 0.28125,0.16016 0.6875,0.39453 1.11328,0.36328 0.26172,-0.0586 0.42578,-0.31641 0.36719,-0.57812 -0.0586,-0.26172 -0.31641,-0.42579 -0.57812,-0.36719 z m 0,0"
       id="path36"
       inkscape:connector-curvature="0" />
    <path
       style="fill:#a300c7;fill-opacity:1;fill-rule:nonzero;stroke:none"
       d="m 150.14062,209.28125 c 1.02735,0.55469 2.20704,1.33984 4.49219,2.19141 0.30078,0.10937 0.62891,-0.0469 0.73828,-0.34766 0.10547,-0.30078 -0.0508,-0.62891 -0.34765,-0.73828 -0.30078,-0.10547 -0.63282,0.0508 -0.73828,0.34765 -0.10938,0.30079 0.0469,0.63282 0.34765,0.73829 2.34766,0.85546 5.99219,1.35156 10.09375,2.23046 0.33985,0.0703 0.67188,-0.14843 0.74219,-0.48437 0.0742,-0.33984 -0.14453,-0.67188 -0.48438,-0.74609 -0.33984,-0.0703 -0.67187,0.14843 -0.74218,0.48828 -0.0703,0.33593 0.14453,0.67187 0.48437,0.74218 4,0.85938 7.90625,2.41797 12.5,3.75 0.36719,0.10547 0.7461,-0.10546 0.85156,-0.47265 0.10547,-0.36719 -0.10546,-0.7461 -0.47265,-0.85156 -0.36719,-0.10547 -0.7461,0.10546 -0.85156,0.47265 -0.10547,0.36719 0.10546,0.7461 0.47265,0.85156 5.96875,1.74219 13.54688,2.73047 20.59375,4.39844 2.77344,0.64453 5.57813,1.41016 8.27344,2.0625 6.79297,1.64453 12.8125,2.85156 19.32422,4.14844 3.24609,0.63672 6.375,1.11328 9.33203,1.6875 1.59766,0.3125 3.1875,0.75 4.89844,1.07422 2.87109,0.54297 6.09375,0.66406 9.08203,0.86719 5.15625,0.34765 8.9375,0.83593 12.42969,1.30468 3.39843,0.44922 7.29296,0.72266 11.01562,1.06641 7.62891,0.70312 15.47266,1.41406 22.96094,1.89062 5.42578,0.35938 10.10156,0.48047 14.16797,0.4375 3.11328,-0.0312 6.5664,-0.21484 9.71875,-0.6914 2.58593,-0.41016 4.33984,-1.39063 6.1289,-2.14844 1.23047,-0.53516 2.78516,-0.85937 4.29297,-1.21875 3.20313,-0.74609 5.69922,-1.75781 8.85156,-3.11719 2.875,-1.24609 4.94922,-2.83203 7.12891,-4.5664 2.33594,-1.875 5.00781,-3.1836 7.125,-5.57422 1.59766,-1.82031 3.79688,-4.11328 5.39844,-6.20313 2.26953,-2.98437 3.20703,-4.91015 4.16406,-7.5039 1.59766,-4.34766 3.14063,-10.5 3.23438,-15.03907 0.0703,-4.23046 0.79687,-8.80078 0.78906,-13.04296 -0.004,-2.83985 0.4375,-5.86719 0.53906,-8.91016 0.12891,-4.03516 0.0156,-9.14453 -0.0391,-13.18359 -0.043,-3 -0.5586,-5.59375 -0.77344,-8.5625 -0.17578,-2.32422 -0.98828,-5.0625 -1.35937,-7.65235 -0.33985,-2.34375 -0.25,-4.72265 -1.02735,-7.25 -1.88672,-5.96484 -6.10156,-10.22265 -9.17969,-13.34765 -3.40234,-3.42969 -6.44921,-4.91407 -9.5625,-4.71875 -1.9375,0.13672 -3.82031,0.52343 -5.99609,1.09765 -1.59766,0.42578 -3.71875,0.7461 -5.19141,1.35157 -1.63281,0.6914 -2.5664,1.63281 -3.5625,2.6289 -1.29296,1.30078 -2.67187,3.52735 -3.21093,5.84766 -0.35547,1.52344 -0.27735,2.8789 -0.20313,3.96875 0.0352,0.54297 0.0742,1.04687 0.10156,1.53515 0.0234,0.34375 -0.008,0.72266 0,1.15235 0,0.36328 0,0.76172 0.0274,1.08203 0.0547,0.39062 0.26953,0.83203 0.54297,1.08594 0.375,0.26171 0.88672,0.17187 1.14843,-0.20313 0.26172,-0.37109 0.17188,-0.88281 -0.19921,-1.14453 -0.3711,-0.26563 -0.88672,-0.17578 -1.14844,0.19922 -0.26172,0.37109 -0.17188,0.88672 0.19922,1.14844 1.28515,-0.59375 1.26953,-0.54297 1.26172,-0.55079 -0.008,-0.004 -0.0156,-0.0195 -0.0195,-0.043 -0.0117,-0.043 -0.0156,-0.10938 -0.0195,-0.1836 -0.004,-0.15234 0,-0.35547 0,-0.55078 -0.0312,-0.18359 0.1211,-0.48437 0.1836,-0.84375 0.0195,-0.12109 0,-0.30859 -0.0469,-0.41406 -0.0547,-0.0937 -0.15234,-0.20313 -0.22656,-0.25391 -0.14063,-0.0859 -0.33203,-0.14453 -0.49219,-0.16797 -0.58594,-0.14843 -1.5039,-0.32031 -2.17578,-0.53906 -0.29687,-0.0937 -0.50391,-0.17578 -0.69141,-0.35156 -0.42968,-0.39063 -0.51171,-1.37891 -0.71484,-2.35938 -0.10937,-0.54687 -0.26953,-1.05468 -0.33594,-1.5039 -0.0742,-0.4961 -0.0625,-0.9336 0.0156,-1.16797 0.0195,-0.0352 -0.0312,0.0977 -0.0781,0.17969 -0.0508,0.0352 -0.23437,0.0977 -0.32031,0.11328 -0.0937,-0.008 -0.28125,-0.0781 -0.33594,-0.10547 0.0469,-0.12109 0.0899,0.8125 0.25,1.83203 0.16797,1.05078 0.33985,2.20703 0.58985,3.19141 0.26172,1.03515 0.70703,2.1289 1.42578,2.79296 0.55078,0.42969 1.3164,0.5625 1.8164,0.54688 0.62891,-0.0352 1.23438,-0.34766 1.79688,-0.71484 0.76562,-0.50782 1.73047,-1.17188 2.71875,-1.67969 0.60156,-0.3125 1.17578,-0.4961 1.78125,-0.64844 0.59766,-0.18359 1.17187,-0.30859 1.69531,-0.44922 0.26563,-0.0703 0.53516,-0.14844 0.77344,-0.23437 0.4375,-0.14453 0.67578,-0.6211 0.53125,-1.0586 -0.14453,-0.4414 -0.62109,-0.67968 -1.05859,-0.53515 -0.44141,0.14844 -0.67969,0.62109 -0.53125,1.05859 0.14453,0.44141 0.61718,0.67969 1.05859,0.53516 0.24219,-0.082 0.51562,-0.20703 0.72656,-0.33985 0.38672,-0.25 0.4961,-0.76953 0.2461,-1.15625 -0.25391,-0.38671 -0.76954,-0.49609 -1.15625,-0.24609 -0.38672,0.25391 -0.4961,0.76953 -0.2461,1.15625 0.25391,0.38672 0.76953,0.49609 1.15625,0.24609 0.10547,-0.0742 0.24219,-0.1875 0.33203,-0.28125 0.32032,-0.32812 0.3125,-0.85156 -0.0156,-1.17187 -0.32422,-0.31641 -0.84766,-0.30859 -1.16797,0.0156 -0.32031,0.32813 -0.3125,0.85157 0.0156,1.17188 0.32813,0.3164 0.85157,0.3125 1.16797,-0.0156 -0.0312,-0.19922 -0.0625,-0.42578 -0.14843,-0.60547 0.0898,-0.16406 0.0273,-0.37109 -0.13672,-0.46093 -0.16797,-0.0898 -0.375,-0.0312 -0.46485,0.13672 -0.16015,-0.0391 -0.28906,-0.14063 -0.43359,-0.22657 -0.0195,0.0234 -0.0156,0.0117 -0.0586,0.0352 -0.0859,0.0586 -0.17188,0.0937 -0.34375,0.14844 -0.17969,0.0508 -0.37891,0.0937 -0.62891,0.14062 -0.49609,0.0898 -1.11719,0.1875 -1.78906,0.34375 -0.66407,0.1875 -1.42969,0.46094 -2.15235,0.85156 -1.07422,0.59375 -2.10156,1.34375 -2.83593,1.8711 -0.50391,0.37109 -0.67969,0.52344 -0.90625,0.52734 -0.34766,0.0234 -0.56641,0.0273 -0.72657,-0.14844 -0.44531,-0.33984 -0.70703,-1.04296 -0.94922,-1.98437 -0.23437,-0.90625 -0.39843,-1.99609 -0.57031,-3.05859 -0.15625,-0.9375 -0.24219,-2.09766 -0.75,-2.71485 -0.13281,-0.0937 -0.39844,-0.19922 -0.5625,-0.21484 -0.17187,0.0117 -0.43359,0.0937 -0.55859,0.17578 -0.19141,0.17969 -0.36328,0.51172 -0.39453,0.75781 -0.0352,0.41407 0.0273,1.03907 0.17968,1.60938 0.13672,0.51562 0.35547,1.02344 0.5,1.5039 0.26172,0.91407 0.47266,2.0586 1.13672,2.65235 0.27344,0.23828 0.61328,0.38672 0.94141,0.49218 0.71875,0.22657 1.65625,0.40625 2.21484,0.55079 0.10547,0.043 0.14844,0.0742 0.16407,0.11718 0.008,0.0156 -0.0352,-0.0234 -0.0547,-0.0391 -0.0156,-0.0273 -0.0274,-0.12891 -0.0352,-0.15234 -0.0898,0.14453 -0.35937,0.44922 -0.50781,0.85937 -0.0742,0.17578 -0.14844,0.35547 -0.21484,0.4961 -0.0312,0.0664 -0.0625,0.125 -0.0899,0.16796 -0.0117,0.0195 -0.0273,0.0391 -0.0391,0.0547 -0.0117,0.0195 -0.0312,0.082 0.78125,0.98828 0.60937,-1.34375 0.63672,-1.27734 0.63672,-1.40625 -0.0312,-0.23047 -0.0352,-0.5664 -0.043,-0.93359 -0.008,-0.35547 0.0234,-0.77344 0,-1.23047 -0.0391,-0.51172 -0.0898,-1.02344 -0.13672,-1.55469 -0.0937,-1.08593 -0.19141,-2.18359 0.10547,-3.5039 0.46094,-2.06641 1.64062,-3.94922 2.79687,-5.09766 1.00782,-1.00781 1.66407,-1.72656 3.0625,-2.30078 1.26172,-0.53125 3.30079,-0.82812 4.99219,-1.27734 2.13672,-0.56641 3.8711,-0.92578 5.71094,-1.05078 2.69531,-0.20704 5.08203,0.98828 8.31641,4.29296 3.08203,3.12891 7.0625,7.08204 8.79296,12.70703 0.71875,2.26954 0.61329,4.51172 0.96875,7.00391 0.39063,2.70703 1.19532,5.40625 1.34375,7.53906 0.22266,3.0586 0.73438,5.60547 0.76954,8.46875 0.0508,4.04297 0.16406,9.1211 0.0351,13.10547 -0.0937,2.95703 -0.53515,6.00391 -0.53515,8.96485 -0.004,4.10937 -0.7461,8.66015 -0.84375,13.01171 -0.082,4.31641 -1.58204,10.24219 -3.15625,14.48829 -0.9336,2.52734 -1.72657,4.17968 -3.92969,7.0625 -1.52735,2.01171 -3.6875,4.26953 -5.3086,6.1289 -1.8789,2.17188 -4.42578,3.39844 -6.90625,5.375 -2.16406,1.73438 -4.03906,3.19141 -6.74218,4.36328 -3.13672,1.36328 -5.48047,2.32813 -8.57032,3.05078 -1.48828,0.33985 -3.17187,0.6836 -4.57031,1.25782 -1.875,0.78906 -3.41015,1.66406 -5.73828,2.0039 -3.06641,0.47266 -6.41016,0.65625 -9.48437,0.69532 -4.03125,0.0508 -8.64454,-0.0586 -14.03907,-0.40625 -7.46484,-0.5 -15.28515,-1.23047 -22.91015,-1.96094 -3.73828,-0.35547 -7.60157,-0.64453 -10.94532,-1.09766 -3.49218,-0.46875 -7.34375,-0.96094 -12.54296,-1.30859 -3.01563,-0.20313 -6.14063,-0.3125 -8.875,-0.83594 -1.64063,-0.3125 -3.22657,-0.75 -4.88672,-1.07812 -2.99219,-0.58594 -6.11719,-1.07032 -9.32422,-1.70313 -6.51953,-1.26172 -12.51172,-2.42578 -19.28125,-4.03125 -2.67578,-0.63281 -5.49219,-1.38281 -8.30078,-2.01953 -7.14063,-1.60547 -14.70703,-2.51563 -20.57422,-4.15234 -4.54688,-1.27735 -8.50781,-2.8086 -12.6211,-3.65625 -4.15234,-0.85157 -7.75,-1.30469 -9.96093,-2.08594 -2.22657,-0.76172 -3.33985,-1.44531 -4.44141,-1.97266 -0.23828,-0.12109 -0.53125,-0.0273 -0.65234,0.21485 -0.1211,0.23828 -0.0273,0.52734 0.21093,0.65234 z m 0,0"
       id="path38"
       inkscape:connector-curvature="0" />
  </g>
</svg>
