<?xml version="1.0" encoding="UTF-8" standalone="no"?>
<svg
   xmlns:dc="http://purl.org/dc/elements/1.1/"
   xmlns:cc="http://creativecommons.org/ns#"
   xmlns:rdf="http://www.w3.org/1999/02/22-rdf-syntax-ns#"
   xmlns:svg="http://www.w3.org/2000/svg"
   xmlns="http://www.w3.org/2000/svg"
   xmlns:sodipodi="http://sodipodi.sourceforge.net/DTD/sodipodi-0.dtd"
   xmlns:inkscape="http://www.inkscape.org/namespaces/inkscape"
   width="191.68468pt"
   height="190.27951pt"
   viewBox="0 0 191.68468 190.27951"
   version="1.2"
   id="svg41"
   sodipodi:docname="pic-1.svg"
   inkscape:version="0.92.2 5c3e80d, 2017-08-06">
  <metadata
     id="metadata47">
    <rdf:RDF>
      <cc:Work
         rdf:about="">
        <dc:format>image/svg+xml</dc:format>
        <dc:type
           rdf:resource="http://purl.org/dc/dcmitype/StillImage" />
      </cc:Work>
    </rdf:RDF>
  </metadata>
  <defs
     id="defs45" />
  <sodipodi:namedview
     pagecolor="#ffffff"
     bordercolor="#666666"
     borderopacity="1"
     objecttolerance="10"
     gridtolerance="10"
     guidetolerance="10"
     inkscape:pageopacity="0"
     inkscape:pageshadow="2"
     inkscape:window-width="640"
     inkscape:window-height="480"
     id="namedview43"
     showgrid="false"
     inkscape:zoom="0.22348485"
     inkscape:cx="218.29431"
     inkscape:cy="-162.84439"
     inkscape:window-x="0"
     inkscape:window-y="0"
     inkscape:window-maximized="0"
     inkscape:current-layer="svg41" />
  <g
     id="surface1"
     transform="translate(-142.27927,-83.587202)">
    <path
       style="fill:#424cab;fill-opacity:0.4196;fill-rule:nonzero;stroke:none"
       d="m 242.34375,155.11328 c 0.0156,-0.26562 0.0859,-0.79687 0.10156,-1.30078 0.28125,-2.55469 -1.5625,-4.85547 -4.12109,-5.13672 -2.55469,-0.28125 -4.85156,1.5625 -5.13281,4.12109 -0.28125,2.55469 1.5625,4.85157 4.11718,5.13282 2.55469,0.28125 4.85547,-1.5625 5.13672,-4.11719 -0.004,-0.39453 -0.20312,-1.77344 -0.76562,-2.96875 -1.32813,-2.13672 -4.14063,-2.78906 -6.27735,-1.46094 -2.13672,1.33203 -2.78906,4.14453 -1.45703,6.28125 1.32813,2.13672 4.14063,2.78906 6.27735,1.45703 2.13671,-1.32812 2.78906,-4.14062 1.45703,-6.27734 -1.37891,-1.375 -4.80469,-1.99609 -5.69922,-1.67578 -2.25391,0.99609 -3.26953,3.63281 -2.27735,5.88672 0.9961,2.25 3.63282,3.26953 5.88672,2.27343 2.25,-0.99609 3.26953,-3.6289 2.27344,-5.88281 -0.99609,-2.2539 -3.62891,-3.27344 -5.88281,-2.27734 -1.2461,0.98047 -1.60547,1.57422 -1.65235,1.83594 -0.14843,-0.0352 -0.96484,0.69531 -1.80078,1.62109 -0.77734,1.03125 -1.69531,2.41406 -2.6289,3.87109 -0.58985,0.92578 -1.23047,1.96094 -1.78907,2.91797 -0.89062,1.50391 -1.58984,2.85156 -2.30859,4.26953 -1.41406,2.89453 -3.0625,6.94141 -4.28516,10.76953 -0.99218,3.17188 -1.77734,5.96485 -2.64843,8.53516 -0.52344,1.34375 -1.14063,2.82813 -1.66407,4.24219 -0.53906,1.63672 -0.875,2.9375 -1.13281,3.89844 -0.44531,1.51953 -1.14844,3.65234 -1.49609,5.58593 -0.17188,1.11328 -0.21485,2.2461 -0.19922,2.98047 0.0117,0.4375 0.0625,1.07813 0.12891,1.5586 0.13281,0.5664 0.27343,1.0039 0.39453,1.30468 0.1914,0.39453 1.09375,1.625 2.41797,2.59375 1.13671,0.42188 4.08593,0.25391 5.29296,-0.3789 0.8086,-0.70703 1.61719,-1.86719 1.8125,-2.30078 0.20704,-0.625 0.35157,-1.38282 0.375,-1.67579 -0.0469,-1.23046 -0.10937,-1.64453 -0.14062,-2.01562 -0.0977,-1.19531 -0.082,-3.66406 -0.0703,-6.76172 0.0156,-2.16406 0.0508,-3.62891 0.625,-5.73047 0.20703,-0.71094 0.49218,-1.57031 0.86718,-2.62109 0.69532,-1.95703 1.59375,-4.3086 2.39454,-6.42578 0.5625,-1.49219 1.0664,-2.82813 1.45312,-3.90235 0.375,-1.09375 0.61719,-1.89062 0.76953,-2.41406 0.11719,-0.42578 0.13281,-0.53125 0.14453,-0.58984 -0.0391,-0.0391 0.11719,-0.51563 0.26953,-1.04688 0.10157,-0.28125 0.31641,-0.97265 0.44532,-1.86719 -0.3125,-2.10156 -1.01172,-3.3164 -1.61719,-3.9414 -0.75,-0.53516 -2.42188,-1.10547 -3.1875,-1.14844 -1.16797,0.16797 -2.44922,0.73438 -2.83594,1.00781 -0.5,0.42188 -1.05078,1.03907 -1.32812,1.42578 -0.83594,1.28907 -1.75,3.14063 -2.66016,5.19141 -0.47266,1.06641 -1.02734,2.375 -1.60156,3.85938 -0.73047,1.91015 -1.53125,4.22265 -2.15235,6.38281 -0.41015,1.52734 -0.74218,2.97265 -0.98437,4.16406 -0.58594,2.6875 -0.80469,4.65234 -0.66797,6.11719 0.22656,1.14062 0.56641,1.97656 0.69141,2.26953 0.10547,0.23437 0.0859,0.15234 0.125,0.35156 0.008,0.082 0.0586,0.58594 0.11718,1.17969 0.0312,0.46484 0.0898,1.20312 0.20704,1.90234 0.71093,2 2.25,3.59766 2.46093,3.77735 0.13672,0.10937 -0.14062,-0.15625 -0.21093,-0.19532 -0.1836,-0.28906 0.0117,0.3086 0.24218,1.17188 0.33594,1.26562 0.5586,2.33203 0.86719,3.32422 0.25391,0.76953 0.35547,1.07422 0.44141,1.43359 0.0586,0.33203 0.14453,0.85156 0.23047,1.42578 0.004,0 0.13281,0.70703 0.3789,1.48438 1.23438,2.09765 1.89844,2.69922 1.91016,2.71094 -0.44922,-0.67969 -0.53125,-0.75782 -0.38281,-0.26172 0.28515,0.75781 0.3125,0.80468 0.32031,0.83593 -0.0742,-0.33593 -0.0898,-0.33593 -0.0859,0.0625 0,0.17969 0.004,0.36329 0,0.50782 0.043,0.72656 0.0469,0.72656 0.043,0.63672 0,-0.0742 0.0156,-0.44922 0.0508,-0.76172 0.0859,-0.42578 0.82813,-2.07422 2.01172,-3.29297 6.57031,0.67969 6.73437,0.91797 6.55469,0.58594 -0.45703,-0.78516 -0.61328,-3.48829 -1.9961,-6.36719 -0.7539,-1.52735 -1.54297,-2.80078 -1.85547,-3.6836 0.0547,0.34766 0.12891,0.44141 0.15235,-0.36718 0.008,-0.28907 0.0195,-0.85547 -0.0117,-1.41407 0,-0.16015 -0.14844,-1.25781 -0.45313,-2.16406 -0.65625,-1.20312 -1.73437,-2.375 -2.76953,-3.03515 -3.0664,-0.51172 -5.20703,0.30468 -5.94531,0.89453 -0.57422,0.59375 -1.24609,1.61328 -1.50781,2.19922 -0.39063,1.42968 -0.47266,2.32421 -0.49219,2.82421 -0.043,0.44141 -0.0547,1.32813 0,2.15235 0.10547,1.48047 0.56641,3.63672 1.23828,5.28515 1.13281,2.3086 2.23047,3.50782 2.29297,3.81641 -0.043,0.008 0.004,0.32813 0.19922,0.95703 0.32031,0.7461 0.66016,1.41797 0.94531,1.91406 0.40625,0.625 0.58594,0.88672 0.66016,1.00391 0.14062,0.19141 0.42578,0.53516 0.74219,0.85547 0.75781,0.59375 8.27734,-1.33203 8.92578,-4.01953 -0.0742,-2.9336 -2.51172,-5.2461 -5.44141,-5.17188 -2.92969,0.0742 -5.24609,2.51172 -5.17187,5.44141 0.0781,2.93359 2.51171,5.24609 5.44531,5.17187 2.92969,-0.0742 5.24609,-2.51171 5.16797,-5.4414 -0.22266,-1.4375 -0.45703,-2.07422 -0.53907,-2.27344 -0.13281,-0.30859 -0.33203,-0.72266 -0.53125,-1.13281 -1.12109,-2.07422 -2.92968,-4.01953 -3.7539,-5.41016 -0.8086,-1.24609 -0.67578,-2.83594 -1.67188,-5.61719 -0.44922,-1.125 -0.83593,-2.72656 -1.26172,-4.48437 -0.21093,-0.125 0.0469,-0.40625 0.53907,-1.69922 0.44531,-1.54687 0.54687,-2.21094 0.89062,-2.96094 0.16016,-0.33984 0.4961,-1.0039 0.8125,-1.74218 0.66797,-1.89454 0.6836,-2.55079 0.77735,-2.60157 0.22265,-0.50781 1.33203,-2.21484 2.23437,-3.91406 1.21484,-2.41016 3.07422,-5.30469 4.94531,-8.16016 1.85157,-2.38281 3.6211,-5.35546 5.01172,-8.19531 0.72266,-1.37109 0.98438,-2.40625 1.32422,-2.99609 -0.0586,0.0273 0.23047,-0.35156 0.67969,-1.01953 0.70312,-1.10938 0.98828,-1.71485 1.09375,-1.85938 -0.0156,0.0156 -0.3086,0.36328 -0.58594,0.64063 -0.25,0.17968 -1.27344,0.72656 -2.03906,0.95703 -0.91797,0.082 -3.10156,-0.40625 -3.97656,-0.94922 -1.79297,-2.75391 -1.79688,-2.66016 -1.69532,-2.16406 1.73047,3.24609 3.33985,4.65625 4.04297,5.27734 0.2461,-0.0586 -0.15625,-0.34375 0.32813,1.16406 1.36718,2.81641 2.36328,4.65235 2.76562,7.12891 0.49219,3.41797 1.54688,6.72656 2.44922,9.67969 0.47656,1.54687 0.51563,3.28125 0.8125,6.04687 0.0625,1.01172 0.004,2.05078 -0.0508,3.07422 0.008,0.41797 0.0156,0.75781 0.0234,1.14063 0.008,0.43359 0.0156,0.70312 0.008,0.875 0.0273,-0.33985 0.0625,-0.54688 0.10547,-0.75 0.0547,-0.17969 0.39062,-1.03516 1.08203,-2.10938 0.90625,-0.87109 5.78125,-1.84766 8.05469,-0.625 1.0039,1.18359 1.63672,2.5625 1.73828,2.9375 0.12109,0.94922 0.12109,0.82422 0.15234,0.48047 0.0508,-1.46875 0.46875,-3.51172 0.65625,-6.23828 0.1211,-1.69141 0.16406,-3.65625 0.14063,-5.08594 -0.0352,-1.70703 -0.32032,-3.14453 -0.5,-3.89062 -0.17188,-0.53516 -0.27344,-1.71094 -0.52735,-3.30469 -0.29297,-1.60156 -0.625,-2.78125 -0.89062,-3.74219 -0.20703,-0.73047 -0.50781,-1.94922 -0.91406,-3.15234 -0.24219,-0.63282 -0.52344,-1.25391 -0.71875,-1.62891 -0.24219,-0.46484 -0.39844,-0.72656 -0.46485,-0.82422 -1.42578,-2.49609 -4.60547,-3.36719 -7.10547,-1.9414 -2.49609,1.42578 -3.36328,4.60937 -1.9375,7.10546 1.42578,2.4961 4.60547,3.36719 7.10157,1.94141 2.49609,-1.42578 3.36718,-4.60937 1.9414,-7.10547 0.47656,1.15235 -9.35156,4.5 -9.35156,4.48828 0.0117,0.0156 0.0352,0.0547 0.0703,0.13282 0.0742,0.17187 0.17578,0.42187 0.3086,0.76171 0.26953,0.6875 0.61328,1.60157 0.94921,2.58985 0.85938,2.49609 1.42188,4.35547 1.66797,6.21484 0.59375,2.86328 1.35938,4.2461 1.3086,4.69922 0.0391,0.92969 -0.28907,2.96875 -0.39063,5.43359 -0.20703,1.34766 -1.39062,4.57032 -1.73828,7.89454 -0.19531,1.43359 -0.37109,2.80859 -0.67969,3.84765 -0.16797,0.47266 -0.38281,0.83985 -0.89062,1.8711 -0.58203,1.33593 -1.21875,2.80859 -1.69531,3.8164 -0.29688,0.60938 -0.57032,0.94531 -1.08204,1.86719 -0.59765,1.44141 -1.67968,3.14844 -2.8789,4.95312 -0.88281,1.52344 -1.5625,2.88282 -2.08594,4.10547 -0.26562,0.63282 -0.45703,1.13282 -0.62891,1.52344 -0.15625,0.39844 -0.1289,0.35156 -0.0703,0.21484 0.78906,-1.07031 2.4375,-2.25781 3.53906,-2.64453 1.14063,-0.11718 2.81641,0.14063 3.20704,0.28125 -0.42969,-0.14453 -0.082,0.0312 0.0859,0.11719 1.11719,1.30469 1.54297,1.95703 1.10938,0.9375 -1.78906,-2.69922 -3.75391,-3.97656 -4.40625,-4.41016 -0.50391,-0.33984 -1.41406,-0.89453 -2.22656,-1.28906 -0.66407,-0.29297 -1.89454,-0.69531 -2.98047,-0.84765 -1.23828,-0.0391 -1.8711,0.004 -2.1836,0.0234 0.98828,-0.0469 0.61719,-0.10547 0.0312,-0.13281 -0.38281,0.008 -1.63281,0.23438 -2.6875,0.65234 -1.22265,0.82813 -3.10937,4.09766 -3.21484,5.75391 1.43359,3.44531 1.77734,3.81641 1.87891,3.92578 -0.16407,-0.17187 -0.10157,-0.082 -0.0625,0.0195 -0.34375,-0.66015 -0.46485,-0.90234 -0.41016,-0.58984 0.0156,0.15234 0.14453,0.73047 0.32031,1.29687 0.59766,1.23829 1.08594,1.98438 1.48047,2.47657 0.23438,0.26953 0.79688,0.80468 1.23828,1.15234 0.56641,0.37891 2.44141,1.10156 4.04297,1.22656 5.94922,-6.19922 5.8125,-7.80859 5.6875,-8.49609 -0.16406,-0.59375 -0.32812,-0.99609 -0.45312,-1.36719 -0.14063,-0.64062 -0.27735,-1.47656 -0.34766,-3.01172 -0.004,-0.77343 0.0156,-1.73047 0.0352,-2.7539 0,-1.03125 0,-1.94141 0.0156,-2.94532 -0.0273,-1.03125 -0.043,-1.64062 0.0117,-2.41796 0.0547,-0.75 0.29297,-2.1875 0.50391,-3.88282 0.23437,-2.71093 0.27343,-5.27734 0.33593,-7.4375 0.14063,-3.74218 0.73828,-6 1.47266,-8.25 0.45312,-1.48828 0.91406,-2.96875 1.23437,-4.29687 0.19532,-0.82422 0.32032,-1.47266 0.39844,-1.91406 -0.0117,0.11718 0.0937,-0.22657 0.1836,-0.57422 0.0469,-0.19922 0.1289,-0.67188 0.16406,-1.07422 0.0117,-0.25 -0.0195,-0.90625 -0.0937,-1.3711 -0.14063,-0.5664 -0.90235,-2.07421 -1.67969,-2.92968 -6.46484,-0.375 -7.33594,0.32422 -7.71484,0.71484 -0.50782,0.47656 -1.65625,2.22656 -2.24219,3.81641 -0.24609,0.66406 -0.57813,1.73047 -0.86719,2.875 -0.375,1.58203 -0.72656,3.39453 -1.04297,5.14062 -0.19531,1.10547 -0.38672,2.20703 -0.5625,3.19922 -0.39843,2.04688 -0.72656,3.4375 -1.00781,4.20313 -0.14453,0.39843 -0.0742,0.17578 0.11328,-0.2461 0.47266,-0.65625 1.22656,-1.37109 1.83985,-1.78906 0.88671,-0.39063 3.47656,-0.58203 4.8125,-0.17969 1.05078,0.63672 2.26562,1.96875 2.5625,2.47266 0.18359,0.39453 0.38281,1.01562 0.4375,1.1875 0.0898,0.60547 0.22265,-0.0742 0.55859,-1.37891 0.33594,-1.4375 0.93359,-3.41406 1.5625,-5.60547 0.34375,-1.30078 0.68359,-2.61328 1.01562,-3.92578 0.47266,-2.07422 0.89063,-4.04297 1.27344,-5.66797 0.32422,-1.26172 0.64453,-2.35937 0.875,-3.17968 0.15625,-0.51172 0.36719,-1.19532 0.52735,-2.10938 -0.29297,-2.62891 -2.05079,-5.05078 -2.9961,-5.63672 -0.96484,-0.38281 -1.55859,-0.5039 -1.32031,-0.43359 -0.67188,-0.10938 0.26172,0.14062 1.19922,0.59375 2.21484,5.76953 2.20703,5.96094 2.48828,5.51953 0.3125,-0.55859 0.0117,-0.16406 -1.70703,1.22656 -2.21485,0.50781 -4.32031,0.0859 -5.23438,-0.41406 -0.70703,-0.58594 -1.55859,-1.69141 -1.78906,-2.12891 -0.24609,-0.67187 -0.41016,-1.46875 -0.43359,-1.65234 0,-0.20703 0,-0.33203 -0.0195,-0.10547 -0.0703,0.72266 -0.2461,2.25781 -0.33594,3.98047 -0.0469,1.26562 -0.0586,2.5625 -0.0312,3.73437 0.11719,2.15235 0.42578,4.09766 0.73828,5.61719 0.28516,1.39844 0.49219,2.53125 0.59375,3.58985 0.0469,0.54687 0.0742,1.1289 0.0898,1.66406 -0.004,0.66797 -0.0508,1.01172 -0.0742,1.55078 0.008,0.66797 0.004,0.94531 -0.0117,1.40234 -0.0625,1.25 -0.26563,2.89844 -0.58985,4.125 -0.26953,1.07813 -0.52734,2.38672 -0.66406,3.53516 -0.0703,0.35937 -0.13281,0.94531 -0.16406,1.44141 0.0156,0.36328 0.1914,1.55078 0.52343,2.5625 0.78907,1.4414 1.91407,2.67187 2.875,3.35156 1.22266,0.58984 4.65625,0.84765 6.52735,0.15234 3.0664,-3.59765 3.46484,-5.20312 3.63672,-6.26172 0.17968,-1.5 0.375,-3.67187 0.48828,-5.50781 0.0781,-1.05078 0.14453,-1.99609 0.17578,-2.66797 0.0234,-0.10547 0.0586,-0.30078 0.0859,-0.4414 0.0117,-0.0625 0.0273,-0.14063 0.0937,-0.55079 0.39062,-3.13281 -1.83594,-5.99218 -4.97266,-6.38281 -3.13672,-0.39062 -5.99609,1.83203 -6.38672,4.96875 -0.39062,3.13672 1.83594,5.9961 4.97266,6.38672 3.13672,0.39063 5.99609,-1.83594 6.38672,-4.97266 -10.75,-3.35937 -11.21094,-2.16406 -11.22657,-2.10937 -0.008,0.0352 -0.0156,0.0703 -0.0273,0.10547 -0.38281,1.125 -1.30859,5.29297 -2.16797,9.4414 -0.61719,2.85157 -1.42187,5.76954 -1.94922,7.57422 -0.2539,0.87891 -0.45312,1.66016 -0.57422,2.21485 0.0391,-0.27344 -0.004,0.0195 -0.0312,0.27734 -0.0273,0.41797 0.46485,3.10156 4.55079,6.81641 5.43359,-0.75391 7.33203,-2.63672 7.54687,-2.98828 0.125,-0.23047 0.25,-0.48438 0.29297,-0.57813 0.11719,-0.26562 0.20312,-0.48828 0.30469,-0.72656 0.23437,-0.6875 0.85937,-2.19141 1.38281,-3.51172 0.35156,-0.92188 0.51172,-1.4375 0.55859,-1.61328 -0.0703,0.10937 -0.48047,0.66406 -1.05078,1.2539 -0.52734,0.40235 -2.82812,1.34375 -4.82812,1.36719 -1.0586,-0.27344 -2.88672,-1.32031 -3.52735,-1.9414 -0.44922,-0.58204 -1,-1.58594 -1.15234,-1.97657 -0.35156,-1.91406 -0.45313,-1.59765 -0.63672,-0.85547 -0.23437,0.63282 -0.53125,1.37891 -0.82422,2.09766 -0.28125,1.11719 -0.44531,1.73828 -0.53515,1.88281 0.26953,0.0703 0.72265,-0.46875 1.70312,-1.73828 -1.89453,2.65235 -1.28125,6.33985 1.375,8.23438 2.65234,1.89453 6.34375,1.28125 8.23828,-1.375 1.89453,-2.65235 1.27735,-6.33985 -1.375,-8.23828 -2.65625,-1.89454 -6.34375,-1.27735 -8.23828,1.3789 2.17969,-1.69922 9.89844,1.07031 10.12891,2.14844 -0.69922,-2.94922 -3.65625,-4.77344 -6.60938,-4.07422 -2.94922,0.69922 -4.77344,3.66016 -4.07422,6.60938 0.69922,2.94921 3.66016,4.77343 6.60938,4.07421 2.94922,-0.69921 4.77344,-3.65625 4.07422,-6.60937 -0.0469,0.50391 -0.14453,0.9375 -0.27735,1.01172 -0.0859,-2.80469 -2.42578,-5.00391 -5.22656,-4.91797 -2.80469,0.0859 -5.00391,2.42578 -4.91797,5.22656 0.0859,2.80078 2.42578,5.00391 5.22656,4.91797 2.80079,-0.0859 5.00391,-2.42578 4.91797,-5.22656 -0.55859,0.0273 -1.09765,-0.33985 -1.61718,-1.11328 0.082,-1.88282 -1.37891,-3.47657 -3.26172,-3.5625 -1.88282,-0.082 -3.47657,1.3789 -3.5586,3.26172 -0.58984,0.74609 -1.16406,1.29296 -1.70703,1.72265 -0.13281,0.17188 -0.22265,0.67188 -0.26172,1.21485 0.23828,1.11718 7.96875,3.89453 10.16407,2.17578 1.01171,-1.31641 1.51171,-2.01172 1.83593,-2.20313 0.0586,-0.50781 0.125,-1.18359 0.23828,-2.01953 0.0234,-0.61328 0.14844,-1.73047 0.21094,-2.76562 0.125,-1.10547 0.21875,-2.4375 0.14453,-3.53516 -0.49218,-2.09766 -1.0664,-3.14453 -1.54297,-3.76172 -0.66406,-0.64453 -2.51953,-1.70703 -3.61328,-1.98437 -2.0664,0.0117 -4.4414,0.98828 -5.05859,1.46484 -0.74609,0.74609 -1.37109,1.61719 -1.62109,2.03906 -0.47266,0.80078 -0.88282,1.61328 -1.23829,2.3086 -0.58984,1.05468 -1.35937,2.46875 -1.85156,3.3125 -0.23047,0.52343 -0.30859,0.70312 -0.28515,0.64062 0.0195,-0.043 0.1289,-0.26172 0.23828,-0.46484 0.20312,-0.32813 2.08984,-2.19922 7.55468,-2.94141 4.04297,3.70313 4.53125,6.37109 4.50782,6.76172 -0.0234,0.22656 -0.0586,0.47266 -0.0664,0.51953 -0.004,-0.29687 0.004,-0.5625 0.125,-1.26562 0.34375,-1.79297 1.04688,-5.07813 1.5625,-8.34766 0.61328,-4.15234 1.26563,-8.21094 1.30859,-8.92578 -0.0117,0.0625 -0.008,0.0469 -0.0117,0.0547 -0.004,0.0195 -0.46094,1.20312 -11.21485,-2.15235 0.0625,-0.39453 0.0625,-0.38281 0.043,-0.28515 -0.0391,0.17578 -0.11719,0.5664 -0.19531,1.03515 -0.17188,0.92969 -0.33203,1.8711 -0.50781,2.89063 -0.32032,1.68359 -0.6875,3.46875 -1.03125,4.63672 -0.1836,0.89062 -0.0898,0.60937 0.52343,-0.66797 3.7461,-2.39063 6.96875,-2.16016 7.99219,-1.69141 0.76172,0.5625 1.69922,1.58203 1.95703,1.96484 0.58985,1.4961 0.71485,2.26172 0.71485,2.26172 -0.0664,-0.14062 -0.1211,-0.11718 -0.17188,-0.33203 -0.0703,-0.55469 -0.0703,-1.13672 -0.008,-2.01172 0.23047,-1.9414 0.30469,-4.55859 0.17187,-6.39062 -0.043,-0.69531 -0.10547,-1.19922 -0.15234,-1.5625 -0.0352,-0.10156 -0.0625,-0.64844 -0.13281,-1.53125 -0.0234,-0.6211 -0.0742,-1.48438 -0.14844,-2.33594 -0.19922,-1.60547 -0.51563,-3.22656 -0.83984,-4.70312 -0.26954,-1.27344 -0.46875,-2.39454 -0.54297,-3.875 -0.0352,-0.8711 -0.043,-1.85938 -0.0234,-2.85547 0.0664,-1.30078 0.21094,-2.55469 0.30078,-3.48438 0.0391,-0.50781 0.0586,-1.08984 0.0312,-1.58984 -0.0273,-0.33203 -0.21484,-1.23438 -0.49219,-1.96875 -0.24218,-0.47656 -1.11718,-1.60156 -1.84375,-2.20313 -0.93359,-0.51562 -3.0625,-0.9414 -4.01172,-0.84765 -3.2539,1.92968 -3.95703,3.00781 -4.21484,3.48828 -0.32812,0.54297 -1.14844,2.28515 -1.30078,4.95312 3.53516,4.3125 4.66016,4.59375 4.88672,4.63672 -0.35547,-0.0312 -0.82813,-0.13672 -1.70313,-0.46875 -0.85156,-0.53906 -2.53906,-2.88281 -2.82422,-4 0.11719,-1.875 0.0742,-1.83984 -0.14843,-1.22656 -0.32422,0.87891 -0.76953,2.15625 -1.23438,3.64844 -0.54687,1.83203 -1.08594,3.83984 -1.63672,5.77734 -0.33203,1.22266 -0.68359,2.46484 -1.03515,3.69531 -0.58203,2.08985 -1.22657,4.3125 -1.66797,6.26172 -0.33594,1.9336 -0.48438,3.88672 -0.36719,5.21875 0.15625,0.91016 0.39844,1.67188 0.63281,2.17578 0.34766,0.60938 1.625,2.00782 2.73828,2.67578 1.40235,0.4336 4.06641,0.23438 5.02735,-0.19531 0.69531,-0.46094 1.53125,-1.2539 1.80859,-1.62109 0.69922,-1.19141 1.02344,-2.09375 1.19141,-2.71094 0.375,-1.27344 0.79687,-3.26172 1.1875,-5.52344 0.18359,-1.07031 0.36719,-2.17968 0.54687,-3.2539 0.28516,-1.69141 0.5625,-3.26172 0.83594,-4.4961 0.19922,-0.76562 0.36328,-1.28125 0.53516,-1.72265 0.29297,-0.86328 -0.17188,-0.0977 -0.41016,0.1875 0.39063,-0.375 -0.0898,0 -0.92969,0.46093 -6.13672,-1.77343 -6.88281,-3.2539 -7.01953,-3.78906 -0.0664,-0.42969 -0.0937,-1.03906 -0.0859,-1.23828 0.0312,-0.29687 0.0859,-0.625 0.0977,-0.65625 0.0117,-0.004 -0.0195,0.11328 -0.0898,0.39844 -0.19141,0.78515 -0.28907,1.1914 -0.42969,1.67969 -0.28125,0.8125 -0.76563,2.01171 -1.3125,3.4414 -0.97656,2.53906 -2.08594,6.39453 -2.47266,11.17969 -0.16015,2.32422 -0.28125,4.59766 -0.53515,6.61328 -0.23047,1.15234 -0.58203,2.67188 -0.82813,4.18359 -0.11328,1.59766 -0.10156,2.78907 -0.0781,3.66016 -0.008,0.87891 0.004,1.88672 0.0117,2.83984 0.004,0.94922 0.008,2.02735 0.0352,3.00391 0.0195,2.02344 0.16406,3.66406 0.28516,4.64844 0.0547,0.75781 0.0703,1.13281 0.043,1.42578 0.0703,0.46875 0.0703,0.0352 0.50781,-2.125 6.84375,-3.51172 8.61328,-2.83203 9.0625,-2.53906 0.32422,0.26172 0.75781,0.67578 0.85937,0.79687 0.12891,0.1875 0.33985,0.51172 0.35157,0.54688 0.33593,0.82812 0.32812,0.86328 0.23828,0.61328 -0.1211,-0.32813 -0.36719,-1.04688 -0.69531,-1.73438 -0.60157,-1.07031 -1.0586,-1.71484 -1.35547,-2.09765 -0.54297,-0.64453 -0.4961,-0.58203 -0.0977,-0.0547 0.79688,4.3125 -1.06641,7.53906 -2.23828,8.33984 -0.99609,0.39063 -2.16797,0.60547 -2.44922,0.60938 -0.38281,-0.0352 -0.46094,-0.0625 -0.19922,-0.0664 1.33203,-0.0586 1.40235,-0.0859 1.44141,-0.0937 -0.8711,-0.0937 -1.375,-0.23047 -1.22266,-0.16406 0.0781,0.0312 0.28516,0.16406 0.66016,0.42187 1.28515,0.82422 0.90625,0.32032 0.60937,0.17579 -0.28906,-0.60938 0.36328,1.03515 1.94532,2.7539 1.10937,0.78906 2.26171,1.35156 3.03515,1.61328 0.0508,0.0312 1.92188,0.32422 3.23438,0.16797 1.28125,-0.42187 3.08203,-1.72656 3.625,-2.38672 0.67968,-1.15625 0.92578,-1.74218 1.04297,-2.04687 0.17968,-0.41016 0.3789,-0.92969 0.57421,-1.38672 0.375,-0.89063 0.75391,-1.65625 1.26563,-2.55078 1.08594,-1.58594 2.63672,-4.04297 3.51953,-6.04297 -0.0664,0.12891 0.39844,-0.58594 1.03125,-1.89063 0.58984,-1.27734 1.27344,-2.88281 1.82031,-4.16015 0.45703,-1.15235 0.89844,-2.39063 1.1836,-3.60156 0.45312,-1.89844 0.6875,-3.98047 0.85547,-5.64844 0.0469,-1.87891 1.10937,-4.86328 1.54687,-8.06641 0.0625,-2.42969 0.37109,-4.96484 0.1875,-7.64844 -0.64062,-2.91406 -1.41016,-4.0664 -1.62109,-5.19921 -0.4336,-2.40625 -1.32422,-5.15625 -2.25782,-7.64063 -0.28125,-0.94922 -0.64062,-2.04687 -0.89062,-2.80078 -0.125,-0.37891 -0.23438,-0.70313 -0.30078,-0.90625 -0.0312,-0.10547 -0.0625,-0.20313 -0.082,-0.26563 -0.0312,-0.0898 -9.86719,3.23829 -9.76563,3.57422 0.41797,0.92578 0.4375,0.97266 0.47656,1.07422 -0.0273,0.008 0.0156,0.16406 0.0898,0.45703 0.21875,0.6875 0.41015,1.58985 0.64844,2.55469 0.30468,1.08984 0.49609,1.72656 0.68359,2.76563 0.18359,1.14062 0.34766,2.75781 0.74219,4.30078 0.18359,0.59765 0.24609,0.5664 0.26172,1.17187 -0.0469,1.07422 -0.14063,2.61719 -0.3086,4.00781 -0.25,1.97266 -0.80078,3.88672 -1.1289,6.25782 -0.0586,0.78125 -0.0742,1.57031 -0.043,2.12109 0.23047,1.25391 0.87109,2.65234 1.89062,3.84766 2.27735,1.22265 7.16016,0.24609 8.07813,-0.64453 0.71093,-1.09375 1.07422,-2.01563 1.14843,-2.28907 0.0937,-0.39062 0.17969,-0.91406 0.21485,-1.2539 0.043,-0.82422 0.0391,-1.33203 0.0352,-1.69532 0.008,-0.30078 0.0156,-0.64062 0.0273,-1.00781 -0.0391,-1.01562 -0.0898,-2.67187 -0.30078,-4.33594 -0.33594,-2.5664 -0.56641,-5.24609 -1.41016,-8.05078 -1,-3.08203 -1.875,-5.52343 -2.28125,-8.22265 -0.81641,-4.08203 -2.45312,-7.39453 -3.55859,-9.53907 -0.35938,-1.03906 -1.70313,-3.63281 -3.94141,-5.32812 -0.26562,-0.26953 -0.73437,-0.53125 -0.75,-0.71484 0.55469,1.41015 0.47656,0.96484 0.24219,0.20703 -2.70313,-3 -5.05078,-3.51953 -6.14063,-3.40235 -0.9375,0.26563 -2.14453,0.92188 -2.59765,1.27735 -0.52735,0.48828 -1.10157,1.19531 -1.36328,1.58984 -0.51172,0.82422 -0.77735,1.40234 -0.9375,1.63281 -0.0586,0.004 -0.60157,0.59766 -1.17969,1.40625 -1.0625,1.89844 -1.36328,2.91016 -1.71875,3.42188 -1.3711,2.70312 -2.58203,4.69922 -4.37891,6.95312 -2.14062,3.33594 -4.22656,6.71094 -5.625,9.5625 -0.57812,1.10547 -1.74219,2.89844 -2.48437,4.41016 -0.71094,1.83984 -0.75782,2.61719 -0.94532,3.01953 -0.0586,0.125 -0.32031,0.625 -0.63281,1.27734 -0.76953,1.79688 -1.12109,3.27344 -1.34765,4.04688 -0.46485,1.23047 -1.2461,4.40625 -0.75391,7.45703 0.45703,1.87891 1.01953,4.10938 1.74219,5.98828 0.41406,0.73828 0.55078,3.46485 2.36328,7.04688 1.61328,2.58593 3.30469,4.39062 3.4375,4.88281 0.26562,0.49219 0.39062,0.71094 0.42969,0.76953 0.004,-0.0117 -0.17969,-0.52734 -0.40625,-1.92187 0.65234,-2.67188 8.16015,-4.59375 8.89453,-4.02735 0.29297,0.30078 0.54297,0.59766 0.58593,0.66016 -0.0937,-0.10938 -0.22265,-0.26953 -0.33593,-0.41797 0.0859,0.125 0.0508,0.0625 -0.0742,-0.23047 -0.12891,-0.21094 -0.44141,-0.95312 -0.88281,-1.76172 -1.12891,-1.8125 -1.88282,-2.42969 -2.23829,-3.22265 -0.26953,-0.48047 -0.43359,-1.16407 -0.49218,-1.82032 -0.0391,-0.47656 -0.043,-0.49218 -0.0117,-0.85156 0.0195,-0.5 0.004,-0.44141 -0.008,-0.30859 -0.32422,0.86328 -0.79688,1.58203 -1.14844,1.96875 -0.51953,0.38672 -2.41797,1.10156 -3.65625,1.12109 -2.26953,-0.98047 -2.9961,-1.76172 -3.16406,-2.00781 -0.39844,-1.04688 -0.5,-1.69922 -0.50391,-1.66406 0.0195,0.33593 0.008,0.41015 -0.004,0.74218 -0.0156,0.82032 0.0156,2.40235 0.44141,3.9375 0.81641,2.02735 1.78516,3.60157 2.39844,4.84766 0.48437,0.64062 0.51172,3.12109 1.625,6.10937 0.60937,1.2461 1.51172,2.55469 3.2539,3.85547 6.40235,-1.68359 7.16016,-3.38281 7.25782,-3.875 0.043,-0.38281 0.0625,-0.85156 0.0586,-1.03125 -0.0117,-0.30859 -0.0352,-0.58984 -0.0469,-0.73828 0.0234,0.3125 0.0234,0.0352 0.0234,-0.21094 -0.0195,-0.77343 -0.11719,-1.83593 -0.3164,-2.70703 -0.24219,-0.78125 -0.41016,-1.1875 -0.50391,-1.42578 -0.0156,-0.125 -0.50781,-1.50781 -1.29297,-2.73437 -0.91797,-1.0586 -0.88672,-0.97657 -0.59375,-0.66016 0.54297,1.23438 0.57031,1.21094 0.5,0.72656 -0.29297,-1.04297 -0.58984,-1.92187 -0.87891,-2.625 -0.32421,-0.77343 -0.5664,-1.21875 -0.71484,-1.48828 -0.0781,-0.17578 -0.29297,-1.08984 -0.71484,-2.5625 -0.34766,-1.21484 -0.9336,-2.80469 -1.58985,-3.96875 -0.91797,-1.19922 -1.71484,-1.88672 -2.04297,-2.125 -0.39843,-0.26953 0.69922,1.03516 1.01954,1.66016 0.0859,0.39453 0.0664,0.10156 0.0156,-0.48047 -0.0703,-0.70703 -0.16016,-1.53125 -0.28125,-2.25781 -0.25,-1.03907 -0.54687,-1.83203 -0.73047,-2.2461 -0.17187,-0.3789 -0.10156,-0.10937 -0.0195,0.14844 -0.0312,0.13281 0.0273,-0.30469 0.57031,-2.76953 0.23047,-1.13281 0.5,-2.31641 0.84375,-3.59766 0.52344,-1.82422 1.19922,-3.77343 1.86328,-5.51562 0.51954,-1.33203 0.98829,-2.42969 1.44532,-3.45313 0.82422,-1.9414 1.44922,-3.28125 1.76562,-3.78515 -0.10547,0.15234 -0.41797,0.5 -0.74219,0.78906 -0.30078,0.20703 -1.51171,0.74219 -2.625,0.91016 -0.73828,-0.043 -2.39062,-0.60938 -3.1289,-1.12891 -0.57813,-0.60547 -1.26953,-1.80078 -1.42969,-2.29297 -0.0273,-2.28906 0.0664,-2.63281 0,-2.51562 -0.15625,0.23437 -0.43359,0.67578 -0.72656,1.22656 -0.23047,0.64062 -0.31641,0.91015 -0.38672,1.12109 -0.13672,0.38672 -0.34375,0.9961 -0.6875,1.92188 -0.34766,0.95703 -0.83984,2.23828 -1.40625,3.73047 -0.79688,2.10546 -1.73047,4.54296 -2.46875,6.62109 -0.40625,1.14062 -0.78125,2.27344 -1.07813,3.29297 -0.8125,3.13281 -0.98046,5.9414 -1.0039,8.24609 -0.0977,3.03906 -0.19531,5.7461 -0.16016,7.57031 0.0664,0.82032 0.12891,1.3086 0.13672,1.4336 0.008,-0.97656 0.13672,-1.64453 0.32031,-2.21485 0.1875,-0.41015 0.98438,-1.55078 1.77735,-2.24609 1.19922,-0.62891 4.13281,-0.79297 5.25781,-0.37891 1.29297,0.94922 2.16406,2.13672 2.32031,2.45313 0.0859,0.22656 0.19531,0.55469 0.21875,0.63672 0.0547,0.33984 0.0352,0.24609 0.0117,-0.0156 -0.0586,-0.43359 -0.0937,-0.52343 -0.0547,-0.9414 0.11328,-0.97266 0.65235,-2.66016 1.14844,-4.51563 0.26563,-1.11328 0.48828,-2.09375 0.89844,-3.42187 0.33594,-1.19922 0.82812,-2.66016 1.30859,-4.22657 0.9336,-2.875 1.71094,-5.76953 2.625,-8.80859 1.03906,-3.48047 2.39844,-6.97266 3.6211,-9.59766 0.63281,-1.44921 1.10546,-2.53515 1.76953,-3.80468 0.45312,-0.79688 1,-1.6875 1.5664,-2.58985 0.875,-1.43359 1.60547,-2.59765 2.14844,-3.35937 0.39453,-0.69922 0.60938,-1.0625 0.76563,-1.35547 0.55859,-0.4375 0.41406,-0.10156 -0.73047,0.83203 -0.86328,0.30859 -4.27344,-0.3125 -5.64453,-1.67578 -0.54688,-1.17188 -0.74219,-2.51563 -0.75,-2.86328 0,-0.40235 0.0234,-0.76172 -0.043,-0.76563 -0.85157,2.53907 0.51562,5.28907 3.05468,6.14063 2.53907,0.85156 5.28516,-0.51563 6.14063,-3.05469"
       id="path2"
       inkscape:connector-curvature="0" />
    <path
       style="fill:#1747b3;fill-opacity:1;fill-rule:nonzero;stroke:none"
       d="m 204.29687,139.67969 c 0.0977,-0.32813 0.10157,-0.73828 -0.004,-1.0625 -0.0781,-0.2461 -0.33985,-0.38282 -0.58594,-0.30469 -0.24609,0.0781 -0.37891,0.33984 -0.30078,0.58594 0.0781,0.24609 0.33984,0.3789 0.58203,0.30078 0.24609,-0.0781 0.38281,-0.33985 0.30469,-0.58203 -0.11328,-0.31641 -0.34766,-0.66016 -0.64453,-0.9336 -0.17969,-0.17187 -0.46094,-0.16406 -0.62891,0.0117 -0.17187,0.17969 -0.16406,0.46094 0.0117,0.63281 0.17969,0.16797 0.46094,0.16407 0.63281,-0.0156 0.16797,-0.17969 0.16406,-0.46094 -0.0156,-0.62891 -0.58203,-0.53125 -1.55078,-1.05078 -2.90235,-1.54687 -0.20703,-0.0781 -0.44531,0.0273 -0.52343,0.23828 -0.0781,0.21094 0.0273,0.44531 0.23828,0.52734 0.21093,0.0781 0.44531,-0.0273 0.52343,-0.23828 0.082,-0.21094 -0.0273,-0.44531 -0.23828,-0.52734 -1.30468,-0.55078 -3.02734,-1.09766 -5.17968,-1.47266 -2.77344,-0.48828 -6.3711,-0.8164 -10.35938,-0.46875 -1.76953,0.14844 -3.64062,0.45703 -5.49219,0.96485 -2.33984,0.70703 -4.70312,1.74609 -6.88281,2.91406 -1.69922,0.88672 -3.31641,1.87109 -4.82031,2.9414 -1.10547,0.76954 -2.16016,1.60157 -3.1836,2.52735 -1.42968,1.30469 -2.83984,2.80469 -4.18359,4.43359 -1.03125,1.27735 -2.03516,2.64453 -2.97656,4.03125 -1.5,2.1875 -2.83203,4.44922 -4.13672,6.95703 -1.35547,2.60157 -2.69922,5.49219 -4.03906,8.59766 -0.72266,1.72656 -1.38672,3.46875 -2,5.28125 -1.09375,3.22656 -2.06641,6.67969 -2.89063,10.1875 -0.44531,1.95703 -0.8125,3.85547 -1.09375,5.67187 -0.48828,3.1211 -0.77734,6.08594 -0.9375,8.89063 -0.47265,6.09766 -0.46484,11.50781 0.7461,16.86719 0.44921,1.97265 1.0664,3.98828 1.86328,5.95703 1.24609,2.94922 2.93359,5.89453 4.91015,8.5 1.67969,2.13281 3.5625,4.05078 5.46875,5.69531 2.25391,1.94141 4.625,3.55469 6.96485,4.80469 1.92968,1.01172 3.88281,1.79687 5.89453,2.46875 1.58594,0.53515 3.21875,1.01172 4.96094,1.48437 2.28125,0.65235 4.78125,1.32032 7.28515,1.89453 3.02735,0.67579 6.1211,1.22657 9.02344,1.57813 3.80859,0.53516 7.39844,0.8125 11.06641,0.35937 2.8164,-0.40625 5.67578,-1.28515 8.46875,-2.36328 3.24609,-1.21875 6.47265,-2.73047 9.45312,-4.39062 8.39844,-4.79297 15.61328,-11.0625 21.8125,-17.21094 3.70313,-3.71094 7.12109,-7.75 9.96484,-12.14453 1.42579,-2.17969 2.72657,-4.47266 3.76563,-6.875 0.69141,-1.63281 1.28516,-3.34375 1.72656,-5.01953 0.39453,-1.61719 0.64844,-3.23438 0.80078,-4.91016 0.19922,-2.21484 0.25782,-4.60156 0.28907,-6.92969 0.12109,-2.73437 0.21875,-5.4414 0.0625,-7.94531 -0.26172,-3.71875 -1.12891,-7.04687 -2.75,-10.62109 -0.59766,-1.2461 -1.28516,-2.52344 -2.00391,-3.82031 -1.33594,-2.63282 -2.86328,-5.49219 -4.625,-8.22657 -1.4375,-2.26953 -3.07031,-4.43359 -5.02344,-6.42578 -2.04297,-1.98828 -4.41015,-3.80859 -6.9375,-5.48047 -1.49219,-0.98047 -3.05469,-1.92187 -4.68359,-2.83984 -1.69531,-0.94922 -3.48828,-1.89453 -5.30469,-2.8125 -0.48828,-0.24609 -0.98828,-0.48438 -1.50391,-0.72266 -0.69921,-0.32812 -1.42968,-0.65625 -2.15234,-0.96875 -1.25391,-0.51172 -2.54297,-0.97265 -3.85547,-1.35547 -2.92578,-0.80468 -6.15234,-1.32031 -9.41797,-1.35156 -3.98047,0.008 -8.10547,0.77735 -12.21875,2.55078 -0.23828,0.10157 -0.34765,0.3711 -0.24609,0.60938 0.0977,0.23437 0.37109,0.34375 0.60547,0.24609 0.23437,-0.10156 0.34375,-0.37109 0.24609,-0.60547 -0.0977,-0.23828 -0.37109,-0.34765 -0.60547,-0.25 -0.90625,0.41407 -1.83593,0.86719 -2.78906,1.36719 -0.20703,0.10156 -0.28906,0.35156 -0.18359,0.55859 0.10156,0.20704 0.35547,0.28907 0.55859,0.1875 0.20703,-0.10546 0.28906,-0.35546 0.1875,-0.5625 -0.10547,-0.20703 -0.35547,-0.28906 -0.5625,-0.18359 -0.74609,0.39063 -1.45312,0.79297 -2.09766,1.19141 -0.18359,0.10937 -0.24609,0.34765 -0.13281,0.53125 0.10938,0.18359 0.34766,0.24609 0.53125,0.13672 0.1836,-0.10938 0.2461,-0.35157 0.13281,-0.53516 -0.10937,-0.18359 -0.34765,-0.24219 -0.53125,-0.13281 -0.80859,0.49609 -1.63671,1.03515 -2.48437,1.61328 -0.15625,0.10547 -0.19922,0.3164 -0.0937,0.47265 0.10156,0.15625 0.31641,0.19922 0.47266,0.0977 0.85546,-0.55078 1.68359,-1.05078 2.5039,-1.51562 0.64453,-0.375 1.33594,-0.7461 2.07813,-1.11719 0.95312,-0.46094 1.875,-0.88281 2.77343,-1.25781 4.03516,-1.66407 7.96875,-2.32032 11.84375,-2.2461 3.17188,0.0625 6.23829,0.58985 9.07422,1.41016 1.25391,0.39062 2.47266,0.85937 3.6836,1.38281 0.70703,0.30469 1.41797,0.62109 2.11718,0.94922 0.51172,0.23047 0.98438,0.45703 1.46094,0.69531 1.80078,0.92188 3.5625,1.85938 5.23828,2.8125 1.60938,0.90625 3.13282,1.82422 4.59766,2.78906 2.5,1.63282 4.78125,3.36329 6.76953,5.27344 1.89453,1.91016 3.45313,3.95313 4.87891,6.17578 1.74218,2.69141 3.24218,5.49219 4.58593,8.12891 0.72657,1.30859 1.39844,2.55078 1.97657,3.76172 1.57422,3.47265 2.3789,6.57031 2.62109,10.17187 0.15234,2.4336 0.0547,5.07813 -0.0703,7.82813 -0.0312,2.33984 -0.0898,4.67578 -0.28516,6.84765 -0.16015,1.63282 -0.40625,3.15235 -0.79687,4.70313 -0.42578,1.62109 -0.98828,3.23828 -1.66407,4.82812 -1.00781,2.33594 -2.2539,4.53125 -3.66015,6.67969 -2.80469,4.32031 -6.13672,8.25 -9.80469,11.91797 -6.15625,6.12109 -13.23437,12.28906 -21.51172,17.01953 -2.93359,1.63281 -6.07422,3.10156 -9.27734,4.30078 -2.75781,1.07032 -5.47656,1.91797 -8.17969,2.3125 -3.53125,0.44922 -6.94531,0.1875 -10.73047,-0.33984 -2.88281,-0.34766 -5.91406,-0.88672 -8.90625,-1.55859 -2.48047,-0.56641 -4.95312,-1.22266 -7.22656,-1.875 -1.74219,-0.47266 -3.33984,-0.9375 -4.89844,-1.46875 -1.97656,-0.66407 -3.83594,-1.41016 -5.70312,-2.39454 -2.27344,-1.21875 -4.52344,-2.7539 -6.72266,-4.65625 -1.85937,-1.60546 -3.65625,-3.4414 -5.28125,-5.51562 -1.92578,-2.52344 -3.53906,-5.32813 -4.74609,-8.19922 -0.78516,-1.91016 -1.38672,-3.82031 -1.83594,-5.74609 -1.21484,-5.21875 -1.23438,-10.44141 -0.79297,-16.51172 0.15625,-2.78906 0.4375,-5.69531 0.91797,-8.78516 0.27734,-1.79687 0.63281,-3.65625 1.07422,-5.59375 0.79687,-3.48437 1.73828,-6.89062 2.80469,-10.09375 0.60156,-1.79297 1.25,-3.5 1.96093,-5.21094 1.3125,-3.08984 2.63282,-5.95312 3.96094,-8.53906 1.28516,-2.49219 2.58203,-4.69922 4.05859,-6.86328 0.92579,-1.375 1.89844,-2.71875 2.90235,-3.97656 1.3164,-1.60156 2.67969,-3.05469 4.07422,-4.33203 1,-0.90625 2,-1.70313 3.08203,-2.46094 1.47656,-1.05469 3.03906,-2.00391 4.71484,-2.87891 2.14844,-1.15234 4.42188,-2.15625 6.69141,-2.84375 1.79297,-0.48047 3.57812,-0.76562 5.30859,-0.89843 3.91016,-0.35547 7.37891,-0.043 10.11719,0.43359 2.10937,0.3125 3.75391,0.78125 5.04687,1.27344 1.30079,0.5 2.11719,0.96484 2.57813,1.42968 0.22656,0.21875 0.32422,0.37891 0.375,0.57032 0.0547,0.17968 0.0469,0.28125 -0.0312,0.47265 -0.082,0.25391 0.0547,0.52735 0.30859,0.61328 0.25391,0.0859 0.52735,-0.0508 0.61328,-0.30468 z m 0,0"
       id="path4"
       inkscape:connector-curvature="0" />
    <path
       style="fill:#1747b3;fill-opacity:1;fill-rule:nonzero;stroke:none"
       d="m 297.01562,136.44531 c 0.35938,-0.44922 0.75782,-1.20312 0.84766,-1.99609 0.0273,-0.26172 -0.16406,-0.4961 -0.42578,-0.52344 -0.26172,-0.0273 -0.49609,0.16406 -0.52344,0.42578 -0.0273,0.26172 0.16406,0.4961 0.42578,0.52344 0.26172,0.0273 0.4961,-0.16406 0.52344,-0.42578 0.0703,-0.78906 -0.20703,-1.77735 -1.03906,-2.53516 -0.19141,-0.17187 -0.48828,-0.15234 -0.66016,0.0391 -0.17187,0.19532 -0.15625,0.48829 0.0391,0.66016 0.19141,0.17188 0.48829,0.15625 0.66016,-0.0391 0.17188,-0.19141 0.15625,-0.48828 -0.0391,-0.66016 -1.1836,-0.97265 -3.625,-1.625 -7.4961,-1.71094 -0.27343,-0.004 -0.5,0.21094 -0.50781,0.48829 -0.004,0.27343 0.21485,0.5 0.48828,0.5039 0.27344,0.008 0.5,-0.21094 0.50782,-0.48437 0.004,-0.27735 -0.21485,-0.50391 -0.48829,-0.50782 -2.72265,-0.0352 -6.13281,0.10157 -9.95312,0.52735 -4.6875,0.55469 -10.05859,1.54297 -15.28125,2.98437 -3.30859,0.91016 -6.46094,1.96875 -9.53125,3.23047 -1.38281,0.5586 -2.78125,1.16406 -4.09766,1.79688 -2.47265,1.20703 -4.73437,2.55859 -6.97265,4.20703 -1.1211,0.82031 -2.24219,1.71484 -3.35547,2.68359 -1.46094,1.28516 -2.91406,2.69922 -4.38281,4.1875 -1.13282,1.1211 -2.29297,2.30469 -3.42969,3.4961 -1.15235,1.20703 -2.30469,2.45312 -3.37891,3.65625 -2.97265,3.35156 -5.25781,6.38281 -7.23047,9.60546 -1.09765,1.78125 -2.11718,3.65625 -3.10156,5.67969 -1.21484,2.48047 -2.38281,5.17578 -3.37891,7.82422 -0.67187,1.76563 -1.27734,3.53516 -1.7539,5.1875 -0.77735,2.79297 -1.17188,5.33594 -1.21485,7.76953 -0.0586,0.98438 -0.0664,2.01172 0.0273,3.07031 0.41797,3.44532 1.62109,7.46875 3.1914,10.94922 1.73829,3.79297 4.10547,6.64844 6.8125,9.07422 2.41016,2.17969 5.11329,4.16797 8.22266,5.96875 2.83203,1.60938 6.07813,3.10547 9.41406,4.42969 2.10547,0.83984 4.25782,1.62891 6.3125,2.25781 2.38672,0.71875 4.65625,1.20313 6.9961,1.48828 3.23828,0.37891 6.79687,0.48438 10.3164,0.35938 3.54688,-0.125 7.0625,-0.57031 10.42188,-1.26563 2.55469,-0.5664 5.05859,-1.26562 7.54687,-1.98437 4.61719,-1.2461 9.3125,-2.45313 13.51953,-4.11719 2.67579,-1.11328 5.16797,-2.45312 7.44532,-3.875 2.24218,-1.38672 4.29687,-2.83203 6.3164,-4.37109 2.94922,-2.16407 6.04297,-4.6836 8.90235,-7.41016 2.01562,-1.95703 3.91015,-4.07422 5.45312,-6.19922 1.50391,-2.125 2.69531,-4.28125 3.79297,-6.55859 1.14453,-2.29297 2.21875,-4.8086 3.23438,-7.625 0.4414,-1.1875 0.87109,-2.42969 1.28515,-3.73828 0.42969,-1.36719 0.85156,-2.81641 1.21094,-4.26172 0.46094,-1.91016 0.83594,-3.875 1.04297,-5.76563 0.23437,-1.80859 0.3125,-3.63281 0.14062,-5.48047 -0.19922,-1.4414 -0.54687,-2.89453 -0.98047,-4.38671 -0.52343,-1.99219 -1.2539,-4.14844 -2.125,-6.39844 -0.82421,-2.26172 -1.8125,-4.67578 -3.01562,-7.07813 -0.95703,-1.875 -2.0625,-3.78906 -3.26172,-5.58203 -1.10547,-1.66015 -2.33984,-3.24219 -3.72656,-4.71875 -0.57031,-0.59375 -1.15625,-1.17578 -1.73828,-1.72265 -0.44532,-0.4336 -0.92578,-0.86719 -1.41407,-1.27344 -0.61718,-0.51172 -1.26562,-1.00781 -1.91406,-1.47266 -1.08984,-0.78125 -2.27734,-1.47265 -3.53515,-2.03125 -1.98829,-0.85937 -4.2461,-1.45703 -6.6836,-1.66406 -0.38672,-0.0352 -0.73047,0.25 -0.76953,0.63672 -0.0352,0.38672 0.25,0.73437 0.63672,0.76953 0.38672,0.0391 0.73047,-0.24609 0.76953,-0.63281 0.0352,-0.39063 -0.24609,-0.73438 -0.63672,-0.77344 -3.21875,-0.26563 -6.91015,0.12109 -10.96875,1.42187 -0.27344,0.0859 -0.42578,0.375 -0.34375,0.64844 0.082,0.27344 0.375,0.42969 0.64844,0.34375 0.27344,-0.082 0.42578,-0.37109 0.34375,-0.64453 -0.082,-0.27734 -0.375,-0.42969 -0.64844,-0.34766 -1.08984,0.35157 -2.24219,0.76954 -3.44922,1.25782 -0.25,0.10156 -0.37109,0.38281 -0.27343,0.63281 0.10156,0.25 0.38281,0.375 0.63281,0.27344 0.2539,-0.0977 0.375,-0.38282 0.27344,-0.63282 -0.0977,-0.25 -0.38282,-0.37109 -0.63282,-0.27343 -2.0625,0.875 -4.1289,1.92578 -6.07031,3.10156 -0.16016,0.0937 -0.21875,0.30469 -0.125,0.46875 0.0937,0.16016 0.30469,0.21875 0.46875,0.125 1.96484,-1.07813 4.01563,-2.01563 6.08984,-2.78906 1.19532,-0.46094 2.31641,-0.84766 3.39063,-1.17188 3.98437,-1.15234 7.44141,-1.39453 10.52344,-1.00781 2.3164,0.25 4.3125,0.84375 6.16797,1.72266 1.17968,0.52343 2.22265,1.13671 3.25,1.88281 0.625,0.44531 1.22265,0.91015 1.8164,1.40234 0.45313,0.38672 0.88281,0.78125 1.3125,1.21094 0.57031,0.54687 1.1211,1.10547 1.66797,1.68359 1.33594,1.41407 2.48438,2.88672 3.55859,4.4961 1.16407,1.74609 2.21485,3.57812 3.14454,5.41797 1.16796,2.33593 2.11718,4.66406 2.92968,6.91406 0.8711,2.23437 1.57032,4.30078 2.08985,6.25781 0.4414,1.47266 0.76953,2.80859 0.96093,4.12891 0.16797,1.69531 0.10157,3.33593 -0.12109,5.09375 -0.20312,1.83593 -0.55469,3.70703 -1.00781,5.57031 -0.33985,1.42187 -0.73438,2.82422 -1.14844,4.17578 -0.39062,1.29297 -0.79297,2.50391 -1.21875,3.68359 -1,2.78125 -2.03906,5.21094 -3.16406,7.46875 -1.09375,2.24219 -2.23047,4.27735 -3.69141,6.31641 -1.49609,2.04688 -3.3125,4.05078 -5.29687,5.95313 -2.79297,2.71093 -5.78907,5.1875 -8.69141,7.36328 -2.01172,1.51953 -4.00781,2.91015 -6.22266,4.26562 -2.23828,1.39453 -4.62109,2.67188 -7.21484,3.75 -4.09375,1.64844 -8.70312,2.85547 -13.33594,4.13672 -2.48828,0.72656 -4.94531,1.42188 -7.44922,1.98438 -3.29296,0.69921 -6.68359,1.14843 -10.16796,1.28515 -3.46875,0.12891 -6.92579,0.0273 -10.09766,-0.33984 -2.28125,-0.26172 -4.43359,-0.70703 -6.76563,-1.39453 -2.01953,-0.61328 -4.12109,-1.38282 -6.21484,-2.21485 -3.3125,-1.28515 -6.49219,-2.71875 -9.27734,-4.27343 -3.05078,-1.75782 -5.64453,-3.66407 -8.01172,-5.80079 -2.64453,-2.36328 -4.84766,-5.01171 -6.51172,-8.66406 -1.55078,-3.39062 -2.72266,-7.24609 -3.13672,-10.55859 -0.0898,-0.98047 -0.0859,-1.91797 -0.0312,-2.89844 0.0352,-2.375 0.39844,-4.76953 1.15234,-7.49219 0.46094,-1.625 1.03907,-3.35547 1.69532,-5.10156 0.98828,-2.62109 2.13672,-5.26953 3.33984,-7.72656 0.97266,-2.00391 1.96875,-3.82422 3.04688,-5.58594 1.9375,-3.17969 4.15625,-6.13281 7.09765,-9.45703 1.0586,-1.19531 2.19922,-2.42969 3.33985,-3.63281 1.13281,-1.19141 2.28125,-2.36328 3.41015,-3.48438 1.46485,-1.48437 2.89063,-2.86719 4.32813,-4.13281 1.09375,-0.94922 2.17968,-1.81641 3.28515,-2.625 2.19532,-1.62109 4.36328,-2.92188 6.79297,-4.11328 1.29297,-0.62891 2.65625,-1.22656 4.02735,-1.78516 3.03515,-1.25781 6.125,-2.30469 9.39843,-3.21875 5.17969,-1.4375 10.47266,-2.41797 15.125,-2.97656 3.78125,-0.43359 7.12891,-0.57813 9.81641,-0.55469 3.77734,0.0625 5.94141,0.6211 6.90234,1.42969 0.65625,0.56641 0.77344,1.11328 0.69922,1.72656 -0.0547,0.60547 -0.34765,1.1211 -0.64844,1.47656 -0.16796,0.20313 -0.14062,0.51172 0.0664,0.67969 0.20703,0.17188 0.51172,0.14063 0.68359,-0.0625 z m 0,0"
       id="path6"
       inkscape:connector-curvature="0" />
    <path
       style="fill:#1747b3;fill-opacity:1;fill-rule:nonzero;stroke:none"
       d="m 162.24219,251.77344 c -0.20313,0.25 -0.44141,0.54297 -0.65625,0.69531 -0.16797,0.0859 -0.23438,0.28906 -0.15235,0.46094 0.0859,0.16797 0.28907,0.23437 0.45703,0.15234 0.16797,-0.0859 0.23829,-0.28906 0.15235,-0.45703 -0.082,-0.17188 -0.28516,-0.23828 -0.45703,-0.15625 -0.0273,0.004 -0.082,0 -0.1875,-0.0273 -0.1836,-0.0391 -0.36328,0.0742 -0.40625,0.25781 -0.043,0.18359 0.0742,0.36719 0.25781,0.41015 0.18359,0.0391 0.36719,-0.0742 0.40625,-0.25781 0.043,-0.18359 -0.0742,-0.36719 -0.25781,-0.41015 -0.1836,-0.0117 -0.24219,-0.0234 -0.23438,-0.0312 -0.18359,-0.0742 -0.39062,0.0156 -0.46484,0.19921 -0.0742,0.1836 0.0156,0.39063 0.19922,0.46485 0.18359,0.0742 0.39062,-0.0156 0.46484,-0.19922 0.0742,-0.18359 -0.0156,-0.39063 -0.19922,-0.46484 0.082,-0.0273 0.0664,-0.11719 0.0859,-0.17579 0.0156,-0.0156 0.0586,0.0742 0.082,0.17969 -0.008,0.0742 -0.0937,0.25781 -0.16016,0.34375 -0.0781,0.0625 -0.23828,0.12891 -0.29296,0.14844 -0.1836,-0.0117 -0.0586,0.0859 0.26953,0.4375 0.55078,0.69922 1.5,2.21484 2.5664,3.89453 0.87891,1.37891 1.83594,2.83594 2.80469,4.16016 1.39453,1.77343 2.76172,3.22656 3.88281,4.38281 0.75,0.84375 1.41407,1.63281 1.92969,2.19531 0.28906,0.26172 0.55469,0.48438 0.77734,0.6211 0.11329,0.0742 0.26172,0.15234 0.37891,0.1914 0.13672,0.0391 0.4375,0.0547 0.64063,-0.0312 0.27734,-0.13281 0.39062,-0.46094 0.26171,-0.73437 -0.13281,-0.27735 -0.46093,-0.39453 -0.73437,-0.26172 -0.27734,0.1289 -0.39453,0.46094 -0.26172,0.73437 0.12891,0.27735 0.46094,0.39453 0.73438,0.26172 0.17187,-0.13281 0.3164,-0.40625 0.32812,-0.55078 0.0391,-0.27344 -0.14844,-0.52734 -0.42187,-0.56641 -0.27344,-0.043 -0.52735,0.14844 -0.56641,0.41797 -0.043,0.27344 0.14453,0.52735 0.41797,0.57032 0.27344,0.0391 0.52734,-0.14844 0.57031,-0.42188 -0.004,-0.12109 -0.0273,-0.27734 -0.0625,-0.41797 -0.0352,-0.24609 -0.26172,-0.41406 -0.50781,-0.38281 -0.24219,0.0352 -0.41406,0.26172 -0.37891,0.50781 0.0352,0.24219 0.26172,0.41406 0.50391,0.37891 0.24609,-0.0352 0.41406,-0.26172 0.38281,-0.50391 -0.0742,-0.26562 -0.20703,-0.64453 -0.39453,-1.13672 -0.0586,-0.17968 -0.25,-0.28125 -0.42969,-0.22265 -0.17969,0.0547 -0.28125,0.24609 -0.22265,0.42578 0.11718,0.49609 0.16406,0.83203 0.16015,1.05859 -0.004,0.10156 -0.0195,0.13281 -0.0391,0.14453 -0.0117,-0.008 0.0859,-0.19922 0.1875,-0.29687 0.12891,-0.0508 0.33203,-0.0508 0.34766,-0.0664 -0.004,-0.0195 -0.004,-0.0391 -0.0547,-0.10937 -0.11328,-0.13672 -0.27344,-0.34766 -0.49219,-0.64063 -0.49219,-0.53515 -1.15234,-1.32031 -1.93359,-2.20312 -1.12891,-1.17578 -2.4336,-2.57032 -3.77344,-4.28516 -0.94922,-1.25781 -1.90234,-2.66406 -2.80078,-4.01953 -1.10547,-1.65625 -2.13281,-3.1875 -2.83203,-3.98828 -0.46094,-0.4375 -0.83594,-0.66406 -1.09766,-0.73828 -0.30078,-0.004 -0.48828,0.0703 -0.58203,0.14843 -0.0859,0.10157 -0.18359,0.30469 -0.19141,0.40235 0.0117,0.15625 0.0781,0.32422 0.13282,0.39062 0.10156,0.10938 0.24609,0.23828 0.38671,0.33203 0.24219,0.125 0.41016,0.14063 0.5625,0.13282 0.082,0.0273 0.30469,0.0352 0.4961,-0.0117 0.43359,-0.15625 0.80859,-0.44141 1.07031,-0.61719 0.19922,-0.17969 0.21094,-0.48828 0.0312,-0.68359 -0.17969,-0.19922 -0.48828,-0.21094 -0.68359,-0.0312 z m 0,0"
       id="path8"
       inkscape:connector-curvature="0" />
    <path
       style="fill:#1747b3;fill-opacity:1;fill-rule:nonzero;stroke:none"
       d="m 174.37891,251.94531 c -0.65625,0.33203 -0.96094,0.95703 -1.57813,2.02344 -0.11719,0.19531 -0.0547,0.45312 0.14453,0.57422 0.19531,0.11719 0.45313,0.0547 0.57422,-0.14453 0.11719,-0.19922 0.0547,-0.45703 -0.14453,-0.57422 -0.19922,-0.1211 -0.45313,-0.0547 -0.57422,0.14453 -0.33203,0.41406 -0.75391,0.95312 -1.24219,1.61328 -0.16406,0.24609 -0.0977,0.57813 0.15235,0.74219 0.24609,0.16406 0.57812,0.0976 0.74218,-0.14844 0.16797,-0.24609 0.0977,-0.58203 -0.14843,-0.74609 -0.2461,-0.16407 -0.58203,-0.0977 -0.7461,0.15234 -0.82812,1.19531 -1.84765,2.73828 -2.79687,4.40625 -0.16797,0.30469 -0.0547,0.69141 0.2539,0.85938 0.30469,0.16796 0.69141,0.0547 0.85938,-0.25391 0.16797,-0.30859 0.0547,-0.69141 -0.25391,-0.85938 -0.30468,-0.16796 -0.6914,-0.0547 -0.85937,0.25391 -1.89063,3.69141 -3.28125,7.76953 -4.22656,10.30078 -0.42188,1.10156 -0.76172,1.89453 -0.98438,2.30078 -0.0586,0.17188 -0.0625,0.22657 -0.0273,0.22266 -0.25,0.21875 -0.27735,0.59766 -0.0586,0.84766 0.21875,0.25 0.59766,0.27734 0.85157,0.0586 0.25,-0.21484 0.27734,-0.59766 0.0586,-0.84766 -0.21875,-0.25 -0.59766,-0.27734 -0.85156,-0.0586 0.0508,-0.0156 0.35156,-0.0859 0.57422,-0.0234 -0.27735,-0.13672 -0.61329,-0.0234 -0.75,0.25391 -0.13672,0.27734 -0.0234,0.61328 0.2539,0.75 0.27735,0.13672 0.61328,0.0234 0.75,-0.25391 0.13672,-0.27734 0.0234,-0.61328 -0.2539,-0.75 0.14453,0.13672 0.23437,0.33203 0.22656,0.35156 -0.043,-0.28515 -0.30078,-0.48046 -0.58594,-0.4375 -0.28125,0.0391 -0.47656,0.30079 -0.43359,0.58204 0.0391,0.28125 0.30078,0.47656 0.58203,0.4375 0.28125,-0.043 0.47656,-0.30079 0.4375,-0.58204 -0.082,-0.0742 -0.0742,-0.48828 0.0508,-1.28515 0.043,-0.1836 -0.0703,-0.36719 -0.25391,-0.41016 -0.18359,-0.043 -0.36718,0.0703 -0.41015,0.25391 -0.24219,0.79297 -0.37891,1.30469 -0.40625,1.58594 0.004,0.10546 0.11718,0.35156 0.29687,0.50781 0.26172,0.0781 0.60547,-0.008 0.71485,-0.0742 0.14843,-0.10156 0.30468,-0.28125 0.4414,-0.46484 0.26172,-0.48047 0.64063,-1.33985 1.08203,-2.47657 0.91797,-2.57422 2.24219,-6.59375 4.04297,-10.19922 0.86328,-1.64843 1.80469,-3.18359 2.57422,-4.40234 0.41406,-0.69531 0.76563,-1.27344 1.04688,-1.75781 0.67968,-1.08594 0.85546,-1.46875 1.2539,-1.57813 0.2461,-0.10547 0.36328,-0.39062 0.25781,-0.63672 -0.10546,-0.24609 -0.38671,-0.36328 -0.63671,-0.25781 z m 0,0"
       id="path10"
       inkscape:connector-curvature="0" />
    <path
       style="fill:#1747b3;fill-opacity:1;fill-rule:nonzero;stroke:none"
       d="m 288.29297,236.42969 c -0.004,-0.0508 -0.0195,-0.12891 -0.0391,-0.19141 -0.10547,-0.25391 -0.39063,-0.375 -0.64063,-0.27344 -0.25391,0.10547 -0.375,0.39063 -0.27344,0.64453 0.10547,0.25 0.39063,0.3711 0.64453,0.26954 0.25,-0.10547 0.3711,-0.39063 0.26954,-0.64063 -0.0508,-0.10547 -0.5625,-0.32031 -0.82422,-0.18359 -0.19532,0.1914 -0.19922,0.50781 -0.008,0.70703 0.19532,0.19531 0.51172,0.19922 0.70704,0.004 0.19531,-0.1914 0.19921,-0.50781 0.008,-0.70312 -0.19531,-0.19922 -0.50781,-0.19922 -0.70703,-0.008 -0.12891,0.17968 -0.17578,0.33203 -0.19532,0.4375 -0.0351,0.28125 0.16407,0.53906 0.44532,0.57422 0.28125,0.0391 0.53515,-0.16016 0.57422,-0.44141 0.0351,-0.28125 -0.16407,-0.53906 -0.44532,-0.57422 -0.28125,-0.0391 -0.53515,0.16016 -0.57422,0.44141 -0.0351,0.19531 -0.0586,0.54687 -0.0625,1 0.008,0.52734 0.0508,1.23437 0.15235,2.07812 0.125,0.91797 0.30469,1.98047 0.53125,3.03125 0.29297,1.39453 0.67578,2.82813 1.1289,3.95703 0.60547,1.26172 1.40625,2.13672 2.28907,2.58985 1.05859,0.57812 2.43359,0.73047 3.68359,0.39453 1.26172,-0.38281 2.56641,-1.33985 3.55078,-2.63672 1.53906,-2.30469 2.35156,-5.60547 2.60938,-7.91797 0.16406,-1.33984 0.17578,-2.38672 0.0586,-2.85937 -0.0742,-0.21875 -0.23828,-0.46875 -0.44531,-0.61719 -0.14844,-0.0625 -0.48438,-0.0742 -0.65625,-0.0195 -0.13672,0.0742 -0.30469,0.23437 -0.3711,0.33203 -0.19531,0.69922 -0.25781,1.8125 -0.20312,3.35156 0.0781,1.58203 0.27734,3.61719 0.5625,5.79688 0.21484,1.33203 0.44922,2.6914 0.65234,4.01953 0.3086,2.11718 0.52344,4.10937 0.46485,5.96875 -0.0742,1.47265 -0.3086,2.80078 -0.74219,3.99218 -0.49219,1.17579 -1.13281,2.12891 -1.85938,2.80469 -0.59375,0.57422 -1.04687,0.76953 -1.75,0.78125 -0.96484,0.0781 -2.01171,-0.25781 -3.14843,-1.02344 -0.91797,-0.6875 -1.83985,-1.65625 -2.58203,-2.53906 -0.46875,-0.5625 -0.83985,-1.08594 -1.15625,-1.48437 -0.21875,-0.33985 -0.67579,-0.4375 -1.01563,-0.21875 -0.33984,0.21875 -0.4375,0.67187 -0.21875,1.01562 0.22266,0.33985 0.67578,0.4375 1.01563,0.21485 0.33984,-0.21875 0.4375,-0.67188 0.21875,-1.01172 -0.16016,-0.20313 -0.32032,-0.39063 -0.46875,-0.52735 -0.23829,-0.27343 -0.65625,-0.30468 -0.92969,-0.0664 -0.27344,0.23828 -0.30469,0.65625 -0.0664,0.92968 0.23828,0.27735 0.65625,0.30469 0.92969,0.0664 0.27344,-0.23828 0.30469,-0.65234 0.0664,-0.92969 -0.16016,-0.14062 -0.45313,-0.3125 -0.73438,-0.33984 -0.32031,-0.0195 -0.59766,0.22656 -0.61719,0.55078 -0.0195,0.32031 0.22657,0.59766 0.54688,0.61719 0.32422,0.0195 0.59765,-0.22656 0.61719,-0.54688 0.0195,-0.32422 -0.22266,-0.60156 -0.54688,-0.62109 -0.1875,0.0859 -0.40234,0.27344 -0.44141,0.43359 -0.125,0.14063 -0.11328,0.35547 0.0274,0.48047 0.14062,0.125 0.35547,0.11328 0.48047,-0.0273 0.0586,0.0508 -0.0547,0.1875 -0.13672,0.28125 -0.1211,-0.0195 -0.23438,-0.0586 -0.19141,0.0351 0.0547,0.10157 0.125,0.2461 0.23047,0.46094 0.21875,0.42578 0.53516,1.05078 0.98047,1.75 0.75,1.01172 1.75391,2.17969 2.8125,3.08203 1.42969,0.96094 3.06641,1.5 4.44922,1.45313 1.07422,-0.10547 2.17578,-0.64063 2.99219,-1.44922 0.83203,-0.90234 1.60546,-2.19531 2.11328,-3.57813 0.44922,-1.38281 0.68359,-2.95312 0.73047,-4.53515 0.0312,-1.98438 -0.22266,-4.10547 -0.5586,-6.25391 -0.21875,-1.34765 -0.46875,-2.70703 -0.69531,-4.00781 -0.30859,-2.13281 -0.53516,-4.11328 -0.64063,-5.64453 -0.0625,-1.46875 -0.0195,-2.44141 0.0586,-2.78516 -0.0977,0.21485 -0.21485,0.32422 -0.30469,0.37891 -0.12109,0.0312 -0.40625,0.0195 -0.50391,-0.0195 -0.10546,-0.0977 -0.17578,-0.20313 -0.15234,-0.15625 0.0664,0.16797 0.0664,1.03906 -0.0781,2.32812 -0.2461,2.22266 -0.98829,5.28125 -2.39454,7.34375 -0.85937,1.13281 -1.86328,1.85547 -2.90234,2.13281 -1.01172,0.29297 -1.90234,0.19532 -2.75,-0.29687 -0.69531,-0.33984 -1.19922,-0.89844 -1.70703,-1.99609 -0.44531,-1.00782 -0.84375,-2.33594 -1.16797,-3.6875 -0.23047,-1.02344 -0.41797,-2.03907 -0.55469,-2.92969 -0.10547,-0.80469 -0.16015,-1.45313 -0.17968,-1.95313 -0.0156,-0.41406 -0.0117,-0.69531 0,-0.83984 0.004,-0.0625 -0.0195,-0.0156 -0.125,0.14062 -0.2461,0.12891 -0.75,-0.082 -0.78907,-0.15625 -0.008,-0.0391 -0.0117,-0.0703 -0.008,-0.0547 0.0352,0.26562 0.27734,0.45312 0.54297,0.41797 0.26562,-0.0352 0.45312,-0.27735 0.41797,-0.54297"
       id="path12"
       inkscape:connector-curvature="0" />
    <path
       style="fill:#1747b3;fill-opacity:1;fill-rule:nonzero;stroke:none"
       d="m 239.54687,162.60156 c 0.0273,-0.71875 -0.12109,-1.72656 -0.0859,-3.60937 0.008,-0.21875 -0.16407,-0.40235 -0.38282,-0.41016 -0.22265,-0.008 -0.40625,0.16406 -0.41406,0.38281 -0.008,0.21875 0.16406,0.40235 0.38672,0.41016 0.21875,0.008 0.40234,-0.16406 0.41016,-0.38281 0.0586,-1.28125 0.21093,-2.9336 0.47656,-5.34375 0.0234,-0.21875 -0.13672,-0.41797 -0.35547,-0.44141 -0.22266,-0.0234 -0.41797,0.13281 -0.44531,0.35547 -0.0234,0.21875 0.13672,0.41797 0.35547,0.44141 0.22265,0.0234 0.42187,-0.13672 0.44531,-0.35547 0.12109,-1.07032 0.26562,-2.28907 0.42187,-3.61328 0.0273,-0.22657 -0.13281,-0.42969 -0.35937,-0.45704 -0.22656,-0.0234 -0.42969,0.13672 -0.45703,0.36329 -0.0273,0.22656 0.13672,0.42968 0.36328,0.45703 0.22266,0.0273 0.42969,-0.13672 0.45312,-0.36328 0.27344,-2.2461 0.58594,-4.82813 0.83204,-7.30079 0.0234,-0.22265 -0.14063,-0.42187 -0.36329,-0.44531 -0.22265,-0.0195 -0.42187,0.14063 -0.44531,0.36719 -0.0195,0.22266 0.14063,0.41797 0.36328,0.44141 0.22266,0.0234 0.42188,-0.14063 0.44532,-0.36329 0.14843,-1.48437 0.27343,-2.92578 0.35937,-4.23437 0.0156,-0.22656 -0.15625,-0.42188 -0.38281,-0.4375 -0.22656,-0.0117 -0.42188,0.16016 -0.4375,0.38672 -0.0117,0.22265 0.16015,0.42187 0.38672,0.43359 0.22656,0.0156 0.42187,-0.15625 0.43359,-0.38281 0.1875,-2.93359 0.18359,-5.09766 0.0859,-6.45703 -0.0156,-0.22266 -0.21094,-0.39063 -0.4336,-0.375 -0.22265,0.0156 -0.39062,0.21094 -0.375,0.43359 0.0156,0.22266 0.21094,0.39063 0.4336,0.375 0.22265,-0.0156 0.39062,-0.21094 0.375,-0.43359 -0.13672,-1.46094 -0.44531,-1.9375 -0.54297,-2.33985 -0.043,-0.1875 -0.22266,-0.30468 -0.40625,-0.26562 -0.18359,0.0391 -0.30078,0.22266 -0.26172,0.40625 0.0977,0.53906 0.32422,0.89062 0.40234,2.25781 0.0937,1.32422 0.0898,3.4375 -0.0977,6.34766 -0.082,1.29687 -0.20313,2.72656 -0.34766,4.20703 -0.24609,2.46094 -0.5664,5.03516 -0.83984,7.28516 -0.14844,1.32421 -0.28516,2.54296 -0.40625,3.61718 -0.26172,2.41797 -0.41406,4.09375 -0.47266,5.40235 -0.0937,1.92968 0,2.95703 -0.0859,3.55859 -0.0195,0.26563 0.17579,0.5 0.44141,0.52344 0.26953,0.0234 0.50391,-0.17578 0.52734,-0.44141"
       id="path14"
       inkscape:connector-curvature="0" />
    <path
       style="fill:#1747b3;fill-opacity:1;fill-rule:nonzero;stroke:none"
       d="m 208.66016,88.90625 c -0.19922,-0.164062 -0.42579,-0.308594 -0.61329,-0.386719 -0.38671,-0.132812 -0.80859,0.07422 -0.94531,0.460938 -0.13281,0.386719 0.0742,0.8125 0.46485,0.945312 0.38671,0.132813 0.8125,-0.07422 0.94531,-0.460937 0.13281,-0.390625 -0.0742,-0.8125 -0.46485,-0.945313 -0.26171,-0.07422 -0.93359,0.164063 -1.13281,0.507813 -0.13672,0.398437 0.0781,0.828125 0.47656,0.964844 0.39844,0.132812 0.82813,-0.07813 0.96485,-0.476563 0.13281,-0.398437 -0.0781,-0.832031 -0.47656,-0.964844 -0.39844,-0.132812 -0.83204,0.07813 -0.96485,0.476563 -0.0898,0.464844 0.0508,0.976562 0.27344,1.480468 0.1875,0.398438 0.66016,0.566407 1.05469,0.382813 0.39843,-0.1875 0.5664,-0.660156 0.38281,-1.058594 -0.1875,-0.394531 -0.66016,-0.566406 -1.05859,-0.378906 -0.39454,0.183594 -0.56641,0.65625 -0.37891,1.054687 0.4375,0.976563 1.35156,2.550782 2.54687,4.429688 1.3086,2.097656 2.98829,4.585938 4.73829,6.88281 2.10546,2.55469 4.30078,4.8086 6.0664,6.71094 1.89844,2.10547 3.12891,3.80078 3.81641,5.21094 0.52344,1.09375 0.83203,2.15234 1.10156,2.57031 0.17969,0.37109 0.625,0.52734 0.99609,0.34766 0.3711,-0.17578 0.52735,-0.6211 0.35157,-0.9961 -0.17969,-0.37109 -0.625,-0.52734 -0.9961,-0.34765 -0.37109,0.17578 -0.52734,0.62109 -0.35156,0.99609 0.10156,0.15234 0.80469,0.48438 1.28906,0.19531 0.25,-0.28515 0.21875,-0.71875 -0.0703,-0.96875 -0.28516,-0.24609 -0.72266,-0.21484 -0.96875,0.0703 -0.25,0.28906 -0.21484,0.72265 0.0703,0.97265 0.28907,0.2461 0.72266,0.21485 0.96875,-0.0742 0.125,-0.21875 0.17188,-0.44922 0.1836,-0.64453 0.0508,-0.33984 -0.1836,-0.66406 -0.52735,-0.71484 -0.34375,-0.0547 -0.66406,0.18359 -0.71875,0.52734 -0.0508,0.34375 0.1836,0.66406 0.52735,0.71485 0.34375,0.0547 0.66406,-0.1836 0.71875,-0.52735 0.0117,-0.35937 0.0234,-0.99219 0.0547,-1.97265 0.0234,-0.28125 -0.1914,-0.52735 -0.47265,-0.54688 -0.28125,-0.0195 -0.52735,0.19141 -0.54688,0.47266 -0.10937,0.97265 -0.19531,1.5625 -0.28125,1.85937 -0.0391,0.13281 -0.043,0.0898 0.0234,-0.0664 0.42578,-0.21875 1.07031,0.0586 1.09766,0.0547 -0.0273,-0.20312 -0.20313,-1.37109 -0.66016,-2.72265 -0.80859,-1.64063 -2.19141,-3.55078 -4.15625,-5.73828 -1.80859,-1.92579 -3.97266,-4.1211 -6.01562,-6.58594 -1.75391,-2.191409 -3.44532,-4.574221 -4.79297,-6.61719 -1.22266,-1.832031 -2.125,-3.300781 -2.55469,-4.167969 -0.21094,-0.417969 -0.26953,-0.527343 -0.26953,-0.316406 -0.15625,0.214844 -0.71485,0.421875 -0.78906,0.410156 0,-0.01172 0.0391,0.0078 0.1914,0.121094 0.3125,0.246094 0.76953,0.195313 1.01953,-0.121094 0.25,-0.316406 0.19532,-0.773437 -0.11718,-1.019531 z m 0,0"
       id="path16"
       inkscape:connector-curvature="0" />
    <path
       style="fill:#1747b3;fill-opacity:1;fill-rule:nonzero;stroke:none"
       d="m 229.71875,87.289062 c -0.30469,-0.390624 -0.66797,-0.742187 -1.01563,-0.949218 -0.33984,-0.203125 -0.78125,-0.08984 -0.98437,0.253906 -0.19922,0.34375 -0.0859,0.78125 0.25781,0.984375 0.33985,0.199219 0.78125,0.08594 0.98047,-0.253906 0.20313,-0.34375 0.0898,-0.785157 -0.25391,-0.984375 -0.36718,-0.203125 -0.89843,-0.304688 -1.3164,-0.242188 -0.38672,0.06641 -0.64453,0.4375 -0.57813,0.824219 0.0664,0.382813 0.4336,0.644531 0.82032,0.574219 0.38671,-0.06641 0.64453,-0.433594 0.57812,-0.820313 -0.0664,-0.386719 -0.43359,-0.644531 -0.82031,-0.578125 -0.78125,0.171875 -1.625,0.820313 -2.5625,1.832032 -0.26172,0.28125 -0.2461,0.71875 0.0352,0.980468 0.28125,0.261719 0.71875,0.246094 0.98047,-0.03516 0.25782,-0.28125 0.24219,-0.71875 -0.0352,-0.976562 -0.28125,-0.261719 -0.71875,-0.246094 -0.98047,0.03125 -0.87891,0.792968 -2.04297,2.042968 -3.31641,3.964843 -0.77734,1.210938 -1.60547,2.683594 -2.4375,4.378907 -1.07812,2.324218 -2.15234,5.031256 -3.21094,7.863286 -1.10937,2.95703 -2.21875,6.07812 -3.16406,8.79297 -1.30078,3.68359 -2.2539,6.52734 -2.79687,8.32031 -0.22657,0.83984 -0.35157,1.44922 -0.36719,1.82031 -0.0469,0.42188 0.25391,0.80078 0.67578,0.84766 0.42188,0.0508 0.80469,-0.25391 0.85156,-0.67578 0.0469,-0.42188 -0.2539,-0.80469 -0.67578,-0.85156 -0.42187,-0.0469 -0.80469,0.25781 -0.85156,0.67968 -0.008,0.21094 0.0703,0.59375 0.33984,0.91797 0.3125,0.25 0.76953,0.19922 1.01953,-0.11328 0.25,-0.3125 0.19922,-0.76953 -0.11328,-1.01953 -0.3125,-0.25391 -0.76953,-0.20313 -1.01953,0.10937 -0.25,0.3125 -0.19922,0.76954 0.11328,1.02344 0.48438,0.17188 0.96094,-0.004 1.10547,-0.14453 0.27735,-0.25391 0.29688,-0.6875 0.0391,-0.96484 -0.2539,-0.28125 -0.68359,-0.29688 -0.96484,-0.043 -0.27734,0.2539 -0.29687,0.6875 -0.043,0.96484 0.25781,0.27735 0.6875,0.29688 0.96875,0.043 0.39453,-0.45703 1.14844,-1.70312 2.30469,-3.52344 0.15625,-0.23437 0.0937,-0.55078 -0.14063,-0.71093 -0.23437,-0.15625 -0.55078,-0.0937 -0.71093,0.14062 -1.25,1.75781 -2.0586,2.88281 -2.37891,3.08594 -0.0352,0.0195 0.31641,-0.0977 0.72656,0.0195 0.19922,0.26172 0.25391,0.46875 0.28125,0.38672 0.0508,-0.22266 0.20313,-0.69922 0.47266,-1.5 0.52734,-1.76953 1.45312,-4.58203 2.73828,-8.26563 0.9375,-2.71093 2.03125,-5.82031 3.12891,-8.76953 1.03125,-2.82812 2.0625,-5.49219 3.08984,-7.765628 0.78906,-1.648437 1.56641,-3.050781 2.30078,-4.226562 1.17578,-1.855469 2.1836,-2.992188 3.01563,-3.808594 0.91797,-0.972656 1.42968,-1.375 1.82422,-1.410156 0.16796,-0.03516 0.18359,-0.02734 0.34765,0.08203 0.1836,0.101563 0.34375,0.269531 0.58594,0.597656 0.24609,0.316407 0.70312,0.378907 1.01953,0.132813 0.32031,-0.246094 0.38281,-0.699219 0.13672,-1.019532 z m 0,0"
       id="path18"
       inkscape:connector-curvature="0" />
    <path
       style="fill:#1747b3;fill-opacity:1;fill-rule:nonzero;stroke:none"
       d="m 252.53125,87.304688 c -0.46484,0.164062 -0.91016,0.683593 -1.00781,1.132812 -0.0625,0.40625 0.21875,0.785156 0.625,0.847656 0.41015,0.0625 0.78906,-0.21875 0.85156,-0.625 0.0625,-0.40625 -0.21875,-0.789062 -0.625,-0.851562 -0.41016,-0.05859 -0.78906,0.21875 -0.85156,0.628906 -0.0547,0.417969 0.043,0.949219 0.21484,1.425781 0.15234,0.394531 0.59375,0.589844 0.98828,0.4375 0.39453,-0.148437 0.59375,-0.589843 0.44141,-0.984375 -0.15235,-0.394531 -0.59375,-0.59375 -0.98828,-0.441406 -0.39453,0.148438 -0.58985,0.59375 -0.44141,0.988281 0.34375,0.917969 1.04297,2.089844 1.86328,3.367188 0.24219,0.371093 0.73828,0.476562 1.10938,0.234375 0.37109,-0.246094 0.47265,-0.742188 0.23047,-1.113282 -0.24219,-0.367187 -0.73829,-0.472656 -1.10938,-0.230468 -0.37109,0.242187 -0.47266,0.738281 -0.23047,1.109375 0.82031,1.320312 1.81641,2.820312 2.7461,4.1875 1.42968,2.046875 2.67578,3.773441 3.53906,5.183591 0.39453,0.67969 0.71484,1.30078 1,1.86719 0.25,0.54297 0.53906,1.17188 0.89062,1.59766 0.28907,0.35937 0.82032,0.41797 1.17969,0.1289 0.36328,-0.28906 0.41797,-0.8164 0.12891,-1.17968 -0.28907,-0.35938 -0.81641,-0.41797 -1.17969,-0.12891 -0.35938,0.28906 -0.41797,0.81641 -0.12891,1.17969 0.19922,0.22265 0.58594,0.48828 0.9375,0.5625 0.44141,0.0703 0.85938,-0.23047 0.92969,-0.67188 0.0703,-0.4414 -0.23047,-0.85547 -0.67187,-0.92578 -0.44141,-0.0703 -0.85547,0.22656 -0.92579,0.66797 -0.0703,0.44141 0.22657,0.85937 0.66797,0.92969 0.35938,0.0195 0.85547,-0.16016 1.13282,-0.39844 0.32421,-0.28125 0.35937,-0.77344 0.0781,-1.10156 -0.28125,-0.32422 -0.77734,-0.35938 -1.10156,-0.0781 -0.32422,0.28516 -0.35938,0.77735 -0.0781,1.10156 0.28125,0.32422 0.77344,0.35938 1.10157,0.0781 0.21093,-0.30859 0.43359,-0.75781 0.64062,-1.30469 0.13672,-0.24609 0.0469,-0.55859 -0.19922,-0.69922 -0.24609,-0.13672 -0.55859,-0.0469 -0.69531,0.19922 -0.32813,0.40235 -0.56641,0.57813 -0.76953,0.625 -0.0859,0.0742 0.0898,0.008 0.14844,-0.0195 0.0586,0.0273 0.17578,0.0859 0.11328,-0.0156 -0.16407,-0.21485 -0.33203,-0.6875 -0.57032,-1.30079 -0.3164,-0.6289 -0.66015,-1.30078 -1.09375,-2.03906 -0.9375,-1.48437 -2.22656,-3.226561 -3.66406,-5.249999 -0.95703,-1.328125 -1.96484,-2.777343 -2.80859,-4.066406 -0.83594,-1.25 -1.48438,-2.285156 -1.78125,-3.042969 -0.14844,-0.367187 -0.19531,-0.535156 -0.16797,-0.65625 -0.0156,-0.09375 -0.15234,0.05078 -0.0352,0.03125 0.38672,-0.121094 0.59766,-0.527344 0.47657,-0.910156 -0.1211,-0.382812 -0.52735,-0.597656 -0.91016,-0.476562 z m 0,0"
       id="path20"
       inkscape:connector-curvature="0" />
    <path
       style="fill:#1747b3;fill-opacity:1;fill-rule:nonzero;stroke:none"
       d="m 277.62891,87.554688 c 0.0703,0.02734 0.1289,0.0625 0.10546,0.199218 -0.17578,0.230469 -0.13281,0.558594 0.0937,0.734375 0.22657,0.175781 0.55469,0.132813 0.73047,-0.09375 0.17578,-0.230469 0.13672,-0.554687 -0.0937,-0.734375 -0.22656,-0.175781 -0.55468,-0.132812 -0.73047,0.09375 -0.36718,0.425782 -1.32812,1.074219 -2.72656,1.9375 -0.29687,0.195313 -0.38281,0.597656 -0.1875,0.898438 0.19531,0.300781 0.59766,0.382812 0.89844,0.1875 0.30078,-0.195313 0.38672,-0.597656 0.1875,-0.898438 -0.19531,-0.300781 -0.59766,-0.382812 -0.89844,-0.1875 -0.83594,0.5 -1.86719,1.085938 -3.0664,1.898438 -0.32032,0.222656 -0.39844,0.660156 -0.17579,0.980468 0.22266,0.316407 0.66016,0.394532 0.98047,0.171876 0.31641,-0.21875 0.39453,-0.660157 0.17188,-0.976563 -0.21875,-0.316406 -0.66016,-0.394531 -0.97656,-0.175781 -1.77735,1.285156 -3.95704,3.09375 -5.8711,5.113281 -1.11328,1.238281 -2.11719,2.523437 -2.91015,3.656255 -1.48047,2.03906 -2.17969,3.53906 -2.4336,4.8164 -0.19531,0.69922 -0.26953,1.54297 -0.1289,2.48828 0.25781,1.23828 0.77734,2.64844 1.14453,4.19532 0.23437,1.24609 0.375,2.64062 0.45703,4.08984 0.0664,1.51953 0.082,3.08203 0.13672,4.19922 0.0937,0.57422 0.20703,1.04297 0.33593,1.33984 0.0781,0.17188 0.26954,0.45313 0.52735,0.63672 0.1875,0.082 0.6289,0.10156 0.83203,0.0234 0.41016,-0.1875 0.58984,-0.67188 0.40234,-1.07813 -0.1875,-0.41015 -0.67187,-0.58984 -1.08203,-0.40234 -0.41015,0.1875 -0.58984,0.67187 -0.40234,1.07812 0.1875,0.41016 0.67187,0.58985 1.08203,0.40235 0.15234,-0.0937 0.32812,-0.26563 0.38672,-0.36328 0.24609,-0.36328 0.14844,-0.85938 -0.21485,-1.10157 -0.36328,-0.24609 -0.85937,-0.14843 -1.10546,0.21485 -0.24219,0.36328 -0.14844,0.85547 0.21875,1.10156 0.36328,0.24609 0.85546,0.14844 1.10156,-0.21484 0.1875,-0.5625 0.29687,-1.26953 0.30469,-1.96875 0.0351,-0.33203 -0.20704,-0.62891 -0.53907,-0.66407 -0.33593,-0.0352 -0.63281,0.20704 -0.66797,0.53907 -0.0312,0.33593 0.21094,0.63281 0.54297,0.66797 0.33203,0.0352 0.63282,-0.20704 0.66407,-0.54297 0.0469,-0.51563 0.0742,-1.01953 0.10546,-1.28125 0.0664,-0.27344 -0.0976,-0.55078 -0.375,-0.61719 -0.27343,-0.0703 -0.55078,0.0977 -0.61718,0.37109 -0.11328,0.33203 -0.20703,0.85938 -0.31641,1.37891 -0.125,0.62109 -0.30859,1.11328 -0.48828,1.35156 0.082,-0.14844 0.21094,-0.28125 0.32031,-0.35156 0.15625,-0.0586 0.55469,-0.0391 0.69922,0.0156 0.16797,0.13282 0.28125,0.27344 0.28125,0.22266 -0.0273,-0.14453 -0.0508,-0.44141 -0.0742,-0.92578 -0.082,-1.01953 -0.125,-2.57813 -0.22265,-4.14063 -0.11329,-1.49609 -0.28907,-3.0039 -0.57422,-4.37109 -0.45703,-1.67187 -1.02344,-3.06641 -1.28516,-4.11328 -0.13672,-0.73438 -0.10937,-1.21875 0.043,-1.85156 0.19141,-1.13672 0.72266,-2.33203 2.12109,-4.3086 0.77344,-1.10547 1.72266,-2.328122 2.78907,-3.519529 1.83203,-1.953125 3.91015,-3.6875 5.625,-4.9375 1.13281,-0.8125 2.10546,-1.40625 2.95312,-1.953125 1.38672,-0.957031 2.41406,-1.769531 2.85156,-2.390625 0.17969,-0.125 0.36719,-0.324219 0.48828,-0.507812 0.0899,-0.390625 -0.15234,-0.78125 -0.54296,-0.875 -0.39063,-0.08984 -0.78516,0.152343 -0.875,0.542969"
       id="path22"
       inkscape:connector-curvature="0" />
    <path
       style="fill:#1747b3;fill-opacity:1;fill-rule:nonzero;stroke:none"
       d="m 258.13281,120.81641 c -0.30469,0.15625 -0.83594,0.3125 -1.28125,0.47656 -0.375,0.13672 -0.57031,0.55078 -0.43359,0.92969 0.13672,0.3789 0.55469,0.57422 0.93359,0.4375 0.375,-0.13672 0.57031,-0.55469 0.4336,-0.9336 -0.13672,-0.3789 -0.55469,-0.57031 -0.9336,-0.43359 -0.22656,0.0977 -0.46094,0.20703 -0.625,0.3125 -0.33203,0.17578 -0.46094,0.58594 -0.28515,0.91797 0.17578,0.32812 0.58593,0.45703 0.91796,0.28125 0.32813,-0.17578 0.45704,-0.58594 0.28125,-0.91797 -0.17578,-0.32813 -0.58593,-0.45703 -0.91406,-0.28125 -0.0898,0.0547 -0.20312,0.14062 -0.28515,0.22266 -0.26563,0.24218 -0.28125,0.65625 -0.0391,0.92187 0.24219,0.26563 0.65625,0.28516 0.92188,0.0391 0.26953,-0.24218 0.28515,-0.65625 0.043,-0.92187 -0.2461,-0.26563 -0.65625,-0.28516 -0.92578,-0.0391 -0.043,0.043 -0.11719,0.14453 -0.16016,0.21875 -0.0391,0.0898 -0.0781,0.30859 -0.0664,0.4414 0.89453,0.78125 2.05078,0.98047 3.30078,0.92969 0.46485,-0.0469 0.80079,-0.46094 0.75391,-0.92578 -0.0469,-0.46094 -0.46094,-0.80078 -0.92187,-0.75391 -0.46485,0.0469 -0.80079,0.46094 -0.75391,0.92578 0.0469,0.46094 0.46094,0.80078 0.92187,0.75391 2.1211,-0.28516 4.94922,-1.19922 7.32032,-2.00781 0.47265,-0.16407 0.72265,-0.6836 0.55859,-1.15235 -0.16797,-0.47265 -0.68359,-0.72265 -1.15625,-0.55859 -0.46875,0.16797 -0.71875,0.68359 -0.55469,1.15625 0.16407,0.46875 0.6836,0.71875 1.15235,0.55469 1.37109,-0.49219 2.64453,-0.96485 3.63281,-1.47657 0.35547,-0.16015 0.51562,-0.58203 0.35547,-0.9375 -0.16016,-0.35546 -0.58203,-0.51562 -0.9375,-0.35546 -0.35547,0.16015 -0.51563,0.57812 -0.35547,0.9375 0.16016,0.35546 0.57812,0.51562 0.9375,0.35546 0.98437,-0.51953 1.78906,-1.16796 2.10547,-1.92578 0.12109,-0.2539 0.0156,-0.55859 -0.23828,-0.67968 -0.25782,-0.125 -0.5625,-0.0156 -0.6836,0.23828 -0.25,0.42187 -0.8164,0.72265 -1.76562,1.07422 -0.94922,0.35546 -2.17969,0.67578 -3.61328,1.05078 -2.37891,0.85156 -5.0625,1.76562 -6.96094,2.05078 -1.04688,0.18359 -1.91797,0.15625 -2.22266,0.082 0.375,0.58984 0.33985,0.77734 0.31641,0.83984 -0.0234,0.043 -0.0742,0.11328 -0.082,0.125 -0.008,0.0156 -0.0156,0.0312 0.0351,0.0156 0.10547,-0.0391 0.26172,-0.082 0.48438,-0.14453 0.40625,-0.14844 1,-0.32813 1.44141,-0.54297 0.35937,-0.1836 0.5039,-0.6211 0.32421,-0.98047 -0.18359,-0.35547 -0.62109,-0.5 -0.97656,-0.32031 z m 0,0"
       id="path24"
       inkscape:connector-curvature="0" />
    <path
       style="fill:#1747b3;fill-opacity:1;fill-rule:nonzero;stroke:none"
       d="m 271.51953,88.445312 c -0.043,-0.0078 -0.0508,0.0039 0.17578,-0.08984 0.35938,-0.140625 0.53516,-0.546875 0.39453,-0.90625 -0.14062,-0.363281 -0.54297,-0.539063 -0.90625,-0.398438 -0.35937,0.140625 -0.53906,0.546875 -0.39843,0.90625 0.14062,0.359375 0.54687,0.539063 0.91015,0.398438 0.23438,-0.105469 0.55078,-0.183594 0.97266,-0.25 0.37109,-0.05469 0.625,-0.394531 0.57422,-0.761719 -0.0508,-0.371094 -0.39453,-0.625 -0.76172,-0.574219 -0.36719,0.05469 -0.625,0.394531 -0.57031,0.761719 0.0508,0.367188 0.39062,0.625 0.75781,0.574219 0.85937,-0.140625 1.96094,-0.195313 3.08984,-0.222657 0.33985,-0.0039 0.61719,-0.28125 0.61328,-0.625 -0.004,-0.339843 -0.28125,-0.617187 -0.625,-0.613281 -0.33984,0 -0.61718,0.28125 -0.61328,0.625 0.004,0.339844 0.28125,0.617188 0.625,0.613281 1.125,-0.02734 2.25391,-0.02344 3.13281,-0.05469 0.3125,-0.0039 0.5625,-0.261719 0.5586,-0.574219 -0.004,-0.3125 -0.26172,-0.5625 -0.57422,-0.558594 -0.3125,0.0039 -0.5625,0.261719 -0.55859,0.574219 0.004,0.3125 0.26171,0.5625 0.57421,0.558594 0.44141,-0.01563 0.83594,-0.03906 1.12891,-0.07813 0.29688,-0.03516 0.51172,-0.300781 0.48047,-0.59375 -0.0352,-0.296875 -0.30078,-0.511719 -0.59375,-0.480469 -0.29688,0.03125 -0.51172,0.296875 -0.48047,0.59375 0.0312,0.296875 0.29688,0.511719 0.59375,0.480469 0.30469,-0.04297 0.625,-0.144531 0.85547,-0.371094 0.17187,-0.226562 0.12891,-0.546875 -0.0977,-0.71875 -0.22656,-0.167968 -0.54687,-0.125 -0.71875,0.101563 0.125,-0.08984 0.0937,-0.101563 -0.15234,-0.08594 -0.25391,0.01953 -0.60156,0.02344 -1.03125,0.01953 -0.85938,-0.0039 -1.98438,-0.04297 -3.12891,-0.05078 -1.14062,-0.0078 -2.32422,0.01172 -3.26562,0.125 -0.47656,0.05859 -0.9375,0.152344 -1.29688,0.28125 -0.37109,0.140625 -0.78906,0.441407 -0.99218,0.800781 -0.16407,0.367188 0,0.796876 0.36718,0.960938 0.36328,0.164062 0.79688,0 0.96094,-0.367188 z m 0,0"
       id="path26"
       inkscape:connector-curvature="0" />
    <path
       style="fill:#1747b3;fill-opacity:1;fill-rule:nonzero;stroke:none"
       d="m 249.71875,87.46875 c 0.0703,1.027344 0.004,1.089844 0.19922,0.972656 0.34375,-0.183594 0.47265,-0.609375 0.28906,-0.949218 -0.18359,-0.339844 -0.60937,-0.46875 -0.94922,-0.285157 -0.33984,0.183594 -0.46875,0.605469 -0.28515,0.949219 0.18359,0.339844 0.60546,0.46875 0.94531,0.285156 0.21094,-0.121094 0.52344,-0.285156 0.93359,-0.480468 0.33985,-0.15625 0.48828,-0.554688 0.33594,-0.894532 -0.15625,-0.335937 -0.55469,-0.488281 -0.89453,-0.332031 -0.33985,0.15625 -0.48828,0.554687 -0.33203,0.890625 0.15234,0.339844 0.55468,0.488281 0.89062,0.335938 0.82422,-0.398438 1.96485,-0.902344 3.20313,-1.402344 0.3164,-0.125 0.47656,-0.480469 0.35156,-0.800782 -0.125,-0.320312 -0.48438,-0.476562 -0.80078,-0.351562 -0.32031,0.121094 -0.47656,0.480469 -0.35547,0.800781 0.125,0.320313 0.48437,0.476563 0.80469,0.351563 2.47265,-1 5.23437,-1.957032 6.34375,-1.945313 0.28125,0.0078 0.51953,-0.214843 0.52734,-0.496093 0.008,-0.28125 -0.21484,-0.519532 -0.49609,-0.527344 -1.37891,-0.05859 -4.29688,0.867187 -6.82422,1.816406 -1.26563,0.472656 -2.45703,0.957031 -3.3125,1.328125 -0.42969,0.1875 -0.78906,0.351563 -1.03516,0.472656 -0.2539,0.125 -0.55078,0.347657 -0.42578,1.414063 0.32031,0.246094 0.77734,0.183594 1.01953,-0.132813 0.2461,-0.320312 0.1875,-0.777343 -0.13281,-1.019531 z m 0,0"
       id="path28"
       inkscape:connector-curvature="0" />
    <path
       style="fill:#1747b3;fill-opacity:1;fill-rule:nonzero;stroke:none"
       d="m 224.32031,119.70703 c -0.22265,0.0391 -0.80078,0.42188 -0.15234,1.46485 0.38672,0.0156 0.71094,-0.28907 0.72656,-0.67579 0.0156,-0.38671 -0.28516,-0.71093 -0.67187,-0.72656 -0.38672,-0.0117 -0.71485,0.28906 -0.72657,0.67578 -0.0156,0.38672 0.28516,0.71094 0.67188,0.72657 0.10547,-0.008 0.29687,-0.0273 0.55859,-0.0586 0.3711,-0.0312 0.64844,-0.35547 0.61719,-0.72656 -0.0312,-0.37109 -0.35547,-0.64453 -0.72656,-0.61719 -0.3711,0.0312 -0.64844,0.35547 -0.61719,0.72656 0.0312,0.3711 0.35547,0.64844 0.72656,0.61719 0.51563,-0.0586 1.375,-0.16406 2.32031,-0.30859 0.33985,-0.043 0.57813,-0.35547 0.53516,-0.69531 -0.0469,-0.33985 -0.35547,-0.57813 -0.69531,-0.53125 -0.33985,0.043 -0.57813,0.35546 -0.53516,0.69531 0.0469,0.33984 0.35547,0.57812 0.69531,0.53125 1.88672,-0.28516 4.20313,-0.74219 4.98438,-1.38281 0.21875,-0.17969 0.24609,-0.5 0.0664,-0.71875 -0.17969,-0.21875 -0.50391,-0.25 -0.71875,-0.0664 -0.46094,0.38281 -2.625,0.73047 -4.49219,0.94141 -0.9336,0.10546 -1.76563,0.17187 -2.26953,0.1914 -0.25,0.0117 -0.39063,0.0117 -0.39453,0 0.54296,1.03906 0.0859,1.39453 0.28125,1.38281 0.39843,-0.0508 0.67968,-0.41406 0.6289,-0.8125 -0.0469,-0.39843 -0.41406,-0.68359 -0.8125,-0.63281"
       id="path30"
       inkscape:connector-curvature="0" />
    <path
       style="fill:#1747b3;fill-opacity:1;fill-rule:nonzero;stroke:none"
       d="m 206.11719,120.95313 c -0.50391,-0.0937 -0.72266,-0.14063 -0.64063,-0.125 -0.38672,-0.14454 -0.8164,0.0508 -0.96094,0.43359 -0.14843,0.38672 0.0469,0.81641 0.4336,0.96094 0.38281,0.14843 0.8164,-0.0469 0.96094,-0.4336 0.14453,-0.38672 -0.0508,-0.8164 -0.4336,-0.96093 -0.0586,1.40625 -0.29687,1.4414 -0.23047,1.45312 0.41407,0.0312 0.78125,-0.27734 0.81641,-0.69141 0.0312,-0.41406 -0.27734,-0.78125 -0.69141,-0.8164 -0.41406,-0.0312 -0.78125,0.27734 -0.8164,0.6914 -0.0312,0.41407 0.27734,0.78125 0.6914,0.81641 0.0703,0.008 0.19141,0.0234 0.35157,0.043 0.42187,0.0391 0.79296,-0.26563 0.83593,-0.6875 0.0391,-0.41797 -0.26562,-0.79297 -0.6875,-0.83594 -0.41797,-0.0391 -0.79297,0.26563 -0.83203,0.6875 -0.043,0.41797 0.26563,0.79297 0.6836,0.83594 0.64453,0.0742 1.91015,0.21094 3.3164,0.28516 0.44141,0.0195 0.81641,-0.32032 0.83594,-0.76172 0.0195,-0.44141 -0.32422,-0.81641 -0.76563,-0.83594 -0.4414,-0.0195 -0.8125,0.32031 -0.83203,0.76172 -0.0234,0.44531 0.32032,0.8164 0.76172,0.83594 1.875,0.082 4.09375,0.0508 5.51563,-0.40625 0.41797,-0.14063 0.64453,-0.58985 0.5039,-1.00782 -0.13672,-0.41797 -0.58593,-0.64453 -1.0039,-0.50781 -0.41797,0.14063 -0.64453,0.58984 -0.50782,1.00781 0.13672,0.41797 0.58985,0.64453 1.00782,0.50782 0.51172,-0.27344 0.99609,-0.67969 1.20312,-1.13282 0.15625,-0.23437 0.0898,-0.55078 -0.14453,-0.70703 -0.23437,-0.15625 -0.55469,-0.0898 -0.71094,0.14453 -0.16797,0.11719 -0.40625,0.13672 -0.84765,0.17969 -1.12891,0.38672 -3.11719,0.40625 -4.94532,0.32422 -1.36718,-0.0508 -2.58984,-0.15625 -3.23828,-0.21094 -0.16015,-0.0117 -0.28906,-0.0195 -0.375,-0.0273 -0.0898,-0.004 -0.39843,0.0312 -0.42187,1.44922 0.14844,0.043 0.41015,0.082 0.91797,0.16406 0.39843,0.0703 0.77343,-0.19531 0.84375,-0.59375 0.0664,-0.39453 -0.19922,-0.76953 -0.59375,-0.83984"
       id="path32"
       inkscape:connector-curvature="0" />
    <path
       style="fill:#1747b3;fill-opacity:1;fill-rule:nonzero;stroke:none"
       d="m 220.22266,88.269531 c -0.14454,0.226563 -0.0937,0.914063 0.11718,1.136719 0.3125,0.25 0.76563,0.203125 1.01563,-0.109375 0.25,-0.3125 0.20312,-0.769531 -0.10938,-1.019531 -0.3125,-0.25 -0.76953,-0.199219 -1.01953,0.113281 -0.25,0.3125 -0.19922,0.765625 0.11328,1.015625 0.17969,0.121094 0.40625,0.195312 0.5586,0.21875 0.39062,0.06641 0.76172,-0.203125 0.82422,-0.59375 0.0625,-0.390625 -0.20313,-0.761719 -0.59375,-0.828125 -0.39454,-0.0625 -0.76172,0.203125 -0.82813,0.597656 -0.0625,0.390625 0.20313,0.761719 0.59766,0.824219 0.26953,0.03906 0.66015,0.04687 1.08984,0.03906 0.39063,-0.0078 0.70703,-0.332031 0.69922,-0.726562 -0.008,-0.394531 -0.33203,-0.707031 -0.72656,-0.699219 -0.39453,0.0078 -0.70703,0.332031 -0.69922,0.726563 0.008,0.394531 0.33203,0.707031 0.72656,0.699218 0.85156,-0.02344 2.01172,-0.109374 3.13281,-0.183593 0.38282,-0.02734 0.67578,-0.355469 0.65235,-0.742188 -0.0234,-0.382812 -0.35547,-0.675781 -0.74219,-0.652343 -0.38281,0.02344 -0.67578,0.355468 -0.65234,0.742187 0.0273,0.382813 0.35546,0.675781 0.74218,0.652344 1.17578,-0.128907 2.25,-0.265625 3.09766,-0.269531 0.33594,0.01172 0.61328,-0.25 0.625,-0.585938 0.008,-0.332031 -0.25391,-0.613281 -0.58594,-0.621094 -0.33594,-0.01172 -0.61328,0.25 -0.625,0.585938 -0.008,0.332031 0.25391,0.613281 0.58594,0.621094 0.42187,0 0.73828,0.01953 1.00391,0.08984 0.29296,0.08984 0.60937,-0.07422 0.69921,-0.367187 0.0937,-0.292969 -0.0703,-0.609375 -0.36718,-0.699219 -0.29297,-0.09375 -0.60547,0.07031 -0.69922,0.367187 -0.0898,0.292969 0.0742,0.605469 0.36719,0.699219 0.25781,0.05859 0.35546,0.09375 0.43359,0.210938 0.15625,0.238281 0.47266,0.304687 0.70703,0.148437 0.23828,-0.152344 0.30469,-0.46875 0.15234,-0.707031 -0.20703,-0.316406 -0.58984,-0.582031 -0.96093,-0.71875 -0.36328,-0.128906 -0.82813,-0.199219 -1.29688,-0.230469 -0.93359,-0.05859 -2.07812,0.01953 -3.23828,0.08203 -1.11328,0.06641 -2.25,0.144531 -3.05859,0.152343 -0.40235,0.0039 -0.67969,-0.0039 -0.83203,-0.03516 -0.0625,-0.0078 0.0156,0.01953 0.11718,0.07422 0.12891,0.164062 0.17578,0.769531 0.10938,0.90625 0.25,-0.316406 0.20312,-0.773438 -0.10938,-1.023438 -0.3125,-0.253906 -0.77343,-0.203125 -1.02343,0.109375 z m 0,0"
       id="path34"
       inkscape:connector-curvature="0" />
    <path
       style="fill:#1747b3;fill-opacity:1;fill-rule:nonzero;stroke:none"
       d="m 205.23828,88.460938 c -0.89844,-0.07031 -1.42578,-0.128907 -1.63672,-0.175782 -0.39844,-0.07813 -0.78906,0.183594 -0.86719,0.582032 -0.0781,0.398437 0.17969,0.785156 0.58204,0.863281 0.39843,0.08203 0.78515,-0.179688 0.86328,-0.578125 0.082,-0.398438 -0.17969,-0.789063 -0.57813,-0.867188 -0.082,-0.01563 0.23438,0.191406 0.32422,1.027344 0.21094,-0.351562 0.0937,-0.808594 -0.26172,-1.015625 -0.35156,-0.207031 -0.80859,-0.08984 -1.01562,0.261719 -0.20703,0.351562 -0.0898,0.808594 0.26172,1.015625 0.35546,0.207031 0.80859,0.08984 1.01562,-0.261719 -0.30078,0.269531 -0.39453,0.308594 -0.28125,0.292969 0.41016,-0.06641 0.6875,-0.449219 0.62109,-0.855469 -0.0664,-0.410156 -0.44921,-0.6875 -0.85546,-0.621094 -0.40625,0.06641 -0.6836,0.449219 -0.6211,0.855469 0.0664,0.40625 0.44922,0.683594 0.85547,0.621094 0.52734,-0.08203 2.08594,-0.171875 4.25391,-0.324219 0.42187,-0.03125 0.73828,-0.398438 0.70703,-0.820312 -0.0312,-0.421876 -0.39844,-0.738282 -0.82031,-0.707032 -0.42188,0.03125 -0.73829,0.398438 -0.70704,0.820313 0.0312,0.421875 0.39844,0.738281 0.82032,0.707031 1.99218,-0.230469 4.49609,-0.515625 7.18359,-0.898438 0.28125,-0.03125 0.48438,-0.285156 0.45313,-0.566406 -0.0312,-0.28125 -0.28516,-0.484375 -0.56641,-0.453125 -2.6875,0.214844 -5.18359,0.328125 -7.18359,0.390625 -2.16016,0.164063 -3.7461,0.269532 -4.375,0.375 -0.17579,0.03125 -0.42969,0.113282 -0.76172,0.429688 0.0625,0.882812 0.48828,1.136718 0.66797,1.171875 0.30468,0.05859 0.89453,0.113281 1.80859,0.183593 0.40234,0.03125 0.75,-0.269531 0.78125,-0.671874 0.0312,-0.398438 -0.26563,-0.75 -0.66797,-0.78125"
       id="path36"
       inkscape:connector-curvature="0" />
    <path
       style="fill:#1747b3;fill-opacity:1;fill-rule:nonzero;stroke:none"
       d="m 233.83594,122.14453 c 0.0352,0.14844 0.10547,0.1211 0.16015,0.11719 -0.22265,0.21875 -0.22656,0.57812 -0.008,0.80078 0.21875,0.22266 0.57422,0.22656 0.79688,0.008 0.22656,-0.21484 0.23046,-0.57422 0.0117,-0.79687 -0.21875,-0.22266 -0.57812,-0.23047 -0.80078,-0.0117 0.0469,-0.0469 0.28907,-0.125 0.34766,-0.14844 -0.33203,-0.0977 -0.68359,0.0937 -0.78125,0.42969 -0.0977,0.33594 0.0937,0.6875 0.42969,0.78516 0.33593,0.0977 0.68359,-0.0937 0.78515,-0.42969 0.0977,-0.33594 -0.0977,-0.6875 -0.43359,-0.78516 0.0391,0 0.10156,0.0117 0.0742,-0.0508 -0.26563,-0.28125 -0.70703,-0.29687 -0.98828,-0.0312 -0.28125,0.26563 -0.29297,0.71094 -0.0273,0.99219 0.26563,0.28125 0.70703,0.29297 0.98828,0.0273 0.28125,-0.26562 0.29297,-0.71094 0.0273,-0.98828 -0.0742,-0.13672 -0.13281,-0.32812 -0.17578,-0.61719 -0.26563,-0.95312 0.15234,-2.60547 0.33593,-5.21875 0.0859,-1.50781 0.0664,-3.1289 0.10547,-4.85547 -0.0234,-1.09765 -0.0312,-2.13281 0.17969,-3.26562 0.35156,-1.40625 1.03906,-3.01563 1.75781,-4.44141 1.22657,-2.54297 2.3086,-4.249998 3.47266,-5.359372 0.55469,-0.546876 0.97266,-0.828126 1.35156,-0.84375 0.043,-0.01953 0.11328,0.04297 0.41797,0.378906 0.32813,0.339844 0.62109,0.828125 0.95313,1.519531 0.67578,1.390625 1.27734,3.277345 1.86328,5.257815 0.78906,2.40234 1.39062,4.44922 1.86718,6.27344 0.4375,1.61718 0.76954,3.03515 1.03125,4.33203 0.20313,0.96875 0.36329,1.84765 0.49219,2.6875 0.0898,0.59765 0.64453,1.00781 1.24219,0.91797 0.59375,-0.0898 1.00781,-0.64454 0.91797,-1.24219 -0.0898,-0.59375 -0.64453,-1.00781 -1.24219,-0.91797 -0.59375,0.0898 -1.00781,0.64453 -0.91797,1.24219 0.082,0.55859 0.14844,1.08593 0.20703,1.60156 0.0703,0.60156 0.60938,1.03125 1.21094,0.96484 0.59766,-0.0664 1.03125,-0.60937 0.96484,-1.20703 -0.0703,-0.60156 -0.60937,-1.03515 -1.21093,-0.96484 -0.59766,0.0664 -1.03125,0.60937 -0.96485,1.20703 0.10547,0.51172 0.20313,1 0.28907,1.48437 0.043,0.52344 0.5,0.91407 1.02343,0.8711 0.51953,-0.043 0.91016,-0.5 0.86719,-1.02344 -0.043,-0.51953 -0.5,-0.91016 -1.01953,-0.86719 -0.52344,0.043 -0.91406,0.5 -0.87109,1.01953 0.17578,0.35938 0.34375,0.70704 0.51171,1.05469 0.0195,0.28125 0.26172,0.4961 0.54297,0.48047 0.28125,-0.0195 0.4961,-0.26172 0.48047,-0.54297 0.1211,-0.375 0.24219,-0.7539 0.35547,-1.14453 0.008,-0.50391 0.008,-1.03516 -0.004,-1.57422 -0.0625,-0.53906 -0.13671,-1.10156 -0.22265,-1.68359 -0.125,-0.86719 -0.28516,-1.8086 -0.48828,-2.8125 -0.28125,-1.32813 -0.64844,-2.8125 -1.10938,-4.45703 -0.53906,-1.84375 -1.21094,-3.9336 -2.04297,-6.30469 -0.58203,-1.96484 -1.23437,-3.98828 -1.97265,-5.523439 -0.375,-0.773437 -0.82422,-1.503906 -1.29688,-2.015625 -0.49609,-0.515625 -1.27344,-0.949218 -1.98828,-1 -1.01172,0.164063 -1.92969,0.757813 -2.60937,1.4375 -1.31641,1.308594 -2.5625,3.300784 -3.80469,5.921874 -0.73438,1.46094 -1.4961,3.25 -1.91016,4.875 -0.24219,1.35938 -0.24219,2.58985 -0.21875,3.66797 -0.0117,1.72656 0.0352,3.32031 -0.0234,4.75 -0.12109,2.48828 -0.50781,4.32422 -0.12109,5.80078 0.19531,0.44531 0.48438,0.86328 0.75781,1.09766 0.14453,0.11719 0.38672,0.25781 0.58985,0.30469 0.22265,0.0273 0.61718,-0.082 0.79297,-0.25782 0.20312,-0.14453 0.39062,-0.4414 0.48828,-0.71484 0.0586,-0.39453 -0.21485,-0.76563 -0.61328,-0.82422 -0.39844,-0.0586 -0.76563,0.21484 -0.82422,0.61328 z m 0,0"
       id="path38"
       inkscape:connector-curvature="0" />
  </g>
</svg>
